<svg width="12" height="13" viewBox="0 0 12 13" fill="none" xmlns="http://www.w3.org/2000/svg">
<path d="M11.7474 0.278384C12.0821 0.613103 12.0821 1.1558 11.7474 1.49052L2.03349 11.2044C1.69877 11.5392 1.15607 11.5392 0.821352 11.2044C0.486633 10.8697 0.486633 10.3271 0.821352 9.99237L10.5353 0.278384C10.8701 -0.0563362 11.4127 -0.0563362 11.7474 0.278384Z" fill="#C42221"/>
<path d="M0 0.884457C0 0.41109 0.383747 0.0273438 0.857113 0.0273438H11.1425C11.6158 0.0273438 11.9996 0.41109 11.9996 0.884457V11.1698C11.9996 11.6432 11.6158 12.0269 11.1425 12.0269C10.6691 12.0269 10.2854 11.6432 10.2854 11.1698V1.74157H0.857113C0.383747 1.74157 0 1.35782 0 0.884457Z" fill="#C42221"/>
</svg>
