<svg width="15" height="15" viewBox="0 0 15 15" fill="none" xmlns="http://www.w3.org/2000/svg">
<path d="M13.8447 7.07134C13.8447 6.67685 13.5249 6.35705 13.1304 6.35705H1.68207C1.28758 6.35705 0.96778 6.67685 0.967787 7.07134C0.967794 7.46583 1.28754 7.78558 1.68203 7.78558H13.1305C13.525 7.78558 13.8447 7.46583 13.8447 7.07134Z" fill="#999999"/>
<path d="M6.56524 13.6375C6.84418 13.9164 7.29645 13.9164 7.57539 13.6375L13.6363 7.57659C13.9152 7.29765 13.9152 6.84538 13.6363 6.56643L7.57539 0.505519C7.29645 0.226582 6.84417 0.226582 6.56524 0.505519C6.2863 0.784456 6.2863 1.23673 6.56524 1.51567L12.1211 7.07151L6.56524 12.6273C6.28629 12.9063 6.28629 13.3586 6.56524 13.6375Z" fill="#999999"/>
</svg>
