<svg width="12" height="13" viewBox="0 0 12 13" fill="none" xmlns="http://www.w3.org/2000/svg">
<path d="M11.7488 0.556224C12.0835 0.890956 12.0835 1.43368 11.7488 1.76841L2.03452 11.4827C1.69979 11.8174 1.15707 11.8174 0.822338 11.4827C0.487606 11.1479 0.487606 10.6053 0.822338 10.2705L10.5367 0.556224C10.8714 0.221493 11.414 0.221493 11.7488 0.556224Z" fill="white"/>
<path d="M0 1.16232C0 0.688936 0.38376 0.305176 0.857143 0.305176H11.1429C11.6162 0.305176 12 0.688936 12 1.16232V11.448C12 11.9214 11.6162 12.3052 11.1429 12.3052C10.6695 12.3052 10.2857 11.9214 10.2857 11.448V2.01946H0.857143C0.38376 2.01946 0 1.6357 0 1.16232Z" fill="white"/>
</svg>
