<svg width="294" height="629" viewBox="0 0 294 629" fill="none" xmlns="http://www.w3.org/2000/svg">
<circle cx="74" cy="74" r="73.5" transform="matrix(-1 0 0 1 388 240.98)" stroke="url(#paint0_linear_197_3722)"/>
<circle cx="122" cy="122" r="121.5" transform="matrix(-1 0 0 1 436 192.98)" stroke="url(#paint1_linear_197_3722)"/>
<circle cx="170" cy="170" r="169.5" transform="matrix(-1 0 0 1 484 144.98)" stroke="url(#paint2_linear_197_3722)"/>
<circle cx="218" cy="218" r="217.5" transform="matrix(-1 0 0 1 532 96.9805)" stroke="url(#paint3_linear_197_3722)"/>
<circle cx="266" cy="266" r="265.5" transform="matrix(-1 0 0 1 580 48.9805)" stroke="url(#paint4_linear_197_3722)"/>
<circle cx="314" cy="314" r="313.5" transform="matrix(-1 0 0 1 628 0.980469)" stroke="url(#paint5_linear_197_3722)"/>
<defs>
<linearGradient id="paint0_linear_197_3722" x1="74.1725" y1="148" x2="74.1725" y2="-9.20107e-06" gradientUnits="userSpaceOnUse">
<stop stop-color="white" stop-opacity="0"/>
<stop offset="1" stop-color="white" stop-opacity="0.2"/>
</linearGradient>
<linearGradient id="paint1_linear_197_3722" x1="122.284" y1="244" x2="122.284" y2="-1.51693e-05" gradientUnits="userSpaceOnUse">
<stop stop-color="white" stop-opacity="0"/>
<stop offset="1" stop-color="white" stop-opacity="0.2"/>
</linearGradient>
<linearGradient id="paint2_linear_197_3722" x1="170.396" y1="340" x2="170.396" y2="-2.11376e-05" gradientUnits="userSpaceOnUse">
<stop stop-color="white" stop-opacity="0"/>
<stop offset="1" stop-color="white" stop-opacity="0.2"/>
</linearGradient>
<linearGradient id="paint3_linear_197_3722" x1="436" y1="218" x2="1.11562e-06" y2="218" gradientUnits="userSpaceOnUse">
<stop stop-color="white" stop-opacity="0"/>
<stop offset="1" stop-color="white" stop-opacity="0.2"/>
</linearGradient>
<linearGradient id="paint4_linear_197_3722" x1="532" y1="266" x2="1.36127e-06" y2="266" gradientUnits="userSpaceOnUse">
<stop stop-color="white" stop-opacity="0"/>
<stop offset="1" stop-color="white" stop-opacity="0.2"/>
</linearGradient>
<linearGradient id="paint5_linear_197_3722" x1="628" y1="314" x2="1.60691e-06" y2="314" gradientUnits="userSpaceOnUse">
<stop stop-color="white" stop-opacity="0"/>
<stop offset="1" stop-color="white" stop-opacity="0.2"/>
</linearGradient>
</defs>
</svg>
