<svg width="152" height="37" viewBox="0 0 152 37" fill="none" xmlns="http://www.w3.org/2000/svg">
<path d="M44.5908 23.8602H55.4185V20.5817H48.4392V8.23242H44.5908V23.8602Z" fill="#031521"/>
<path d="M61.8341 21.6744C60.2904 21.6744 59.4859 20.3192 59.4859 18.2865C59.4859 16.2538 60.2904 14.8768 61.8341 14.8768C63.3778 14.8768 64.204 16.2538 64.204 18.2865C64.204 20.3192 63.3778 21.6744 61.8341 21.6744ZM61.8558 24.2098C65.4433 24.2098 67.7915 21.6525 67.7915 18.2865C67.7915 14.9206 65.4433 12.3633 61.8558 12.3633C58.2901 12.3633 55.8984 14.9206 55.8984 18.2865C55.8984 21.6525 58.2901 24.2098 61.8558 24.2098Z" fill="#031521"/>
<path d="M74.0009 27.7292C75.6533 27.7292 77.1101 27.3576 78.0885 26.4833C78.9799 25.6746 79.5669 24.4506 79.5669 22.7676V12.6697H76.1751V13.8718H76.1317C75.4794 12.9319 74.4792 12.3418 73.0008 12.3418C70.2395 12.3418 68.3262 14.6586 68.3262 17.9372C68.3262 21.3688 70.6526 23.2485 73.153 23.2485C74.501 23.2485 75.3489 22.702 76.0012 21.9589H76.0882V23.0736C76.0882 24.4287 75.4576 25.2156 73.9574 25.2156C72.7833 25.2156 72.1963 24.7129 72.0006 24.1227H68.5653C68.9132 26.4615 70.9352 27.7292 74.0009 27.7292ZM73.9792 20.6038C72.6529 20.6038 71.7832 19.5109 71.7832 17.8279C71.7832 16.1231 72.6529 15.0302 73.9792 15.0302C75.4576 15.0302 76.2404 16.2979 76.2404 17.8061C76.2404 19.3798 75.5229 20.6038 73.9792 20.6038Z" fill="#031521"/>
<path d="M86.5411 21.6744C84.9974 21.6744 84.1929 20.3192 84.1929 18.2865C84.1929 16.2538 84.9974 14.8768 86.5411 14.8768C88.0848 14.8768 88.911 16.2538 88.911 18.2865C88.911 20.3192 88.0848 21.6744 86.5411 21.6744ZM86.5628 24.2098C90.1503 24.2098 92.498 21.6525 92.498 18.2865C92.498 14.9206 90.1503 12.3633 86.5628 12.3633C82.9971 12.3633 80.6055 14.9206 80.6055 18.2865C80.6055 21.6525 82.9971 24.2098 86.5628 24.2098Z" fill="#031521"/>
<path d="M93.5332 23.8602H97.0772V12.6694H93.5332V23.8602ZM93.5332 11.1176H97.0772V8.23242H93.5332V11.1176Z" fill="#031521"/>
<path d="M98.6152 27.5543H102.159V22.702H102.203C102.898 23.6419 103.92 24.2102 105.355 24.2102C108.269 24.2102 110.204 21.8933 110.204 18.2651C110.204 14.8991 108.399 12.3418 105.442 12.3418C103.92 12.3418 102.833 13.0194 102.072 14.0248H102.007V12.6697H98.6152V27.5543ZM104.442 21.4562C102.92 21.4562 102.051 20.2103 102.051 18.3962C102.051 16.5821 102.833 15.2051 104.377 15.2051C105.899 15.2051 106.616 16.4728 106.616 18.3962C106.616 20.2978 105.79 21.4562 104.442 21.4562Z" fill="#031521"/>
<path d="M115.972 24.2102C118.886 24.2102 121.038 22.9425 121.038 20.4945C121.038 17.6312 118.734 17.1285 116.777 16.8006C115.364 16.5384 114.103 16.4291 114.103 15.6422C114.103 14.9428 114.777 14.6149 115.646 14.6149C116.625 14.6149 117.299 14.9209 117.429 15.9264H120.69C120.517 13.7188 118.821 12.3418 115.668 12.3418C113.037 12.3418 110.863 13.5658 110.863 15.9264C110.863 18.5492 112.929 19.0738 114.864 19.4016C116.342 19.6639 117.69 19.7732 117.69 20.7786C117.69 21.4999 117.016 21.8933 115.951 21.8933C114.777 21.8933 114.037 21.3469 113.907 20.2322H110.559C110.667 22.702 112.711 24.2102 115.972 24.2102Z" fill="#031521"/>
<path d="M125.853 24.1886C127.397 24.1886 128.375 23.5766 129.18 22.4837H129.245V23.8607H132.637V12.6699H129.093V18.921C129.093 20.2543 128.353 21.1723 127.136 21.1723C126.005 21.1723 125.462 20.4947 125.462 19.2707V12.6699H121.939V20.0139C121.939 22.5056 123.287 24.1886 125.853 24.1886Z" fill="#031521"/>
<path d="M134.178 23.8605H137.722V17.5875C137.722 16.2542 138.374 15.3144 139.483 15.3144C140.548 15.3144 141.048 16.0138 141.048 17.2159V23.8605H144.592V17.5875C144.592 16.2542 145.223 15.3144 146.353 15.3144C147.419 15.3144 147.919 16.0138 147.919 17.2159V23.8605H151.463V16.5821C151.463 14.0685 150.202 12.3418 147.68 12.3418C146.245 12.3418 145.049 12.9538 144.179 14.3089H144.136C143.57 13.1068 142.462 12.3418 141.005 12.3418C139.396 12.3418 138.331 13.1068 137.635 14.2652H137.57V12.6697H134.178V23.8605Z" fill="#031521"/>
<path fill-rule="evenodd" clip-rule="evenodd" d="M8.19415 3.26542C6.91332 4.16575 5.7551 5.23023 4.74966 6.4285C8.85835 6.04504 14.0783 6.67119 20.1386 9.71736C26.6102 12.9701 31.8214 13.0801 35.4481 12.3769C35.119 11.3752 34.7047 10.4126 34.214 9.49749C30.0623 9.93768 24.7399 9.35502 18.5371 6.23733C14.5983 4.2575 11.1262 3.44195 8.19415 3.26542ZM31.7888 6.02733C28.5102 2.34484 23.7456 0.0273438 18.4426 0.0273438C16.8852 0.0273438 15.3742 0.22724 13.9337 0.602876C15.8847 1.13802 17.9572 1.92093 20.1386 3.01738C24.6799 5.30002 28.6007 6.03499 31.7888 6.02733ZM36.2235 15.8926C31.842 16.7624 25.7917 16.5837 18.5371 12.9373C11.7549 9.52827 6.35678 9.5712 2.71612 10.3845C2.5282 10.4265 2.3447 10.4706 2.16564 10.5165C1.68899 11.5586 1.30851 12.6544 1.03551 13.7924C1.32709 13.7141 1.62839 13.6397 1.93925 13.5702C6.35601 12.5835 12.5965 12.6263 20.1386 16.4173C26.9209 19.8263 32.319 19.7834 35.9597 18.9701C36.0844 18.9423 36.2073 18.9135 36.3282 18.8838C36.3414 18.6 36.3481 18.3144 36.3481 18.0273C36.3481 17.3051 36.3058 16.5927 36.2235 15.8926ZM35.7436 22.6824C31.4046 23.445 25.5305 23.1523 18.5371 19.6373C11.7549 16.2282 6.35678 16.2712 2.71612 17.0845C1.908 17.2649 1.18103 17.4848 0.539733 17.7169C0.537984 17.8202 0.537109 17.9237 0.537109 18.0273C0.537109 27.9685 8.55366 36.0273 18.4426 36.0273C26.7302 36.0273 33.7028 30.3672 35.7436 22.6824Z" fill="#C42221"/>
</svg>
