<svg width="150" height="37" viewBox="0 0 150 37" fill="none" xmlns="http://www.w3.org/2000/svg">
<path d="M44.3691 23.8382H55.0692V20.5983H48.1722V8.39453H44.3691V23.8382Z" fill="#031521"/>
<path d="M61.4087 21.678C59.8832 21.678 59.0882 20.3388 59.0882 18.33C59.0882 16.3213 59.8832 14.9605 61.4087 14.9605C62.9342 14.9605 63.7507 16.3213 63.7507 18.33C63.7507 20.3388 62.9342 21.678 61.4087 21.678ZM61.4302 24.1835C64.9754 24.1835 67.2959 21.6564 67.2959 18.33C67.2959 15.0037 64.9754 12.4766 61.4302 12.4766C57.9064 12.4766 55.543 15.0037 55.543 18.33C55.543 21.6564 57.9064 24.1835 61.4302 24.1835Z" fill="#031521"/>
<path d="M73.4331 27.6612C75.066 27.6612 76.5056 27.294 77.4725 26.43C78.3534 25.6308 78.9335 24.4212 78.9335 22.7581V12.7791H75.5817V13.967H75.5387C74.8941 13.0383 73.9058 12.4551 72.4447 12.4551C69.716 12.4551 67.8252 14.7446 67.8252 17.9846C67.8252 21.3757 70.1242 23.2333 72.5951 23.2333C73.9273 23.2333 74.7652 22.6933 75.4098 21.9589H75.4958V23.0605C75.4958 24.3996 74.8727 25.1772 73.3901 25.1772C72.2299 25.1772 71.6497 24.6804 71.4564 24.0972H68.0615C68.4053 26.4084 70.4035 27.6612 73.4331 27.6612ZM73.4116 20.6197C72.1009 20.6197 71.2415 19.5397 71.2415 17.8766C71.2415 16.1918 72.1009 15.1118 73.4116 15.1118C74.8727 15.1118 75.6462 16.3646 75.6462 17.855C75.6462 19.4101 74.9371 20.6197 73.4116 20.6197Z" fill="#031521"/>
<path d="M85.8247 21.678C84.2992 21.678 83.5042 20.3388 83.5042 18.33C83.5042 16.3213 84.2992 14.9605 85.8247 14.9605C87.3502 14.9605 88.1667 16.3213 88.1667 18.33C88.1667 20.3388 87.3502 21.678 85.8247 21.678ZM85.8462 24.1835C89.3914 24.1835 91.7115 21.6564 91.7115 18.33C91.7115 15.0037 89.3914 12.4766 85.8462 12.4766C82.3225 12.4766 79.959 15.0037 79.959 18.33C79.959 21.6564 82.3225 24.1835 85.8462 24.1835Z" fill="#031521"/>
<path d="M92.7344 23.8382H96.2366V12.7792H92.7344V23.8382ZM92.7344 11.2457H96.2366V8.39453H92.7344V11.2457Z" fill="#031521"/>
<path d="M97.7568 27.4884H101.259V22.6933H101.302C101.99 23.6221 102.999 24.1836 104.418 24.1836C107.297 24.1836 109.209 21.8941 109.209 18.3086C109.209 14.9822 107.426 12.4551 104.503 12.4551C102.999 12.4551 101.925 13.1247 101.173 14.1182H101.109V12.7791H97.7568V27.4884ZM103.515 21.4621C102.011 21.4621 101.152 20.2309 101.152 18.4382C101.152 16.6454 101.925 15.2846 103.451 15.2846C104.955 15.2846 105.664 16.5374 105.664 18.4382C105.664 20.3173 104.847 21.4621 103.515 21.4621Z" fill="#031521"/>
<path d="M114.911 24.1836C117.79 24.1836 119.917 22.9309 119.917 20.5117C119.917 17.6822 117.639 17.1854 115.706 16.8614C114.309 16.6022 113.063 16.4942 113.063 15.7166C113.063 15.0254 113.729 14.7014 114.588 14.7014C115.555 14.7014 116.221 15.0038 116.35 15.9974H119.573C119.401 13.8159 117.725 12.4551 114.61 12.4551C112.01 12.4551 109.861 13.6647 109.861 15.9974C109.861 18.5894 111.903 19.1077 113.815 19.4317C115.276 19.6909 116.608 19.7989 116.608 20.7925C116.608 21.5053 115.942 21.8941 114.889 21.8941C113.729 21.8941 112.998 21.3541 112.869 20.2525H109.561C109.668 22.6933 111.688 24.1836 114.911 24.1836Z" fill="#031521"/>
<path d="M124.674 24.1623C126.2 24.1623 127.167 23.5575 127.962 22.4775H128.026V23.8383H131.378V12.7793H127.876V18.9568C127.876 20.2743 127.145 21.1815 125.942 21.1815C124.825 21.1815 124.287 20.5119 124.287 19.3024V12.7793H120.807V20.0368C120.807 22.4991 122.139 24.1623 124.674 24.1623Z" fill="#031521"/>
<path d="M132.901 23.8381H136.404V17.639C136.404 16.3214 137.048 15.3926 138.144 15.3926C139.197 15.3926 139.691 16.0838 139.691 17.2718V23.8381H143.193V17.639C143.193 16.3214 143.816 15.3926 144.934 15.3926C145.986 15.3926 146.481 16.0838 146.481 17.2718V23.8381H149.983V16.6454C149.983 14.1614 148.737 12.4551 146.244 12.4551C144.826 12.4551 143.644 13.0599 142.785 14.399H142.742C142.183 13.2111 141.088 12.4551 139.648 12.4551C138.058 12.4551 137.005 13.2111 136.318 14.3558H136.253V12.7791H132.901V23.8381Z" fill="#031521"/>
<path d="M23.0013 0.975798L19.4803 0.0273438L16.5131 11.1597L13.8342 1.10934L10.3131 2.05779L13.2074 12.9165L5.99824 5.66931L3.42063 8.26053L11.3282 16.2099L1.48058 13.5573L0.537109 17.0969L11.2969 19.9952C11.1737 19.4611 11.1085 18.9045 11.1085 18.3327C11.1085 14.2849 14.3726 11.0036 18.3991 11.0036C22.4256 11.0036 25.6897 14.2849 25.6897 18.3327C25.6897 18.9008 25.6253 19.454 25.5037 19.985L35.2823 22.6189L36.2257 19.0793L25.4232 16.1695L35.2715 13.5167L34.3279 9.97707L23.5259 12.8867L30.735 5.63956L28.1574 3.04834L20.3595 10.8874L23.0013 0.975798Z" fill="#C42221"/>
<path d="M25.4944 20.0273C25.1925 21.3104 24.5552 22.463 23.6807 23.3864L30.7648 30.5081L33.3425 27.9169L25.4944 20.0273Z" fill="#C42221"/>
<path d="M23.6093 23.4609C22.7243 24.3696 21.6058 25.0478 20.3516 25.3972L22.9294 35.0685L26.4504 34.12L23.6093 23.4609Z" fill="#C42221"/>
<path d="M20.2201 25.4317C19.6382 25.5821 19.0283 25.662 18.3997 25.662C17.7263 25.662 17.0742 25.5702 16.4551 25.3984L13.875 35.0785L17.396 36.0269L20.2201 25.4317Z" fill="#C42221"/>
<path d="M16.3296 25.3653C15.0945 24.9985 13.9959 24.3117 13.1289 23.4004L6.02734 30.5395L8.60496 33.1307L16.3296 25.3653Z" fill="#C42221"/>
<path d="M13.0709 23.3351C12.2188 22.418 11.5982 21.2808 11.3027 20.0176L1.49219 22.6602L2.43565 26.1998L13.0709 23.3351Z" fill="#C42221"/>
</svg>
