<svg width="152" height="37" viewBox="0 0 152 37" fill="none" xmlns="http://www.w3.org/2000/svg">
<path d="M44.7559 23.8583H55.5835V20.5797H48.6042V8.23047H44.7559V23.8583Z" fill="#031521"/>
<path d="M61.9981 21.6724C60.4544 21.6724 59.65 20.3173 59.65 18.2846C59.65 16.2519 60.4544 14.8749 61.9981 14.8749C63.5418 14.8749 64.368 16.2519 64.368 18.2846C64.368 20.3173 63.5418 21.6724 61.9981 21.6724ZM62.0199 24.2078C65.6074 24.2078 67.9555 21.6506 67.9555 18.2846C67.9555 14.9186 65.6074 12.3613 62.0199 12.3613C58.4542 12.3613 56.0625 14.9186 56.0625 18.2846C56.0625 21.6506 58.4542 24.2078 62.0199 24.2078Z" fill="#031521"/>
<path d="M74.1659 27.7272C75.8184 27.7272 77.2751 27.3556 78.2535 26.4814C79.1449 25.6726 79.732 24.4486 79.732 22.7657V12.6677H76.3402V13.8698H76.2967C75.6444 12.93 74.6443 12.3398 73.1658 12.3398C70.4045 12.3398 68.4912 14.6567 68.4912 17.9352C68.4912 21.3668 70.8176 23.2465 73.318 23.2465C74.666 23.2465 75.514 22.7001 76.1662 21.9569H76.2532V23.0717C76.2532 24.4268 75.6227 25.2136 74.1225 25.2136C72.9484 25.2136 72.3613 24.7109 72.1657 24.1208H68.7304C69.0783 26.4595 71.1003 27.7272 74.1659 27.7272ZM74.1442 20.6018C72.8179 20.6018 71.9482 19.509 71.9482 17.826C71.9482 16.1211 72.8179 15.0283 74.1442 15.0283C75.6227 15.0283 76.4054 16.296 76.4054 17.8041C76.4054 19.3778 75.6879 20.6018 74.1442 20.6018Z" fill="#031521"/>
<path d="M86.7052 21.6724C85.1615 21.6724 84.357 20.3173 84.357 18.2846C84.357 16.2519 85.1615 14.8749 86.7052 14.8749C88.2489 14.8749 89.0751 16.2519 89.0751 18.2846C89.0751 20.3173 88.2489 21.6724 86.7052 21.6724ZM86.7269 24.2078C90.3144 24.2078 92.6621 21.6506 92.6621 18.2846C92.6621 14.9186 90.3144 12.3613 86.7269 12.3613C83.1612 12.3613 80.7695 14.9186 80.7695 18.2846C80.7695 21.6506 83.1612 24.2078 86.7269 24.2078Z" fill="#031521"/>
<path d="M93.6982 23.8583H97.2422V12.6674H93.6982V23.8583ZM93.6982 11.1156H97.2422V8.23047H93.6982V11.1156Z" fill="#031521"/>
<path d="M98.7793 27.5524H102.323V22.7001H102.367C103.063 23.6399 104.084 24.2082 105.519 24.2082C108.433 24.2082 110.368 21.8914 110.368 18.2631C110.368 14.8971 108.563 12.3398 105.606 12.3398C104.084 12.3398 102.997 13.0174 102.236 14.0228H102.171V12.6677H98.7793V27.5524ZM104.606 21.4542C103.084 21.4542 102.215 20.2084 102.215 18.3942C102.215 16.5801 102.997 15.2031 104.541 15.2031C106.063 15.2031 106.78 16.4708 106.78 18.3942C106.78 20.2958 105.954 21.4542 104.606 21.4542Z" fill="#031521"/>
<path d="M116.137 24.2082C119.051 24.2082 121.203 22.9405 121.203 20.4925C121.203 17.6292 118.899 17.1265 116.942 16.7987C115.529 16.5364 114.268 16.4271 114.268 15.6403C114.268 14.9408 114.942 14.613 115.811 14.613C116.79 14.613 117.464 14.919 117.594 15.9244H120.856C120.682 13.7168 118.986 12.3398 115.833 12.3398C113.202 12.3398 111.028 13.5638 111.028 15.9244C111.028 18.5472 113.094 19.0718 115.029 19.3997C116.507 19.662 117.855 19.7712 117.855 20.7767C117.855 21.4979 117.181 21.8914 116.116 21.8914C114.942 21.8914 114.202 21.3449 114.072 20.2302H110.724C110.832 22.7001 112.876 24.2082 116.137 24.2082Z" fill="#031521"/>
<path d="M126.018 24.1866C127.562 24.1866 128.54 23.5746 129.345 22.4818H129.41V23.8588H132.802V12.668H129.258V18.9191C129.258 20.2524 128.518 21.1704 127.301 21.1704C126.17 21.1704 125.627 20.4928 125.627 19.2688V12.668H122.104V20.0119C122.104 22.5036 123.453 24.1866 126.018 24.1866Z" fill="#031521"/>
<path d="M134.344 23.8585H137.888V17.5855C137.888 16.2523 138.54 15.3124 139.649 15.3124C140.714 15.3124 141.214 16.0118 141.214 17.214V23.8585H144.758V17.5855C144.758 16.2523 145.389 15.3124 146.519 15.3124C147.585 15.3124 148.085 16.0118 148.085 17.214V23.8585H151.629V16.5801C151.629 14.0666 150.368 12.3398 147.846 12.3398C146.411 12.3398 145.215 12.9518 144.345 14.307H144.302C143.736 13.1048 142.628 12.3398 141.171 12.3398C139.562 12.3398 138.497 13.1048 137.801 14.2633H137.736V12.6677H134.344V23.8585Z" fill="#031521"/>
<path fill-rule="evenodd" clip-rule="evenodd" d="M23.4165 10.5441C21.9442 9.55519 20.2133 9.02735 18.4426 9.02735V0.0273438C21.9839 0.0273438 25.4458 1.08303 28.3903 3.06089C31.3349 5.03875 33.6298 7.84997 34.9851 11.139C36.3403 14.4281 36.6949 18.0473 36.004 21.539C35.3131 25.0306 33.6078 28.2379 31.1037 30.7552C28.5996 33.2726 25.4091 34.9869 21.9358 35.6815C18.4625 36.376 14.8622 36.0195 11.5904 34.6572C8.31865 33.2948 5.5222 30.9877 3.55473 28.0276C1.58725 25.0675 0.537109 21.5874 0.537109 18.0273H9.48985C9.48985 19.8074 10.0149 21.5474 10.9987 23.0275C11.9824 24.5075 13.3806 25.6611 15.0166 26.3423C16.6524 27.0235 18.4525 27.2017 20.1892 26.8544C21.9258 26.5071 23.521 25.65 24.7732 24.3913C26.0252 23.1326 26.8779 21.529 27.2233 19.7832C27.5687 18.0373 27.3915 16.2277 26.7139 14.5832C26.0362 12.9387 24.8887 11.533 23.4165 10.5441Z" fill="#C42221"/>
<path fill-rule="evenodd" clip-rule="evenodd" d="M9.48985 0.0273485C9.48985 1.20925 9.25828 2.37957 8.80836 3.4715C8.35844 4.56343 7.69899 5.55558 6.86765 6.39131C6.03632 7.22704 5.04938 7.88997 3.96317 8.34227C2.87697 8.79456 1.7128 9.02735 0.53711 9.02735L0.537109 18.0274C2.88849 18.0274 5.21685 17.5618 7.38925 16.6572C9.56165 15.7526 11.5355 14.4267 13.1982 12.7552C14.8609 11.0838 16.1798 9.09953 17.0796 6.91565C17.9795 4.73178 18.4426 2.39113 18.4426 0.0273438L9.48985 0.0273485Z" fill="#C42221"/>
</svg>
