<svg width="152" height="37" viewBox="0 0 152 37" fill="none" xmlns="http://www.w3.org/2000/svg">
<path d="M44.9922 23.9071H55.8198V20.6285H48.8406V8.2793H44.9922V23.9071Z" fill="#031521"/>
<path d="M62.2345 21.7213C60.6908 21.7213 59.8863 20.3661 59.8863 18.3334C59.8863 16.3007 60.6908 14.9237 62.2345 14.9237C63.7782 14.9237 64.6044 16.3007 64.6044 18.3334C64.6044 20.3661 63.7782 21.7213 62.2345 21.7213ZM62.2562 24.2567C65.8437 24.2567 68.1919 21.6994 68.1919 18.3334C68.1919 14.9674 65.8437 12.4102 62.2562 12.4102C58.6905 12.4102 56.2988 14.9674 56.2988 18.3334C56.2988 21.6994 58.6905 24.2567 62.2562 24.2567Z" fill="#031521"/>
<path d="M74.4023 27.776C76.0547 27.776 77.5114 27.4045 78.4898 26.5302C79.3813 25.7215 79.9683 24.4975 79.9683 22.8145V12.7165H76.5765V13.9187H76.533C75.8808 12.9788 74.8806 12.3887 73.4021 12.3887C70.6409 12.3887 68.7275 14.7055 68.7275 17.9841C68.7275 21.4156 71.054 23.2953 73.5543 23.2953C74.9023 23.2953 75.7503 22.7489 76.4026 22.0058H76.4895V23.1205C76.4895 24.4756 75.859 25.2625 74.3588 25.2625C73.1847 25.2625 72.5977 24.7598 72.402 24.1696H68.9667C69.3146 26.5083 71.3366 27.776 74.4023 27.776ZM74.3805 20.6506C73.0543 20.6506 72.1846 19.5578 72.1846 17.8748C72.1846 16.1699 73.0543 15.0771 74.3805 15.0771C75.859 15.0771 76.6417 16.3448 76.6417 17.8529C76.6417 19.4266 75.9242 20.6506 74.3805 20.6506Z" fill="#031521"/>
<path d="M86.9415 21.7213C85.3978 21.7213 84.5933 20.3661 84.5933 18.3334C84.5933 16.3007 85.3978 14.9237 86.9415 14.9237C88.4852 14.9237 89.3114 16.3007 89.3114 18.3334C89.3114 20.3661 88.4852 21.7213 86.9415 21.7213ZM86.9632 24.2567C90.5507 24.2567 92.8984 21.6994 92.8984 18.3334C92.8984 14.9674 90.5507 12.4102 86.9632 12.4102C83.3975 12.4102 81.0059 14.9674 81.0059 18.3334C81.0059 21.6994 83.3975 24.2567 86.9632 24.2567Z" fill="#031521"/>
<path d="M93.9346 23.9071H97.4786V12.7163H93.9346V23.9071ZM93.9346 11.1644H97.4786V8.2793H93.9346V11.1644Z" fill="#031521"/>
<path d="M99.0156 27.6012H102.56V22.7489H102.603C103.299 23.6888 104.321 24.257 105.756 24.257C108.669 24.257 110.604 21.9402 110.604 18.3119C110.604 14.9459 108.8 12.3887 105.843 12.3887C104.321 12.3887 103.234 13.0662 102.473 14.0717H102.407V12.7165H99.0156V27.6012ZM104.843 21.5031C103.321 21.5031 102.451 20.2572 102.451 18.4431C102.451 16.6289 103.234 15.2519 104.777 15.2519C106.299 15.2519 107.017 16.5197 107.017 18.4431C107.017 20.3446 106.191 21.5031 104.843 21.5031Z" fill="#031521"/>
<path d="M116.374 24.257C119.287 24.257 121.44 22.9893 121.44 20.5414C121.44 17.6781 119.135 17.1754 117.178 16.8475C115.765 16.5852 114.504 16.4759 114.504 15.6891C114.504 14.9897 115.178 14.6618 116.048 14.6618C117.026 14.6618 117.7 14.9678 117.831 15.9732H121.092C120.918 13.7657 119.222 12.3887 116.069 12.3887C113.439 12.3887 111.264 13.6127 111.264 15.9732C111.264 18.5961 113.33 19.1206 115.265 19.4485C116.743 19.7108 118.091 19.8201 118.091 20.8255C118.091 21.5468 117.417 21.9402 116.352 21.9402C115.178 21.9402 114.439 21.3938 114.308 20.2791H110.96C111.069 22.7489 113.112 24.257 116.374 24.257Z" fill="#031521"/>
<path d="M126.254 24.2355C127.798 24.2355 128.777 23.6235 129.581 22.5306H129.646V23.9076H133.038V12.7168H129.494V18.9679C129.494 20.3012 128.755 21.2192 127.537 21.2192C126.407 21.2192 125.863 20.5416 125.863 19.3176V12.7168H122.341V20.0608C122.341 22.5525 123.689 24.2355 126.254 24.2355Z" fill="#031521"/>
<path d="M134.58 23.9073H138.124V17.6344C138.124 16.3011 138.776 15.3612 139.885 15.3612C140.951 15.3612 141.451 16.0607 141.451 17.2628V23.9073H144.995V17.6344C144.995 16.3011 145.625 15.3612 146.756 15.3612C147.821 15.3612 148.321 16.0607 148.321 17.2628V23.9073H151.865V16.6289C151.865 14.1154 150.604 12.3887 148.082 12.3887C146.647 12.3887 145.451 13.0007 144.582 14.3558H144.538C143.973 13.1537 142.864 12.3887 141.407 12.3887C139.798 12.3887 138.733 13.1537 138.037 14.3121H137.972V12.7165H134.58V23.9073Z" fill="#031521"/>
<path fill-rule="evenodd" clip-rule="evenodd" d="M18.4426 36.0273C28.3316 36.0273 36.3481 27.9685 36.3481 18.0273C36.3481 8.08623 28.3316 0.0273438 18.4426 0.0273438C8.55366 0.0273438 0.537109 8.08623 0.537109 18.0273C0.537109 27.9685 8.55366 36.0273 18.4426 36.0273ZM24.0285 8.41251C24.3004 7.44159 23.3631 6.86747 22.5072 7.48052L10.558 16.038C9.62971 16.7028 9.77573 18.0273 10.7774 18.0273H13.9239V18.0028H20.0564L15.0596 19.7752L12.8567 27.6422C12.5848 28.6131 13.522 29.1872 14.3781 28.5742L26.3272 20.0168C27.2555 19.3519 27.1094 18.0273 26.1079 18.0273H21.3362L24.0285 8.41251Z" fill="#C42221"/>
</svg>
