<svg width="110" height="111" viewBox="0 0 110 111" fill="none" xmlns="http://www.w3.org/2000/svg">
<path d="M57.8143 10.5975C57.1132 10.5495 56.5899 10.3131 56.2444 9.88822C55.9077 9.46395 55.7641 8.88796 55.8137 8.16024L56.1546 3.15491C56.2042 2.42718 56.4245 1.87609 56.8155 1.50163C57.2155 1.12777 57.766 0.964836 58.4671 1.01282C59.1682 1.06079 59.6871 1.29691 60.0238 1.72118C60.3693 2.14605 60.5173 2.72234 60.4677 3.45007L60.4006 4.43516L59.0162 4.34042L59.0896 3.26214C59.1289 2.68529 58.9045 2.38016 58.4164 2.34675C57.9283 2.31335 57.6646 2.58508 57.6253 3.16193L57.2708 8.36694C57.2321 8.93492 57.4568 9.23561 57.9449 9.26902C58.433 9.30242 58.6964 9.03513 58.7351 8.46715L58.8321 7.04276L60.2166 7.1375L60.1268 8.4554C60.0773 9.18312 59.8525 9.73391 59.4526 10.1078C59.0615 10.4822 58.5154 10.6455 57.8143 10.5975Z" fill="#031521"/>
<path d="M63.972 11.3977C63.2668 11.2502 62.7688 10.937 62.4782 10.4582C62.1876 9.97934 62.1187 9.37424 62.2717 8.64286L63.277 3.83669C63.43 3.10532 63.7356 2.57853 64.1938 2.25632C64.6519 1.93412 65.2337 1.84677 65.9389 1.99428C66.6442 2.1418 67.1422 2.45497 67.4328 2.93379C67.7234 3.41261 67.7922 4.01771 67.6393 4.74909L66.634 9.55526C66.481 10.2866 66.1754 10.8134 65.7172 11.1356C65.259 11.4578 64.6773 11.5452 63.972 11.3977ZM64.2452 10.0916C64.7415 10.1954 65.0525 9.94696 65.1782 9.34619L66.2217 4.35718C66.3474 3.7564 66.1621 3.40412 65.6658 3.30031C65.1694 3.1965 64.8585 3.44499 64.7328 4.04576L63.6893 9.03477C63.5636 9.63555 63.7489 9.98783 64.2452 10.0916Z" fill="#031521"/>
<path d="M71.4492 3.48438L73.1771 4.12084L72.5843 9.86039L72.6094 9.86962L74.5419 4.62355L75.7689 5.07553L72.5404 13.8398L71.1255 13.3187L71.8296 6.31194L71.8046 6.30272L69.4477 12.7007L68.2207 12.2487L71.4492 3.48438Z" fill="#031521"/>
<path d="M79.2626 8.17493L77.9059 7.45803L78.5293 6.27832L82.5404 8.39786L81.917 9.57757L80.5603 8.86066L76.8198 15.9389L75.5221 15.2532L79.2626 8.17493Z" fill="#031521"/>
<path d="M85.4678 10.2584L87.0926 11.4041L82.9531 19.9138L81.7536 19.068L82.6043 17.3985L82.5889 17.4203L81.2258 16.4592L79.9543 17.7993L78.842 17.015L85.4678 10.2584ZM83.1777 16.2844L85.3039 12.1347L85.2821 12.1193L82.0981 15.5232L83.1777 16.2844Z" fill="#031521"/>
<path d="M85.7476 22.5236C85.2343 22.0436 84.9779 21.5299 84.9784 20.9823C84.9854 20.4409 85.238 19.9037 85.7362 19.371L89.1629 15.7065C89.6611 15.1738 90.1801 14.8858 90.7199 14.8425C91.2662 14.8053 91.796 15.0267 92.3093 15.5066C92.8226 15.9866 93.0758 16.4973 93.0687 17.0388C93.0682 17.5863 92.8189 18.1265 92.3207 18.6593L91.6463 19.3804L90.6327 18.4327L91.3709 17.6433C91.7658 17.2209 91.7846 16.8427 91.4272 16.5085C91.0699 16.1744 90.6937 16.2185 90.2988 16.6408L86.7354 20.4514C86.3466 20.8672 86.3308 21.2422 86.6882 21.5764C87.0455 21.9105 87.4186 21.8697 87.8075 21.4539L88.7826 20.4111L89.7962 21.3588L88.894 22.3237C88.3958 22.8564 87.8735 23.1414 87.3272 23.1786C86.7874 23.2219 86.2609 23.0036 85.7476 22.5236Z" fill="#031521"/>
<path d="M95.6797 21.1127L94.7066 19.9262L95.7383 19.0801L98.6153 22.5878L97.5836 23.4339L96.6105 22.2475L90.4203 27.3244L89.4895 26.1896L95.6797 21.1127Z" fill="#031521"/>
<path d="M94.9788 34.4286C94.6471 33.799 94.5712 33.2257 94.7511 32.7085C94.9389 32.1872 95.3673 31.7504 96.0362 31.3979L102.34 28.0762L103.024 29.3746L96.6261 32.7461C96.3428 32.8954 96.1672 33.0583 96.0993 33.2348C96.0356 33.4192 96.0597 33.6176 96.1717 33.8301C96.2837 34.0426 96.4317 34.1707 96.6156 34.2146C96.8037 34.2663 97.0395 34.2175 97.3228 34.0682L103.721 30.6967L104.38 31.9479L98.0766 35.2697C97.4077 35.6221 96.8051 35.7285 96.2689 35.5887C95.7406 35.4448 95.3106 35.0581 94.9788 34.4286Z" fill="#031521"/>
<path d="M97.5246 40.0593C97.2823 39.3902 97.2873 38.816 97.5396 38.3368C97.8002 37.8546 98.286 37.4849 98.997 37.2275L99.4988 37.0458L99.9712 38.3506L99.369 38.5686C98.8002 38.7745 98.6021 39.1158 98.7747 39.5926C98.8594 39.8268 98.9899 39.9782 99.1662 40.0469C99.3538 40.1209 99.6023 40.1018 99.9118 39.9898C100.28 39.8566 100.572 39.6564 100.787 39.3892C101.011 39.1189 101.238 38.6869 101.467 38.0929C101.763 37.3425 102.071 36.7817 102.391 36.4105C102.719 36.0363 103.138 35.7569 103.648 35.5722C104.342 35.3209 104.941 35.3027 105.445 35.5178C105.957 35.7298 106.334 36.1704 106.576 36.8395C106.815 37.5003 106.803 38.0676 106.54 38.5414C106.287 39.0206 105.806 39.3889 105.095 39.6462L104.731 39.7779L104.259 38.4731L104.71 38.3096C105.011 38.2006 105.208 38.0633 105.299 37.8978C105.399 37.7292 105.408 37.532 105.326 37.3062C105.16 36.8462 104.796 36.7176 104.236 36.9205C103.918 37.0355 103.651 37.2266 103.436 37.4938C103.223 37.7694 103.002 38.2042 102.773 38.7981C102.48 39.5569 102.168 40.1192 101.837 40.4851C101.505 40.8509 101.064 41.1337 100.512 41.3335C99.7924 41.5939 99.1753 41.6139 98.6603 41.3936C98.1484 41.1815 97.7698 40.7368 97.5246 40.0593Z" fill="#031521"/>
<path d="M104.736 46.4466L106.413 47.6392L106.565 45.5563L107.74 45.7685L107.107 47.7842L109.157 47.2266L109.324 48.4158L107.2 48.4449L108.364 50.2081L107.292 50.7359L106.572 48.7755L105.289 50.3841L104.455 49.5311L106.096 48.2631L104.169 47.4963L104.736 46.4466Z" fill="#031521"/>
<path d="M100.267 58.7047C100.315 58.0037 100.552 57.4805 100.977 57.1353C101.401 56.7989 101.977 56.6558 102.705 56.7059L107.71 57.0504C108.438 57.1005 108.989 57.3212 109.363 57.7125C109.737 58.1127 109.9 58.6634 109.852 59.3645C109.803 60.0655 109.567 60.5842 109.143 60.9206C108.718 61.2658 108.141 61.4134 107.413 61.3633L106.428 61.2955L106.524 59.9111L107.602 59.9853C108.179 60.025 108.484 59.8008 108.518 59.3128C108.551 58.8247 108.28 58.5608 107.703 58.5211L102.498 58.1628C101.93 58.1237 101.629 58.3482 101.596 58.8363C101.562 59.3244 101.829 59.588 102.397 59.6271L103.821 59.7251L103.726 61.1095L102.408 61.0188C101.681 60.9687 101.13 60.7435 100.756 60.3433C100.382 59.952 100.219 59.4058 100.267 58.7047Z" fill="#031521"/>
<path d="M99.4643 64.8628C99.6122 64.1577 99.9256 63.6599 100.405 63.3696C100.884 63.0792 101.489 63.0107 102.22 63.1641L107.026 64.1722C107.757 64.3256 108.284 64.6315 108.606 65.0898C108.928 65.5482 109.015 66.1299 108.867 66.8351C108.719 67.5403 108.405 68.038 107.926 68.3284C107.447 68.6187 106.842 68.6872 106.111 68.5338L101.305 67.5257C100.574 67.3723 100.047 67.0665 99.7253 66.6081C99.4033 66.1498 99.3163 65.568 99.4643 64.8628ZM100.77 65.1368C100.666 65.633 100.914 65.9441 101.515 66.0701L106.504 67.1165C107.104 67.2425 107.457 67.0574 107.561 66.5612C107.665 66.0649 107.417 65.7538 106.816 65.6278L101.827 64.5814C101.227 64.4554 100.874 64.6405 100.77 65.1368Z" fill="#031521"/>
<path d="M107.371 72.3447L106.734 74.0722L100.994 73.4762L100.985 73.5012L106.23 75.4366L105.777 76.6634L97.0147 73.43L97.5367 72.0155L104.543 72.7235L104.552 72.6985L98.1557 70.3381L98.6084 69.1113L107.371 72.3447Z" fill="#031521"/>
<path d="M102.677 80.155L103.395 78.7988L104.574 79.4229L102.452 83.4326L101.273 82.8086L101.991 81.4523L94.9144 77.708L95.6008 76.4107L102.677 80.155Z" fill="#031521"/>
<path d="M100.591 86.3588L99.4448 87.983L90.9372 83.8388L91.7837 82.6398L93.4528 83.4914L93.431 83.4761L94.3929 82.1135L93.0535 80.8413L93.8384 79.7294L100.591 86.3588ZM94.5666 84.0654L98.7152 86.1939L98.7306 86.1721L95.3284 82.9863L94.5666 84.0654Z" fill="#031521"/>
<path d="M88.3237 86.6316C88.804 86.1186 89.3179 85.8625 89.8655 85.8633C90.4069 85.8707 90.9439 86.1236 91.4764 86.6221L95.139 90.0507C95.6715 90.5492 95.9593 91.0684 96.0022 91.6082C96.0391 92.1545 95.8174 92.6841 95.3372 93.1971C94.8569 93.7101 94.346 93.963 93.8046 93.9557C93.257 93.9548 92.717 93.7052 92.1845 93.2067L91.4636 92.5319L92.412 91.5189L93.201 92.2575C93.6231 92.6526 94.0014 92.6716 94.3357 92.3145C94.6701 91.9573 94.6262 91.5812 94.2041 91.186L90.3954 87.6206C89.9798 87.2315 89.6048 87.2156 89.2704 87.5727C88.9361 87.9299 88.9767 88.303 89.3923 88.6921L90.4346 89.6678L89.4862 90.6808L88.5219 89.778C87.9894 89.2795 87.7047 88.7571 87.6678 88.2108C87.6248 87.671 87.8434 87.1446 88.3237 86.6316Z" fill="#031521"/>
<path d="M89.7311 96.5653L90.9181 95.5929L91.7637 96.625L88.2543 99.5L87.4087 98.4678L88.5957 97.4954L83.5221 91.3025L84.6575 90.3724L89.7311 96.5653Z" fill="#031521"/>
<path d="M76.4133 95.8573C77.0431 95.5259 77.6165 95.4503 78.1335 95.6305C78.6547 95.8186 79.0914 96.2473 79.4435 96.9164L82.7617 103.222L81.4628 103.905L78.0949 97.5054C77.9458 97.222 77.783 97.0464 77.6065 96.9784C77.4221 96.9146 77.2237 96.9386 77.0111 97.0504C76.7986 97.1623 76.6703 97.3102 76.6264 97.4941C76.5746 97.6822 76.6233 97.918 76.7724 98.2013L80.1403 104.601L78.8887 105.26L75.5705 98.9545C75.2183 98.2854 75.1123 97.6828 75.2524 97.1467C75.3966 96.6185 75.7836 96.1886 76.4133 95.8573Z" fill="#031521"/>
<path d="M70.7822 98.3997C71.4515 98.1579 72.0256 98.1632 72.5047 98.4157C72.9867 98.6766 73.3563 99.1626 73.6132 99.8737L73.7946 100.376L72.4895 100.847L72.2718 100.245C72.0663 99.676 71.7251 99.4777 71.2482 99.65C71.0139 99.7347 70.8624 99.8651 70.7937 100.041C70.7196 100.229 70.7385 100.477 70.8503 100.787C70.9833 101.155 71.1834 101.447 71.4505 101.662C71.7206 101.886 72.1526 102.113 72.7464 102.343C73.4967 102.64 74.0573 102.948 74.4283 103.268C74.8023 103.596 75.0815 104.015 75.2659 104.526C75.5169 105.22 75.5347 105.819 75.3193 106.322C75.107 106.834 74.6662 107.211 73.9969 107.453C73.336 107.692 72.7687 107.679 72.295 107.415C71.816 107.163 71.4479 106.681 71.191 105.97L71.0595 105.606L72.3646 105.134L72.5278 105.586C72.6367 105.887 72.7738 106.084 72.9393 106.175C73.1078 106.275 73.305 106.284 73.5309 106.203C73.9911 106.036 74.1198 105.673 73.9173 105.112C73.8024 104.795 73.6114 104.528 73.3444 104.312C73.0689 104.1 72.6343 103.878 72.0404 103.648C71.2818 103.355 70.7196 103.043 70.354 102.711C69.9883 102.38 69.7057 101.938 69.5062 101.386C69.2462 100.667 69.2266 100.05 69.4472 99.5347C69.6595 99.0229 70.1045 98.6446 70.7822 98.3997Z" fill="#031521"/>
<path d="M64.3907 105.607L63.1971 107.283L65.2799 107.437L65.0671 108.612L63.0517 107.977L63.6081 110.028L62.4188 110.195L62.3909 108.07L60.627 109.233L60.0998 108.161L62.0606 107.442L60.4528 106.158L61.3062 105.325L62.5734 106.966L63.3412 105.04L64.3907 105.607Z" fill="#031521"/>
<path d="M52.1338 101.132C52.8348 101.18 53.3578 101.417 53.7028 101.843C54.039 102.267 54.1818 102.843 54.1313 103.571L53.7839 108.576C53.7334 109.303 53.5124 109.854 53.1208 110.228C52.7204 110.602 52.1696 110.764 51.4686 110.716C50.7675 110.667 50.2489 110.43 49.9128 110.006C49.5678 109.581 49.4206 109.004 49.4711 108.276L49.5394 107.291L50.9238 107.388L50.849 108.466C50.8089 109.043 51.033 109.348 51.521 109.382C52.0091 109.416 52.2732 109.144 52.3132 108.567L52.6744 103.363C52.7138 102.795 52.4895 102.494 52.0014 102.46C51.5134 102.426 51.2496 102.693 51.2102 103.261L51.1113 104.685L49.727 104.589L49.8184 103.272C49.8689 102.544 50.0944 101.993 50.4948 101.62C50.8864 101.246 51.4327 101.083 52.1338 101.132Z" fill="#031521"/>
<path d="M45.9768 100.324C46.6819 100.472 47.1795 100.786 47.4696 101.265C47.7597 101.744 47.8278 102.349 47.674 103.081L46.6631 107.886C46.5093 108.617 46.2031 109.143 45.7446 109.465C45.286 109.787 44.7042 109.873 43.9991 109.725C43.294 109.577 42.7964 109.263 42.5063 108.784C42.2163 108.304 42.1481 107.699 42.3019 106.968L43.3128 102.163C43.4666 101.432 43.7728 100.905 44.2314 100.584C44.6899 100.262 45.2717 100.175 45.9768 100.324ZM45.7021 101.629C45.206 101.525 44.8947 101.773 44.7683 102.374L43.719 107.362C43.5927 107.962 43.7776 108.315 44.2738 108.419C44.77 108.524 45.0812 108.275 45.2076 107.675L46.2569 102.687C46.3832 102.086 46.1983 101.734 45.7021 101.629Z" fill="#031521"/>
<path d="M38.4902 108.229L36.7631 107.591L37.3624 101.852L37.3373 101.843L35.3989 107.087L34.1724 106.633L37.4108 97.8728L38.8251 98.3956L38.1131 105.401L38.1381 105.411L40.5021 99.0155L41.7287 99.4688L38.4902 108.229Z" fill="#031521"/>
<path d="M30.681 103.53L32.0369 104.249L31.4121 105.428L27.4034 103.304L28.0282 102.125L29.384 102.843L33.1325 95.7691L34.4295 96.4563L30.681 103.53Z" fill="#031521"/>
<path d="M24.4805 101.438L22.857 100.291L27.0061 91.7859L28.2046 92.633L27.352 94.3016L27.3674 94.2798L28.7294 95.2425L30.0025 93.9038L31.1139 94.6893L24.4805 101.438ZM26.7774 95.415L24.6465 99.5623L24.6683 99.5777L27.8561 96.1775L26.7774 95.415Z" fill="#031521"/>
<path d="M24.2131 89.1734C24.7259 89.6539 24.9817 90.168 24.9805 90.7155C24.9729 91.257 24.7197 91.7938 24.2209 92.326L20.7901 95.9866C20.2913 96.5188 19.772 96.8063 19.2321 96.8489C18.6858 96.8855 18.1563 96.6636 17.6435 96.183C17.1307 95.7025 16.8782 95.1915 16.8858 94.65C16.8869 94.1025 17.1369 93.5626 17.6357 93.0304L18.3109 92.3099L19.3234 93.2589L18.5844 94.0474C18.189 94.4693 18.1698 94.8475 18.5267 95.1821C18.8837 95.5166 19.2599 95.473 19.6553 95.0511L23.223 91.2445C23.6123 90.8291 23.6284 90.4541 23.2715 90.1196C22.9145 89.785 22.5413 89.8254 22.152 90.2408L21.1757 91.2825L20.1632 90.3336L21.0665 89.3698C21.5653 88.8376 22.0879 88.5532 22.6342 88.5166C23.1741 88.4739 23.7004 88.6929 24.2131 89.1734Z" fill="#031521"/>
<path d="M14.2796 90.5739L15.2514 91.7615L14.2188 92.6064L11.3457 89.0955L12.3784 88.2505L13.3501 89.438L19.546 84.3681L20.4755 85.504L14.2796 90.5739Z" fill="#031521"/>
<path d="M14.9952 77.2585C15.3262 77.8884 15.4015 78.4619 15.2209 78.9788C15.0325 79.4999 14.6036 79.9363 13.9343 80.288L7.62695 83.6025L6.94416 82.3033L13.346 78.9391C13.6295 78.7901 13.8053 78.6274 13.8733 78.451C13.9372 78.2667 13.9133 78.0682 13.8016 77.8556C13.6899 77.643 13.5421 77.5147 13.3581 77.4706C13.1701 77.4187 12.9343 77.4673 12.6508 77.6162L6.24896 80.9804L5.591 79.7285L11.8984 76.4139C12.5677 76.0622 13.1704 75.9565 13.7064 76.0969C14.2345 76.2414 14.6641 76.6286 14.9952 77.2585Z" fill="#031521"/>
<path d="M12.4561 71.6249C12.6975 72.2943 12.6919 72.8685 12.4391 73.3474C12.1779 73.8293 11.6917 74.1985 10.9804 74.455L10.4784 74.6361L10.0075 73.3308L10.61 73.1135C11.179 72.9083 11.3775 72.5672 11.2054 72.0902C11.1209 71.8559 10.9906 71.7043 10.8144 71.6355C10.6269 71.5613 10.3783 71.58 10.0687 71.6917C9.70055 71.8245 9.40858 72.0244 9.19281 72.2913C8.96867 72.5613 8.74146 72.9932 8.51116 73.5869C8.21435 74.3369 7.90586 74.8974 7.58571 75.2682C7.25718 75.642 6.8377 75.921 6.32727 76.1051C5.63275 76.3556 5.03383 76.3731 4.53051 76.1575C4.01882 75.9449 3.64224 75.5039 3.40077 74.8345C3.16232 74.1734 3.17519 73.6061 3.43937 73.1326C3.69216 72.6537 4.17419 72.286 4.88545 72.0294L5.24945 71.8981L5.72031 73.2035L5.26845 73.3664C4.96721 73.4751 4.77078 73.6122 4.67915 73.7776C4.57916 73.946 4.56991 74.1432 4.65141 74.3692C4.81742 74.8294 5.18074 74.9584 5.74138 74.7561C6.05935 74.6414 6.32623 74.4506 6.54199 74.1837C6.75474 73.9083 6.97627 73.4738 7.20656 72.8801C7.50036 72.1217 7.81303 71.5597 8.14457 71.1943C8.47611 70.8288 8.91802 70.5465 9.47029 70.3473C10.1899 70.0877 10.8071 70.0684 11.3218 70.2894C11.8335 70.502 12.2116 70.9471 12.4561 71.6249Z" fill="#031521"/>
<path d="M5.25178 65.229L3.57641 64.0345L3.42209 66.1171L2.2472 65.9037L2.88248 63.8887L0.831265 64.444L0.665505 63.2546L2.79039 63.2279L1.62836 61.4634L2.70011 60.9368L3.41802 62.8979L4.70292 61.2909L5.53595 62.1447L3.89368 63.4109L5.81959 64.1799L5.25178 65.229Z" fill="#031521"/>
<path d="M9.73458 52.9762C9.68553 53.6772 9.4483 54.2001 9.0229 54.5448C8.59813 54.8807 8.02191 55.0232 7.29426 54.9723L2.28944 54.6221C1.56179 54.5712 1.01103 54.3499 0.637166 53.9581C0.263922 53.5575 0.101826 53.0067 0.150876 52.3056C0.199926 51.6046 0.43684 51.0862 0.861618 50.7503C1.28702 50.4056 1.86354 50.2586 2.59119 50.3095L3.57618 50.3785L3.47932 51.7627L2.40116 51.6873C1.82436 51.6469 1.51889 51.8708 1.48474 52.3588C1.45059 52.8469 1.72191 53.1111 2.29871 53.1514L7.50319 53.5156C8.07112 53.5553 8.37215 53.3312 8.4063 52.8431C8.44045 52.3551 8.17356 52.0912 7.60564 52.0514L6.1814 51.9518L6.27825 50.5675L7.59601 50.6597C8.32366 50.7106 8.87411 50.9364 9.24736 51.337C9.62122 51.7288 9.78363 52.2752 9.73458 52.9762Z" fill="#031521"/>
<path d="M10.5457 46.8175C10.397 47.5224 10.083 48.0198 9.60364 48.3096C9.1243 48.5994 8.51907 48.6672 7.78794 48.513L2.98338 47.4994C2.25225 47.3452 1.72598 47.0387 1.40455 46.58C1.08313 46.1212 0.996787 45.5394 1.14552 44.8344C1.29426 44.1294 1.60829 43.632 2.08763 43.3422C2.56697 43.0524 3.1722 42.9846 3.90333 43.1389L8.70789 44.1524C9.43902 44.3067 9.96529 44.6131 10.2867 45.0719C10.6081 45.5306 10.6945 46.1125 10.5457 46.8175ZM9.24016 46.542C9.34482 46.0459 9.09687 45.7345 8.4963 45.6078L3.50896 44.5557C2.90839 44.429 2.55577 44.6137 2.45111 45.1098C2.34644 45.6059 2.5944 45.9173 3.19497 46.044L8.18231 47.0961C8.78288 47.2228 9.13549 47.0381 9.24016 46.542Z" fill="#031521"/>
<path d="M2.64453 39.3291L3.28394 37.6024L9.02264 38.2049L9.0319 38.1798L3.78899 36.2385L4.24307 35.0123L13.0021 38.2556L12.4785 39.6695L5.47282 38.9535L5.46355 38.9786L11.8577 41.3462L11.4036 42.5724L2.64453 39.3291Z" fill="#031521"/>
<path d="M7.34907 31.5219L6.62985 32.8774L5.45117 32.252L7.57758 28.2446L8.75626 28.87L8.03703 30.2254L15.1091 33.9778L14.4211 35.2743L7.34907 31.5219Z" fill="#031521"/>
<path d="M9.4412 25.3209L10.5897 23.698L19.0926 27.8518L18.2447 29.0499L16.5766 28.1963L16.5984 28.2117L15.6349 29.5732L16.9729 30.847L16.1867 31.9579L9.4412 25.3209ZM15.4635 27.6211L11.3173 25.4879L11.3018 25.5097L14.7004 28.6994L15.4635 27.6211Z" fill="#031521"/>
<path d="M21.7078 25.0625C21.227 25.575 20.7127 25.8305 20.1652 25.829C19.6237 25.8211 19.087 25.5676 18.5551 25.0685L14.8963 21.6357C14.3644 21.1366 14.0772 20.6172 14.0349 20.0773C13.9986 19.531 14.2209 19.0016 14.7017 18.4891C15.1826 17.9766 15.6937 17.7244 16.2352 17.7323C16.7827 17.7337 17.3225 17.984 17.8544 18.4831L18.5745 19.1587L17.625 20.1706L16.8368 19.4311C16.4151 19.0355 16.0369 19.0161 15.7022 19.3729C15.3674 19.7297 15.4108 20.1059 15.8325 20.5015L19.6372 24.0712C20.0524 24.4607 20.4274 24.4771 20.7621 24.1203C21.0969 23.7635 21.0567 23.3904 20.6415 23.0009L19.6003 22.024L20.5498 21.012L21.5132 21.9159C22.0451 22.4149 22.3292 22.9377 22.3655 23.484C22.4079 24.0239 22.1886 24.55 21.7078 25.0625Z" fill="#031521"/>
<path d="M20.3138 15.1275L19.1257 16.0985L18.2812 15.0654L21.7939 12.1944L22.6383 13.2275L21.4502 14.1986L26.5168 20.3972L25.3804 21.3261L20.3138 15.1275Z" fill="#031521"/>
<path d="M33.631 15.8511C33.0009 16.1818 32.4274 16.2567 31.9106 16.0759C31.3896 15.8872 30.9534 15.4581 30.6021 14.7886L27.291 8.47949L28.5907 7.79746L31.9513 14.2011C32.1001 14.4846 32.2627 14.6605 32.4392 14.7286C32.6234 14.7927 32.8219 14.7689 33.0346 14.6573C33.2473 14.5457 33.3757 14.3979 33.4198 14.214C33.4718 14.026 33.4234 13.7902 33.2746 13.5066L29.914 7.10303L31.1664 6.4458L34.4774 12.7549C34.8288 13.4244 34.9341 14.0271 34.7934 14.563C34.6486 15.0911 34.2612 15.5205 33.631 15.8511Z" fill="#031521"/>
<path d="M39.2631 13.3153C38.5935 13.5564 38.0194 13.5504 37.5406 13.2973C37.0588 13.0359 36.6899 12.5495 36.4337 11.8381L36.2529 11.3359L37.5585 10.8658L37.7755 11.4684C37.9804 12.0375 38.3214 12.2362 38.7985 12.0644C39.0328 11.98 39.1845 11.8498 39.2534 11.6737C39.3278 11.4862 39.3092 11.2376 39.1977 10.928C39.0651 10.5597 38.8653 10.2677 38.5985 10.0517C38.3286 9.82746 37.8969 9.60001 37.3033 9.36938C36.5534 9.07215 35.9931 8.76335 35.6225 8.443C35.2488 8.11427 34.9701 7.69464 34.7863 7.18412C34.5361 6.48947 34.519 5.89056 34.7349 5.38737C34.9478 4.87582 35.389 4.4995 36.0586 4.25842C36.7198 4.02035 37.2871 4.03354 37.7605 4.29798C38.2393 4.55104 38.6067 5.03327 38.8629 5.74465L38.994 6.10871L37.6883 6.57882L37.5256 6.12688C37.4171 5.82559 37.2802 5.62909 37.1148 5.53737C36.9464 5.43728 36.7492 5.42792 36.5232 5.50929C36.0629 5.67503 35.9337 6.03827 36.1356 6.59901C36.2501 6.91704 36.4408 7.18401 36.7076 7.39993C36.9828 7.61283 37.4172 7.83459 38.0108 8.06521C38.7691 8.35943 39.3309 8.67242 39.6962 9.00416C40.0615 9.3359 40.3436 9.77795 40.5425 10.3303C40.8016 11.0501 40.8206 11.6672 40.5993 12.1818C40.3864 12.6934 39.941 13.0712 39.2631 13.3153Z" fill="#031521"/>
<path d="M45.6633 6.11367L46.8588 4.43902L44.7761 4.28354L44.9902 3.1088L47.0049 3.74519L46.4508 1.69372L47.6403 1.52863L47.6658 3.65348L49.431 2.49247L49.957 3.56448L47.9954 4.28127L49.6018 5.56705L48.7474 6.39957L47.4821 4.75663L46.7121 6.68206L45.6633 6.11367Z" fill="#031521"/>
</svg>
