<svg width="1920" height="729" viewBox="0 0 1920 729" fill="none" xmlns="http://www.w3.org/2000/svg">
<g clip-path="url(#clip0_1242_38)">
<circle cx="33.4433" cy="133.442" r="54.598" transform="rotate(89.7525 33.4433 133.442)" stroke="url(#paint0_linear_1242_38)"/>
<circle cx="33.4428" cy="133.443" r="90.3372" transform="rotate(89.7525 33.4428 133.443)" stroke="url(#paint1_linear_1242_38)"/>
<circle cx="33.4443" cy="133.442" r="126.076" transform="rotate(89.7525 33.4443 133.442)" stroke="url(#paint2_linear_1242_38)"/>
<circle cx="33.4437" cy="133.442" r="161.816" transform="rotate(89.7525 33.4437 133.442)" stroke="url(#paint3_linear_1242_38)"/>
<circle cx="33.4432" cy="133.443" r="197.555" transform="rotate(89.7525 33.4432 133.443)" stroke="url(#paint4_linear_1242_38)"/>
<circle cx="33.4427" cy="133.443" r="233.294" transform="rotate(89.7525 33.4427 133.443)" stroke="url(#paint5_linear_1242_38)"/>
<circle cx="1886.79" cy="595.794" r="54.598" transform="rotate(180 1886.79 595.794)" stroke="url(#paint6_linear_1242_38)"/>
<circle cx="1886.79" cy="595.794" r="90.3372" transform="rotate(180 1886.79 595.794)" stroke="url(#paint7_linear_1242_38)"/>
<circle cx="1886.79" cy="595.794" r="126.076" transform="rotate(180 1886.79 595.794)" stroke="url(#paint8_linear_1242_38)"/>
<circle cx="1886.79" cy="595.794" r="161.816" transform="rotate(180 1886.79 595.794)" stroke="url(#paint9_linear_1242_38)"/>
<circle cx="1886.79" cy="595.794" r="197.555" transform="rotate(180 1886.79 595.794)" stroke="url(#paint10_linear_1242_38)"/>
<circle cx="1886.79" cy="595.794" r="233.294" transform="rotate(180 1886.79 595.794)" stroke="url(#paint11_linear_1242_38)"/>
</g>
<defs>
<linearGradient id="paint0_linear_1242_38" x1="33.5717" y1="188.54" x2="33.5717" y2="78.344" gradientUnits="userSpaceOnUse">
<stop stop-color="white" stop-opacity="0"/>
<stop offset="1" stop-color="white" stop-opacity="0.2"/>
</linearGradient>
<linearGradient id="paint1_linear_1242_38" x1="33.6546" y1="224.28" x2="33.6546" y2="42.6055" gradientUnits="userSpaceOnUse">
<stop stop-color="white" stop-opacity="0"/>
<stop offset="1" stop-color="white" stop-opacity="0.2"/>
</linearGradient>
<linearGradient id="paint2_linear_1242_38" x1="33.7393" y1="260.019" x2="33.7393" y2="6.86597" gradientUnits="userSpaceOnUse">
<stop stop-color="white" stop-opacity="0"/>
<stop offset="1" stop-color="white" stop-opacity="0.2"/>
</linearGradient>
<linearGradient id="paint3_linear_1242_38" x1="195.759" y1="133.442" x2="-128.872" y2="133.442" gradientUnits="userSpaceOnUse">
<stop stop-color="white" stop-opacity="0"/>
<stop offset="1" stop-color="white" stop-opacity="0.2"/>
</linearGradient>
<linearGradient id="paint4_linear_1242_38" x1="231.498" y1="133.443" x2="-164.612" y2="133.443" gradientUnits="userSpaceOnUse">
<stop stop-color="white" stop-opacity="0"/>
<stop offset="1" stop-color="white" stop-opacity="0.2"/>
</linearGradient>
<linearGradient id="paint5_linear_1242_38" x1="267.237" y1="133.443" x2="-200.351" y2="133.443" gradientUnits="userSpaceOnUse">
<stop stop-color="white" stop-opacity="0"/>
<stop offset="1" stop-color="white" stop-opacity="0.2"/>
</linearGradient>
<linearGradient id="paint6_linear_1242_38" x1="1886.92" y1="650.892" x2="1886.92" y2="540.696" gradientUnits="userSpaceOnUse">
<stop stop-color="white" stop-opacity="0"/>
<stop offset="1" stop-color="white" stop-opacity="0.2"/>
</linearGradient>
<linearGradient id="paint7_linear_1242_38" x1="1887" y1="686.631" x2="1887" y2="504.956" gradientUnits="userSpaceOnUse">
<stop stop-color="white" stop-opacity="0"/>
<stop offset="1" stop-color="white" stop-opacity="0.2"/>
</linearGradient>
<linearGradient id="paint8_linear_1242_38" x1="1887.09" y1="722.37" x2="1887.09" y2="469.217" gradientUnits="userSpaceOnUse">
<stop stop-color="white" stop-opacity="0"/>
<stop offset="1" stop-color="white" stop-opacity="0.2"/>
</linearGradient>
<linearGradient id="paint9_linear_1242_38" x1="2049.11" y1="595.794" x2="1724.48" y2="595.794" gradientUnits="userSpaceOnUse">
<stop stop-color="white" stop-opacity="0"/>
<stop offset="1" stop-color="white" stop-opacity="0.2"/>
</linearGradient>
<linearGradient id="paint10_linear_1242_38" x1="2084.85" y1="595.794" x2="1688.74" y2="595.794" gradientUnits="userSpaceOnUse">
<stop stop-color="white" stop-opacity="0"/>
<stop offset="1" stop-color="white" stop-opacity="0.2"/>
</linearGradient>
<linearGradient id="paint11_linear_1242_38" x1="2120.59" y1="595.794" x2="1653" y2="595.794" gradientUnits="userSpaceOnUse">
<stop stop-color="white" stop-opacity="0"/>
<stop offset="1" stop-color="white" stop-opacity="0.2"/>
</linearGradient>
<clipPath id="clip0_1242_38">
<rect width="1920" height="729" fill="white"/>
</clipPath>
</defs>
</svg>
