<svg width="622" height="623" viewBox="0 0 622 623" fill="none" xmlns="http://www.w3.org/2000/svg">
<g style="mix-blend-mode:luminosity" opacity="0.05" clip-path="url(#clip0_192_1479)">
<path fill-rule="evenodd" clip-rule="evenodd" d="M180.387 529.576C169.607 526.858 159.117 523.096 149.066 518.344L187.063 503.117L213.288 534.55C202.185 533.965 191.166 532.3 180.387 529.577L180.387 529.576ZM404.722 263.48C403.127 264.432 401.22 264.712 399.419 264.257C397.619 263.803 396.072 262.652 395.12 261.058C394.168 259.463 393.889 257.556 394.343 255.755C394.797 253.954 395.948 252.408 397.543 251.456L594.563 133.829C596.158 132.877 598.065 132.597 599.866 133.052C601.667 133.506 603.213 134.657 604.165 136.251C605.117 137.846 605.396 139.753 604.942 141.554C604.488 143.354 603.337 144.901 601.742 145.853L404.722 263.48ZM345.469 199.633L484.95 116.361C486.545 115.409 487.696 113.862 488.15 112.062C488.604 110.261 488.325 108.354 487.373 106.759C486.421 105.165 484.874 104.014 483.074 103.559C481.273 103.105 479.366 103.385 477.771 104.337L338.291 187.615C337.501 188.086 336.813 188.708 336.264 189.446C335.714 190.184 335.316 191.022 335.091 191.914C334.866 192.805 334.819 193.733 334.952 194.642C335.086 195.552 335.397 196.427 335.868 197.216C336.34 198.006 336.962 198.695 337.7 199.244C338.437 199.793 339.276 200.191 340.167 200.416C341.059 200.641 341.986 200.688 342.896 200.555C343.806 200.422 344.68 200.11 345.47 199.639L345.469 199.633ZM432.808 345.932L572.266 262.67C573.86 261.718 575.011 260.171 575.466 258.371C575.92 256.57 575.64 254.663 574.688 253.068C573.736 251.474 572.19 250.323 570.389 249.868C568.589 249.414 566.681 249.694 565.087 250.646L425.631 333.91C424.036 334.862 422.885 336.409 422.431 338.209C421.976 340.01 422.256 341.917 423.208 343.512C424.16 345.106 425.706 346.257 427.507 346.711C429.308 347.166 431.215 346.886 432.81 345.934L432.808 345.932ZM241.605 162.427C240.815 162.899 239.941 163.21 239.031 163.343C238.121 163.477 237.194 163.429 236.302 163.204C235.411 162.979 234.572 162.581 233.834 162.032C233.097 161.483 232.475 160.794 232.003 160.005C231.532 159.215 231.221 158.34 231.087 157.431C230.954 156.521 231.001 155.594 231.226 154.702C231.451 153.811 231.849 152.972 232.398 152.234C232.947 151.497 233.636 150.874 234.426 150.403L360.954 74.863C361.743 74.3916 362.618 74.0803 363.528 73.947C364.437 73.8136 365.365 73.8608 366.256 74.0857C367.148 74.3107 367.986 74.7091 368.724 75.2581C369.462 75.8071 370.084 76.4961 370.555 77.2856C371.027 78.0751 371.338 78.9497 371.471 79.8595C371.605 80.7693 371.557 81.6965 371.332 82.588C371.108 83.4796 370.709 84.3182 370.16 85.0558C369.611 85.7934 368.922 86.4157 368.133 86.8871L241.605 162.427ZM416.28 455.02C414.686 455.972 412.778 456.252 410.978 455.797C409.177 455.343 407.631 454.192 406.679 452.597C405.727 451.003 405.447 449.096 405.902 447.295C406.356 445.494 407.507 443.948 409.101 442.996L535.613 367.466C537.208 366.514 539.115 366.235 540.916 366.689C542.716 367.143 544.263 368.294 545.215 369.889C546.167 371.483 546.446 373.391 545.992 375.191C545.538 376.992 544.387 378.538 542.792 379.49L416.28 455.02ZM195.924 439.378L143.537 376.584L91.8953 380.05L63.13 425.79C76.6179 460.662 101.181 490.141 133.048 509.7L183.258 489.578L195.924 439.378ZM139.574 362.841L90.9599 366.103L56.3905 324.673C65.0404 288.261 85.4988 255.735 114.574 232.171L166.885 245.37L185.008 290.587L139.573 362.845L139.574 362.841ZM197.285 283.626L282.198 305.05L318.164 275.043L314.554 221.212C283.097 200.963 245.875 191.572 208.577 194.472L179.859 240.147L197.285 283.626ZM289.702 317.003L327.136 285.771L379.41 298.961C393.839 333.507 396.423 371.859 386.759 408.028L336.672 428.102L295.424 402.166L289.708 317.003L289.702 317.003ZM285.41 412.384L209.502 442.807L196.837 493.004L231.489 534.538C268.82 532.438 304.428 518.141 332.847 493.843L329.229 439.935L285.411 412.383L285.41 412.384ZM179.638 398.033L153.588 366.812L196.876 297.968L275.747 317.868L281.192 399.008L205.691 429.268L179.631 398.038L179.638 398.033ZM57.486 408.508C51.6977 387.02 50.203 364.601 53.0875 342.535L79.2496 373.894L57.486 408.508ZM129.34 221.445C147.954 209.366 168.742 201.029 190.544 196.898L168.838 231.411L129.34 221.445ZM329.278 231.906C346.519 245.894 360.87 263.107 371.529 282.584L332.009 272.612L329.282 231.907L329.278 231.906ZM381.183 425.324L343.275 440.518L346.015 481.308C361.304 465.139 373.255 446.114 381.183 425.321L381.183 425.324Z" fill="white" fill-opacity="0.3"/>
</g>
<defs>
<clipPath id="clip0_192_1479">
<rect width="512.125" height="512.125" fill="white" transform="translate(496.562 622.246) rotate(-165.839)"/>
</clipPath>
</defs>
</svg>
