<svg width="155" height="51" viewBox="0 0 155 51" fill="none" xmlns="http://www.w3.org/2000/svg">
<circle cx="25" cy="25.0273" r="25" fill="#C42221"/>
<g clip-path="url(#clip0_197_5255)">
<path d="M25 10.0273C16.7158 10.0273 10 16.7432 10 25.0273C10 33.3115 16.7158 40.0273 25 40.0273C33.2842 40.0273 40 33.3115 40 25.0273C39.9907 16.7471 33.2803 10.0366 25 10.0273ZM25.5354 14.3518L30.75 12.2673C31.3418 12.5352 31.9143 12.8438 32.4634 13.1909L32.4771 13.1995C33.0166 13.5413 33.5322 13.9194 34.0205 14.3313L34.0625 14.3679C34.2815 14.5544 34.4944 14.7476 34.7014 14.9468C34.7275 14.9724 34.7549 14.9968 34.781 15.0229C34.998 15.2349 35.2083 15.4534 35.4116 15.6782C35.4285 15.6973 35.4446 15.7173 35.4614 15.7363C35.6399 15.9363 35.8115 16.1433 35.978 16.3538C36.0181 16.4038 36.0581 16.4539 36.0969 16.5039C36.2776 16.7378 36.4524 16.9758 36.6174 17.2214L35.5779 21.6404L30.4634 23.3455L25.5366 19.4033L25.5354 14.3518ZM13.9026 16.5068C13.9414 16.4568 13.981 16.4067 14.021 16.3569C14.1855 16.1482 14.3557 15.9446 14.5315 15.7458C14.5505 15.7249 14.5681 15.7034 14.5869 15.6824C14.7891 15.457 14.9983 15.2388 15.2151 15.0273C15.24 15.0029 15.2649 14.9773 15.291 14.9548C15.4963 14.7568 15.7075 14.5649 15.9246 14.3794L15.9746 14.3374C16.4585 13.9285 16.9692 13.5527 17.5034 13.2124L17.5229 13.2C18.0688 12.8535 18.6377 12.5454 19.2261 12.2773L24.4646 14.3518V19.4019L19.5376 23.3433L14.4231 21.6414L13.3835 17.2224C13.55 16.9773 13.7229 16.7397 13.9026 16.5068ZM13.3 32.7C13.1531 32.4758 13.0125 32.2476 12.8784 32.0149L12.8459 31.9587C12.7126 31.7273 12.5864 31.4919 12.4675 31.2529L12.4634 31.2454C12.2129 30.7424 11.9929 30.2249 11.8049 29.6953V29.6904C11.7161 29.4404 11.635 29.1843 11.5601 28.9268L11.533 28.8318C11.4644 28.5898 11.4021 28.3452 11.3464 28.0979C11.3416 28.0737 11.3354 28.0508 11.3306 28.0269C11.2078 27.4683 11.1196 26.9028 11.0664 26.3333L14.1189 22.6704L19.198 24.3633L20.6721 30.2593L18.25 33.4819L13.3 32.7ZM28.3296 38.6238C28.0796 38.6858 27.823 38.7393 27.5664 38.7874C27.5305 38.7944 27.4939 38.8003 27.458 38.8069C27.2395 38.8459 27.0186 38.8794 26.7971 38.9067C26.738 38.9143 26.6794 38.9224 26.6206 38.9294C26.415 38.9534 26.2075 38.9714 25.9995 38.9863C25.9341 38.9907 25.8694 38.9973 25.804 39.0015C25.5381 39.0178 25.27 39.0273 25 39.0273C24.7527 39.0273 24.5068 39.0208 24.2625 39.0078C24.2329 39.0078 24.2046 39.0029 24.175 39.0007C23.9575 38.9883 23.741 38.9719 23.5249 38.9509L23.5 38.9463C23.0266 38.895 22.5559 38.8198 22.0901 38.7214L19.1326 34.0908L21.5166 30.9119H28.4834L30.9065 34.1118L28.3296 38.6238ZM38.6731 28.0273C38.668 28.0513 38.6621 28.0745 38.657 28.0984C38.6011 28.3455 38.5388 28.5901 38.4705 28.8323L38.4436 28.9272C38.3684 29.1848 38.2876 29.4399 38.1985 29.6909V29.6958C38.0105 30.2253 37.7908 30.7429 37.54 31.2458L37.5359 31.2534C37.4163 31.4927 37.2903 31.728 37.1575 31.9592L37.125 32.0154C36.9917 32.2488 36.8513 32.4766 36.7041 32.6995L31.771 33.4773L29.332 30.2573L30.8054 24.3628L35.8845 22.6699L38.937 26.3328C38.884 26.9026 38.7959 27.4685 38.6731 28.0273Z" fill="white"/>
</g>
<path d="M65.148 15.4273H73.296V18.2273H68.228V23.6873H72.204V26.4873H68.228V35.0273H65.148V15.4273ZM79.225 35.3073C77.713 35.3073 76.5557 34.878 75.753 34.0193C74.9503 33.1607 74.549 31.9473 74.549 30.3793V20.0753C74.549 18.5073 74.9503 17.294 75.753 16.4353C76.5557 15.5767 77.713 15.1473 79.225 15.1473C80.737 15.1473 81.8943 15.5767 82.697 16.4353C83.4997 17.294 83.901 18.5073 83.901 20.0753V30.3793C83.901 31.9473 83.4997 33.1607 82.697 34.0193C81.8943 34.878 80.737 35.3073 79.225 35.3073ZM79.225 32.5073C80.289 32.5073 80.821 31.8633 80.821 30.5753V19.8793C80.821 18.5913 80.289 17.9473 79.225 17.9473C78.161 17.9473 77.629 18.5913 77.629 19.8793V30.5753C77.629 31.8633 78.161 32.5073 79.225 32.5073ZM90.4359 35.3073C88.9239 35.3073 87.7666 34.878 86.9639 34.0193C86.1613 33.1607 85.7599 31.9473 85.7599 30.3793V20.0753C85.7599 18.5073 86.1613 17.294 86.9639 16.4353C87.7666 15.5767 88.9239 15.1473 90.4359 15.1473C91.9479 15.1473 93.1053 15.5767 93.9079 16.4353C94.7106 17.294 95.1119 18.5073 95.1119 20.0753V30.3793C95.1119 31.9473 94.7106 33.1607 93.9079 34.0193C93.1053 34.878 91.9479 35.3073 90.4359 35.3073ZM90.4359 32.5073C91.4999 32.5073 92.0319 31.8633 92.0319 30.5753V19.8793C92.0319 18.5913 91.4999 17.9473 90.4359 17.9473C89.3719 17.9473 88.8399 18.5913 88.8399 19.8793V30.5753C88.8399 31.8633 89.3719 32.5073 90.4359 32.5073ZM99.4935 18.2273H96.2735V15.4273H105.794V18.2273H102.574V35.0273H99.4935V18.2273ZM111.515 35.3073C110.041 35.3073 108.911 34.8873 108.127 34.0473C107.362 33.2073 106.979 32.022 106.979 30.4913V19.9633C106.979 18.4327 107.362 17.2473 108.127 16.4073C108.911 15.5673 110.041 15.1473 111.515 15.1473C112.99 15.1473 114.11 15.5673 114.875 16.4073C115.659 17.2473 116.051 18.4327 116.051 19.9633V22.0353H113.139V19.7673C113.139 18.554 112.626 17.9473 111.599 17.9473C110.573 17.9473 110.059 18.554 110.059 19.7673V30.7153C110.059 31.91 110.573 32.5073 111.599 32.5073C112.626 32.5073 113.139 31.91 113.139 30.7153V27.7193H116.051V30.4913C116.051 32.022 115.659 33.2073 114.875 34.0473C114.11 34.8873 112.99 35.3073 111.515 35.3073ZM117.894 15.4273H120.974V32.2273H126.042V35.0273H117.894V15.4273ZM131.999 35.3073C130.506 35.3073 129.367 34.8873 128.583 34.0473C127.799 33.1887 127.407 31.966 127.407 30.3793V15.4273H130.487V30.6033C130.487 31.2753 130.618 31.7607 130.879 32.0593C131.159 32.358 131.551 32.5073 132.055 32.5073C132.559 32.5073 132.942 32.358 133.203 32.0593C133.483 31.7607 133.623 31.2753 133.623 30.6033V15.4273H136.591V30.3793C136.591 31.966 136.199 33.1887 135.415 34.0473C134.631 34.8873 133.492 35.3073 131.999 35.3073ZM138.785 15.4273H143.433C145.019 15.4273 146.177 15.8007 146.905 16.5473C147.633 17.2753 147.997 18.4047 147.997 19.9353V20.7193C147.997 21.7273 147.829 22.5487 147.493 23.1833C147.175 23.818 146.681 24.2753 146.009 24.5553V24.6113C147.539 25.134 148.305 26.4967 148.305 28.6993V30.3793C148.305 31.8913 147.903 33.0487 147.101 33.8513C146.317 34.6353 145.159 35.0273 143.629 35.0273H138.785V15.4273ZM143.069 23.4073C143.685 23.4073 144.142 23.2487 144.441 22.9313C144.758 22.614 144.917 22.082 144.917 21.3353V20.2433C144.917 19.534 144.786 19.0207 144.525 18.7033C144.282 18.386 143.89 18.2273 143.349 18.2273H141.865V23.4073H143.069ZM143.629 32.2273C144.17 32.2273 144.571 32.0873 144.833 31.8073C145.094 31.5087 145.225 31.0047 145.225 30.2953V28.5873C145.225 27.6913 145.066 27.0753 144.749 26.7393C144.45 26.3847 143.946 26.2073 143.237 26.2073H141.865V32.2273H143.629Z" fill="white"/>
<path d="M150.105 32.0593H153.073V35.0273H150.105V32.0593Z" fill="#C42221"/>
<defs>
<clipPath id="clip0_197_5255">
<rect width="30" height="30" fill="white" transform="translate(10 10.0273)"/>
</clipPath>
</defs>
</svg>
