<svg width="60" height="61" viewBox="0 0 60 61" fill="none" xmlns="http://www.w3.org/2000/svg">
<path d="M30.0007 58.2699C45.3858 58.2699 57.8578 45.7979 57.8578 30.4128C57.8578 15.0277 45.3858 2.55566 30.0007 2.55566C14.6156 2.55566 2.14355 15.0277 2.14355 30.4128C2.14355 45.7979 14.6156 58.2699 30.0007 58.2699Z" stroke="white" stroke-width="2" stroke-linecap="round" stroke-linejoin="round"/>
<path d="M30.0014 41.1268C35.9187 41.1268 40.7157 36.3299 40.7157 30.4125C40.7157 24.4952 35.9187 19.6982 30.0014 19.6982C24.0841 19.6982 19.2871 24.4952 19.2871 30.4125C19.2871 36.3299 24.0841 41.1268 30.0014 41.1268Z" stroke="white" stroke-width="2" stroke-linecap="round" stroke-linejoin="round"/>
<path d="M19.2871 30.4125V4.69824" stroke="white" stroke-width="2" stroke-linecap="round" stroke-linejoin="round"/>
<path d="M30 19.6982H55.7143" stroke="white" stroke-width="2" stroke-linecap="round" stroke-linejoin="round"/>
<path d="M40.7148 30.4126V56.1269" stroke="white" stroke-width="2" stroke-linecap="round" stroke-linejoin="round"/>
<path d="M30.0014 41.1274H4.28711" stroke="white" stroke-width="2" stroke-linecap="round" stroke-linejoin="round"/>
</svg>
