<svg width="60" height="60" viewBox="0 0 60 60" fill="none" xmlns="http://www.w3.org/2000/svg">
<path d="M53.5721 2.14258H6.42927C4.06233 2.14258 2.14355 4.06136 2.14355 6.42829V53.5711C2.14355 55.9381 4.06233 57.8569 6.42927 57.8569H53.5721C55.9391 57.8569 57.8578 55.9381 57.8578 53.5711V6.42829C57.8578 4.06136 55.9391 2.14258 53.5721 2.14258Z" stroke="white" stroke-width="2" stroke-linecap="round" stroke-linejoin="round"/>
<path d="M30 49.2852C38.2843 49.2852 45 42.5694 45 34.2852C45 26.0009 38.2843 19.2852 30 19.2852C21.7157 19.2852 15 26.0009 15 34.2852C15 42.5694 21.7157 49.2852 30 49.2852Z" stroke="white" stroke-width="2" stroke-linecap="round" stroke-linejoin="round"/>
<path d="M2.14355 14.9995H15.0007" stroke="white" stroke-width="2" stroke-linecap="round" stroke-linejoin="round"/>
<path d="M45 15H57.8571" stroke="white" stroke-width="2" stroke-linecap="round" stroke-linejoin="round"/>
<path d="M30 34.1567V49.1567" stroke="white" stroke-width="2" stroke-linecap="round" stroke-linejoin="round"/>
<path d="M17.1436 26.5713L30.0007 34.157" stroke="white" stroke-width="2" stroke-linecap="round" stroke-linejoin="round"/>
<path d="M42.8571 26.5713L30 34.157" stroke="white" stroke-width="2" stroke-linecap="round" stroke-linejoin="round"/>
</svg>
