<svg width="20" height="21" viewBox="0 0 20 21" fill="none" xmlns="http://www.w3.org/2000/svg">
<g clip-path="url(#clip0_197_3909)">
<path d="M4.07569 13.322C6.04834 15.6801 8.42297 17.5367 11.1333 18.8504C12.1652 19.3394 13.5452 19.9196 15.0827 20.0191C15.1781 20.0232 15.2692 20.0273 15.3645 20.0273C16.3965 20.0273 17.2253 19.6709 17.9008 18.9374C17.9049 18.9333 17.9132 18.925 17.9174 18.9167C18.1577 18.6266 18.4313 18.3655 18.7172 18.0878C18.912 17.9014 19.1109 17.7066 19.3015 17.5077C20.1843 16.5876 20.1843 15.419 19.2933 14.528L16.8026 12.0373C16.3799 11.598 15.8743 11.3659 15.3438 11.3659C14.8134 11.3659 14.3036 11.598 13.8685 12.0331L12.3848 13.5168C12.2481 13.438 12.1072 13.3676 11.9746 13.3013C11.8088 13.2184 11.6555 13.1397 11.5187 13.0526C10.1677 12.1948 8.941 11.0758 7.76819 9.63779C7.17557 8.88768 6.77772 8.25776 6.50006 7.61541C6.88961 7.26315 7.25431 6.89431 7.60656 6.53377C7.73089 6.4053 7.85936 6.27683 7.98783 6.14836C8.43541 5.70078 8.67577 5.18275 8.67577 4.65644C8.67577 4.13012 8.43955 3.61209 7.98783 3.16452L6.75286 1.92954C6.60781 1.78449 6.47105 1.64359 6.33014 1.49854C6.05663 1.21673 5.77068 0.926639 5.48887 0.665553C5.06201 0.246987 4.56056 0.0273438 4.0301 0.0273438C3.50379 0.0273438 2.99819 0.246987 2.55476 0.669698L1.00482 2.21964C0.44121 2.78325 0.122105 3.46705 0.055798 4.25859C-0.0229422 5.24906 0.159403 6.30169 0.631844 7.57397C1.35708 9.54247 2.45116 11.3701 4.07569 13.322ZM1.06699 4.34562C1.11672 3.79444 1.32807 3.33443 1.72592 2.93659L3.26757 1.39494C3.50793 1.16286 3.77316 1.04268 4.0301 1.04268C4.2829 1.04268 4.53984 1.16286 4.77606 1.40322C5.05373 1.66017 5.31481 1.92954 5.59662 2.21549C5.73752 2.36054 5.88257 2.50559 6.02762 2.65478L7.26259 3.88976C7.51954 4.1467 7.65215 4.40778 7.65215 4.66472C7.65215 4.92167 7.51954 5.18275 7.26259 5.43969C7.13412 5.56816 7.00565 5.70078 6.87718 5.82925C6.49177 6.21881 6.13122 6.58764 5.73338 6.9399C5.72509 6.94819 5.72094 6.95233 5.71266 6.96062C5.36869 7.30459 5.42256 7.63199 5.50545 7.88064C5.50959 7.89307 5.51373 7.90136 5.51788 7.91379C5.83698 8.68047 6.28041 9.40985 6.9725 10.2801C8.21576 11.8135 9.52534 13.0029 10.9675 13.9188C11.1457 14.0348 11.3364 14.126 11.5146 14.2171C11.6803 14.3 11.8337 14.3788 11.9704 14.4658C11.987 14.4741 11.9994 14.4824 12.016 14.4907C12.1528 14.5611 12.2854 14.5943 12.418 14.5943C12.7495 14.5943 12.965 14.3829 13.0355 14.3125L14.5854 12.7625C14.8258 12.5222 15.0869 12.3937 15.3438 12.3937C15.6588 12.3937 15.9157 12.5885 16.0773 12.7625L18.5763 15.2573C19.0736 15.7547 19.0695 16.2934 18.5639 16.8197C18.3898 17.0062 18.2075 17.1844 18.0127 17.3709C17.7226 17.6527 17.4201 17.9428 17.1466 18.2702C16.67 18.7841 16.1022 19.0244 15.3687 19.0244C15.2982 19.0244 15.2236 19.0203 15.1532 19.0162C13.7939 18.9291 12.5299 18.3987 11.5809 17.9469C9.00317 16.6995 6.74042 14.93 4.86309 12.6838C3.3173 10.823 2.2771 9.09075 1.58916 7.23414C1.1623 6.09448 1.00068 5.17861 1.06699 4.34562Z" fill="white"/>
</g>
<defs>
<clipPath id="clip0_197_3909">
<rect width="20" height="20" fill="white" transform="translate(0 0.0273438)"/>
</clipPath>
</defs>
</svg>
