<svg width="60" height="60" viewBox="0 0 60 60" fill="none" xmlns="http://www.w3.org/2000/svg">
<path d="M53.5723 6.42822L38.958 21.0425" stroke="white" stroke-width="2" stroke-linecap="round" stroke-linejoin="round"/>
<path d="M6.42773 6.42871L21.042 21.043" stroke="white" stroke-width="2" stroke-linecap="round" stroke-linejoin="round"/>
<path d="M6.42773 53.5708L21.042 38.9565" stroke="white" stroke-width="2" stroke-linecap="round" stroke-linejoin="round"/>
<path d="M53.5723 53.5713L38.958 38.957" stroke="white" stroke-width="2" stroke-linecap="round" stroke-linejoin="round"/>
<path d="M30.0007 57.8569C45.3858 57.8569 57.8578 45.3848 57.8578 29.9997C57.8578 14.6146 45.3858 2.14258 30.0007 2.14258C14.6156 2.14258 2.14355 14.6146 2.14355 29.9997C2.14355 45.3848 14.6156 57.8569 30.0007 57.8569Z" stroke="white" stroke-width="2" stroke-linecap="round" stroke-linejoin="round"/>
<path d="M30.0003 42.6426C36.9827 42.6426 42.6431 36.9822 42.6431 29.9998C42.6431 23.0173 36.9827 17.3569 30.0003 17.3569C23.0178 17.3569 17.3574 23.0173 17.3574 29.9998C17.3574 36.9822 23.0178 42.6426 30.0003 42.6426Z" stroke="white" stroke-width="2" stroke-linecap="round" stroke-linejoin="round"/>
</svg>
