<svg width="20" height="21" viewBox="0 0 20 21" fill="none" xmlns="http://www.w3.org/2000/svg">
<path d="M3.05436 9.74026C2.70919 9.74123 2.37134 9.83991 2.07991 10.0249C1.78848 10.2098 1.55537 10.4735 1.40755 10.7855C1.25973 11.0974 1.20325 11.4448 1.24463 11.7875C1.28602 12.1301 1.42358 12.4541 1.6414 12.7219L6.28486 18.4101C6.45042 18.6157 6.66265 18.7788 6.9039 18.8859C7.14516 18.993 7.40849 19.041 7.67201 19.0258C8.23563 18.9956 8.74448 18.6941 9.0689 18.1983L18.7146 2.66403C18.7161 2.66146 18.7178 2.65888 18.7195 2.65634C18.81 2.51738 18.7806 2.24199 18.5938 2.06899C18.5425 2.02149 18.482 1.98499 18.416 1.96174C18.3501 1.9385 18.2801 1.92901 18.2103 1.93385C18.1405 1.93868 18.0725 1.95775 18.0104 1.98988C17.9483 2.02201 17.8934 2.06651 17.8491 2.12065C17.8457 2.1249 17.8421 2.1291 17.8384 2.13322L8.11067 13.1241C8.07365 13.166 8.0287 13.2 7.97841 13.2243C7.92812 13.2486 7.87351 13.2627 7.81774 13.2657C7.76197 13.2687 7.70615 13.2606 7.65354 13.2419C7.60092 13.2232 7.55256 13.1942 7.51125 13.1566L4.28278 10.2186C3.94748 9.91128 3.50923 9.74061 3.05436 9.74026Z" fill="white"/>
</svg>
