<svg width="20" height="21" viewBox="0 0 20 21" fill="none" xmlns="http://www.w3.org/2000/svg">
<g clip-path="url(#clip0_197_3896)">
<path d="M13.3389 13.2416C15.4671 9.90203 15.1996 10.3187 15.2609 10.2316C16.0358 9.13871 16.4453 7.85242 16.4453 6.51172C16.4453 2.95625 13.5601 0.0273438 10 0.0273438C6.45148 0.0273438 3.55469 2.95047 3.55469 6.51172C3.55469 7.85156 3.97281 9.17152 4.77305 10.2791L6.66102 13.2416C4.64246 13.5518 1.21094 14.4762 1.21094 16.5117C1.21094 17.2537 1.69523 18.3111 4.00242 19.1351C5.61344 19.7105 7.7434 20.0273 10 20.0273C14.2197 20.0273 18.7891 18.837 18.7891 16.5117C18.7891 14.4759 15.3616 13.5525 13.3389 13.2416ZM5.75191 9.63457C5.74547 9.62449 5.73875 9.61465 5.73172 9.60496C5.06582 8.68887 4.72656 7.60316 4.72656 6.51172C4.72656 3.58133 7.08617 1.19922 10 1.19922C12.9078 1.19922 15.2734 3.58238 15.2734 6.51172C15.2734 7.60492 14.9406 8.65379 14.3107 9.54574C14.2543 9.6202 14.5487 9.16269 10 16.3004L5.75191 9.63457ZM10 18.8555C5.39086 18.8555 2.38281 17.5007 2.38281 16.5117C2.38281 15.847 3.92844 14.7541 7.35344 14.3281L9.50586 17.7055C9.61344 17.8744 9.79977 17.9766 9.99996 17.9766C10.2002 17.9766 10.3865 17.8743 10.4941 17.7055L12.6464 14.3281C16.0715 14.7541 17.6172 15.847 17.6172 16.5117C17.6172 17.4923 14.6362 18.8555 10 18.8555Z" fill="white"/>
<path d="M10 3.58203C8.38457 3.58203 7.07031 4.89629 7.07031 6.51172C7.07031 8.12715 8.38457 9.44141 10 9.44141C11.6154 9.44141 12.9297 8.12715 12.9297 6.51172C12.9297 4.89629 11.6154 3.58203 10 3.58203ZM10 8.26953C9.03074 8.26953 8.24219 7.48098 8.24219 6.51172C8.24219 5.54246 9.03074 4.75391 10 4.75391C10.9693 4.75391 11.7578 5.54246 11.7578 6.51172C11.7578 7.48098 10.9693 8.26953 10 8.26953Z" fill="white"/>
</g>
<defs>
<clipPath id="clip0_197_3896">
<rect width="20" height="20" fill="white" transform="translate(0 0.0273438)"/>
</clipPath>
</defs>
</svg>
