<svg width="40" height="40" viewBox="0 0 40 40" fill="none" xmlns="http://www.w3.org/2000/svg">
<path d="M35.7403 20.0004C35.7403 22.9377 34.9348 25.6876 33.5355 28.0409C33.5355 28.0409 33.5355 28.0433 33.5331 28.0433C32.8079 29.265 31.9196 30.3747 30.9024 31.3554C29.761 32.4505 28.4566 33.3752 27.0257 34.0883C24.9109 35.1469 22.5236 35.7407 20 35.7407C11.3074 35.7407 4.25977 28.6931 4.25977 20.0004C4.25977 18.9661 4.35952 17.9562 4.54935 16.9779C5.02875 14.5103 6.08494 12.2519 7.56937 10.3416L7.57181 10.3392C9.96158 7.27045 13.461 5.10944 17.4691 4.46454C18.2941 4.32826 19.1385 4.26013 20 4.26013C22.329 4.26013 24.5386 4.7663 26.5269 5.67159C28.8071 6.71315 30.7953 8.2828 32.3357 10.2224C34.2558 12.6389 35.4775 15.6346 35.7014 18.9053C35.7281 19.2679 35.7403 19.6329 35.7403 20.0004Z" fill="#EDEDED"/>
<path d="M18.27 14.5345L10.8105 13.2693L10.8928 12.7897L18.2888 14.044L23.9367 13.5185L21.9482 4.74585L22.4228 4.63843L24.534 13.9516L18.27 14.5345Z" fill="#B1B2B6"/>
<path d="M30.132 31.8061H29.6453V27.5524L26.8052 19.0527L21.6739 20.1017L15.1011 27.5876L14.7354 27.2662L21.416 19.6578L27.1301 18.4895L30.132 27.473V31.8061Z" fill="#B1B2B6"/>
<path d="M28.8672 15.0118L33.5794 14.2924L33.6528 14.7736L28.9407 15.4931L28.8672 15.0118Z" fill="#B1B2B6"/>
<path d="M11.7005 28.3808L9.17025 25.6751L6.99394 18.7782L6.90625 15.7933L7.39272 15.7791L7.47947 18.73L9.60087 25.4232L12.0561 28.0486L11.7005 28.3808Z" fill="#B1B2B6"/>
<path d="M17.2192 33.1911L17.1836 32.7059L25.3655 32.237L30.1007 31.4149L30.1839 31.8945L25.4249 32.7194L17.2192 33.1911Z" fill="#B1B2B6"/>
<path d="M9.88192 10.4588L9.48242 10.1807L10.6372 8.52074L16.069 4.98875L19.8987 4.83167L19.9187 5.3179L16.2222 5.46976L10.9822 8.87675L9.88192 10.4588Z" fill="#B1B2B6"/>
<path d="M26.5272 5.67159L26.4468 5.82491L22.5799 6.1218C22.5799 6.1218 22.5556 6.11936 22.5069 6.11207C21.8158 6.01716 16.3549 5.26518 16.1456 5.22868C15.9217 5.19218 17.3721 4.55946 17.3721 4.55946L17.4694 4.46454C18.2944 4.32826 19.1388 4.26013 20.0003 4.26013C22.3293 4.26013 24.5389 4.7663 26.5272 5.67159Z" fill="#344D5B"/>
<path d="M11.2786 13.0916L7.2389 18.7715L4.5498 16.9779C5.02921 14.5103 6.0854 12.252 7.56983 10.3416L7.57227 10.3392C8.94967 9.6286 10.7189 8.74521 10.8065 8.70141L10.8089 8.69897L11.2786 13.0916Z" fill="#344D5B"/>
<path d="M35.7016 18.9054L33.3264 14.5298L32.3359 10.2224C34.256 12.6389 35.4777 15.6347 35.7016 18.9054Z" fill="#344D5B"/>
<path d="M33.7601 26.4736L33.5362 28.0408C33.5362 28.0408 33.5362 28.0433 33.5338 28.0433C32.8086 29.2649 31.9203 30.3746 30.9031 31.3554C29.7618 32.4505 28.4574 33.3752 27.0264 34.0882L25.3838 32.4797L29.8883 27.5128L33.7601 26.4736Z" fill="#344D5B"/>
<path d="M8.46191 30.0541L9.38599 25.5492L15.6813 27.0508L18.2802 32.9996L13.7754 34.3857L8.46191 30.0541Z" fill="#344D5B"/>
<path d="M23.507 10.5161L17.7578 14.1998L20.0782 21.5513H27.8975L29.5065 15.1121L23.507 10.5161Z" fill="#344D5B"/>
</svg>
