<svg width="24" height="25" viewBox="0 0 24 25" fill="none" xmlns="http://www.w3.org/2000/svg">
<g clip-path="url(#clip0_192_1256)">
<path d="M5.57171 10.7684C8.17534 10.7684 10.286 8.65776 10.286 6.05413C10.286 3.4505 8.17534 1.33984 5.57171 1.33984C2.96808 1.33984 0.857422 3.4505 0.857422 6.05413C0.857422 8.65776 2.96808 10.7684 5.57171 10.7684Z" stroke="white" stroke-linecap="round" stroke-linejoin="round"/>
<path d="M18.4291 10.7684C21.0328 10.7684 23.1434 8.65776 23.1434 6.05413C23.1434 3.4505 21.0328 1.33984 18.4291 1.33984C15.8255 1.33984 13.7148 3.4505 13.7148 6.05413C13.7148 8.65776 15.8255 10.7684 18.4291 10.7684Z" stroke="white" stroke-linecap="round" stroke-linejoin="round"/>
<path d="M5.57171 23.6253C8.17534 23.6253 10.286 21.5147 10.286 18.9111C10.286 16.3074 8.17534 14.1968 5.57171 14.1968C2.96808 14.1968 0.857422 16.3074 0.857422 18.9111C0.857422 21.5147 2.96808 23.6253 5.57171 23.6253Z" stroke="white" stroke-linecap="round" stroke-linejoin="round"/>
<path d="M18.4291 23.6253C21.0328 23.6253 23.1434 21.5147 23.1434 18.9111C23.1434 16.3074 21.0328 14.1968 18.4291 14.1968C15.8255 14.1968 13.7148 16.3074 13.7148 18.9111C13.7148 21.5147 15.8255 23.6253 18.4291 23.6253Z" stroke="white" stroke-linecap="round" stroke-linejoin="round"/>
</g>
<defs>
<clipPath id="clip0_192_1256">
<rect width="24" height="24" fill="white" transform="translate(0 0.48291)"/>
</clipPath>
</defs>
</svg>
