<svg width="60" height="60" viewBox="0 0 60 60" fill="none" xmlns="http://www.w3.org/2000/svg">
<path d="M29.9994 53.6576C44.201 53.6576 55.7137 42.1449 55.7137 27.9433C55.7137 13.7417 44.201 2.229 29.9994 2.229C15.7978 2.229 4.28516 13.7417 4.28516 27.9433C4.28516 42.1449 15.7978 53.6576 29.9994 53.6576Z" stroke="white" stroke-width="2" stroke-linecap="round" stroke-linejoin="round"/>
<path d="M43.1572 50.0576C47.1995 51.8593 50.82 54.487 53.7858 57.7719" stroke="white" stroke-width="2" stroke-linecap="round" stroke-linejoin="round"/>
<path d="M6.21387 57.7719C9.17966 54.487 12.8001 51.8593 16.8424 50.0576" stroke="white" stroke-width="2" stroke-linecap="round" stroke-linejoin="round"/>
<path d="M29.9987 40.8012C37.0995 40.8012 42.8559 35.0449 42.8559 27.9441C42.8559 20.8433 37.0995 15.0869 29.9987 15.0869C22.8979 15.0869 17.1416 20.8433 17.1416 27.9441C17.1416 35.0449 22.8979 40.8012 29.9987 40.8012Z" stroke="white" stroke-width="2" stroke-linecap="round" stroke-linejoin="round"/>
<path d="M29.9993 30.086C31.1828 30.086 32.1422 29.1266 32.1422 27.9432C32.1422 26.7597 31.1828 25.8003 29.9993 25.8003C28.8158 25.8003 27.8564 26.7597 27.8564 27.9432C27.8564 29.1266 28.8158 30.086 29.9993 30.086Z" stroke="white" stroke-width="2" stroke-linecap="round" stroke-linejoin="round"/>
</svg>
