<svg width="20" height="40" viewBox="0 0 20 40" fill="none" xmlns="http://www.w3.org/2000/svg">
<path d="M17.2634 23.0883L15.5612 22.4692C14.2903 22.0096 13.493 21.7891 13.493 21.1691C13.493 20.5895 14.0528 20.2892 14.9579 20.2892C15.9921 20.2892 16.8109 20.6093 17.7592 21.2289L19.6117 19.0705C18.3193 17.8907 16.5523 17.3313 14.9576 17.3313C13.5654 17.3313 12.3641 17.7107 11.4643 18.3303C11.68 17.6727 11.8942 17.0187 12.1071 16.3683C12.5045 15.1349 12.8952 13.9209 13.2736 12.7462L14.345 9.35339C14.6791 8.27297 14.9949 7.25218 15.2866 6.30861C15.867 4.42225 16.3208 2.84162 16.6528 1.73849C16.8188 1.18692 16.9374 0.750918 17.0235 0.45478L17.1529 0C17.1529 0 17.0946 0.154439 16.9849 0.443748C16.8752 0.733058 16.7107 1.15645 16.5143 1.69896C16.1214 2.78397 15.5396 4.32809 14.8781 6.1916C14.5484 7.12401 14.1915 8.13351 13.8136 9.20144C13.4604 10.2201 13.0884 11.2929 12.7038 12.4001H8.96303L7.54068 18.0771C7.17448 19.456 6.89419 20.7955 6.50732 22.1952H6.42097C6.03311 20.7958 5.77449 19.4566 5.38691 18.0771L3.9211 12.4001H0L4.13697 25.3935H8.37501C8.17386 26.0223 7.97639 26.6441 7.77963 27.254C7.02811 29.6047 6.3417 31.8033 5.7667 33.6914C5.18547 35.5778 4.73334 37.1584 4.40097 38.2615C4.23507 38.8131 4.11644 39.2491 4.03066 39.5451C3.94488 39.8411 3.90114 40 3.90114 40C3.90114 40 3.9596 39.8456 4.06945 39.5563C4.1793 39.2669 4.34378 38.8437 4.54012 38.301C4.93308 37.216 5.51587 35.6722 6.17693 33.8087C6.84423 31.9469 7.60665 29.7703 8.4087 27.4337C8.80591 26.2649 9.22831 25.0596 9.63613 23.8293C9.75858 23.4636 9.88244 23.0938 10.0057 22.7251C10.4617 23.8327 11.4608 24.5775 12.5663 24.9878L14.3117 25.6673C15.4965 26.107 16.2077 26.307 16.2077 26.9266C16.2077 27.5062 15.7338 27.8458 14.6131 27.8458C13.5786 27.8458 12.3292 27.3264 11.3378 26.5866L9.22647 28.9457C10.7347 30.205 12.76 30.8045 14.5267 30.8045C18.0178 30.8045 20 28.8455 20 26.6467C20 24.8475 19.0091 23.728 17.2634 23.0883Z" fill="#C42221"/>
</svg>
