<svg width="24" height="25" viewBox="0 0 24 25" fill="none" xmlns="http://www.w3.org/2000/svg">
<g clip-path="url(#clip0_197_4866)">
<path d="M11.9996 21.7936C17.6802 21.7936 22.2853 17.1885 22.2853 11.5079C22.2853 5.82724 17.6802 1.22217 11.9996 1.22217C6.31894 1.22217 1.71387 5.82724 1.71387 11.5079C1.71387 17.1885 6.31894 21.7936 11.9996 21.7936Z" stroke="white" stroke-linecap="round" stroke-linejoin="round"/>
<path d="M17.2627 20.3535C18.8796 21.0742 20.3278 22.1253 21.5141 23.4392" stroke="white" stroke-linecap="round" stroke-linejoin="round"/>
<path d="M2.48535 23.4392C3.67167 22.1253 5.11986 21.0742 6.73678 20.3535" stroke="white" stroke-linecap="round" stroke-linejoin="round"/>
<path d="M11.9993 16.6509C14.8396 16.6509 17.1422 14.3484 17.1422 11.5081C17.1422 8.66777 14.8396 6.36523 11.9993 6.36523C9.15898 6.36523 6.85645 8.66777 6.85645 11.5081C6.85645 14.3484 9.15898 16.6509 11.9993 16.6509Z" stroke="white" stroke-linecap="round" stroke-linejoin="round"/>
<path d="M11.9997 12.3652C12.4731 12.3652 12.8569 11.9814 12.8569 11.508C12.8569 11.0346 12.4731 10.6509 11.9997 10.6509C11.5263 10.6509 11.1426 11.0346 11.1426 11.508C11.1426 11.9814 11.5263 12.3652 11.9997 12.3652Z" stroke="white" stroke-linecap="round" stroke-linejoin="round"/>
</g>
<defs>
<clipPath id="clip0_197_4866">
<rect width="24" height="24" fill="white" transform="translate(0 0.330566)"/>
</clipPath>
</defs>
</svg>
