<svg width="24" height="25" viewBox="0 0 24 25" fill="none" xmlns="http://www.w3.org/2000/svg">
<g clip-path="url(#clip0_189_449)">
<path d="M21.4289 1.33984H2.57171C1.62493 1.33984 0.857422 2.10736 0.857422 3.05413V21.9113C0.857422 22.858 1.62493 23.6256 2.57171 23.6256H21.4289C22.3756 23.6256 23.1431 22.858 23.1431 21.9113V3.05413C23.1431 2.10736 22.3756 1.33984 21.4289 1.33984Z" stroke="white" stroke-linecap="round" stroke-linejoin="round"/>
<path d="M12 20.1968C15.3137 20.1968 18 17.5105 18 14.1968C18 10.8831 15.3137 8.19678 12 8.19678C8.68629 8.19678 6 10.8831 6 14.1968C6 17.5105 8.68629 20.1968 12 20.1968Z" stroke="white" stroke-linecap="round" stroke-linejoin="round"/>
<path d="M0.857422 6.48291H6.00028" stroke="white" stroke-linecap="round" stroke-linejoin="round"/>
<path d="M18 6.48291H23.1429" stroke="white" stroke-linecap="round" stroke-linejoin="round"/>
<path d="M12 14.1455V20.1455" stroke="white" stroke-linecap="round" stroke-linejoin="round"/>
<path d="M6.85742 11.1113L12.0003 14.1456" stroke="white" stroke-linecap="round" stroke-linejoin="round"/>
<path d="M17.1429 11.1113L12 14.1456" stroke="white" stroke-linecap="round" stroke-linejoin="round"/>
</g>
<defs>
<clipPath id="clip0_189_449">
<rect width="24" height="24" fill="white" transform="translate(0 0.48291)"/>
</clipPath>
</defs>
</svg>
