<svg width="50" height="50" viewBox="0 0 50 50" fill="none" xmlns="http://www.w3.org/2000/svg">
<circle cx="25" cy="25" r="25" fill="#C42221"/>
<g clip-path="url(#clip0_197_5242)">
<path d="M25 10C16.7158 10 10 16.7158 10 25C10 33.2842 16.7158 40 25 40C33.2842 40 40 33.2842 40 25C39.9907 16.7197 33.2803 10.0093 25 10ZM25.5354 14.3245L30.75 12.24C31.3418 12.5078 31.9143 12.8164 32.4634 13.1636L32.4771 13.1721C33.0166 13.5139 33.5322 13.8921 34.0205 14.304L34.0625 14.3406C34.2815 14.5271 34.4944 14.7202 34.7014 14.9194C34.7275 14.9451 34.7549 14.9695 34.781 14.9956C34.998 15.2075 35.2083 15.426 35.4116 15.6509C35.4285 15.6699 35.4446 15.6899 35.4614 15.709C35.6399 15.9089 35.8115 16.116 35.978 16.3264C36.0181 16.3765 36.0581 16.4265 36.0969 16.4766C36.2776 16.7104 36.4524 16.9485 36.6174 17.1941L35.5779 21.613L30.4634 23.3181L25.5366 19.376L25.5354 14.3245ZM13.9026 16.4795C13.9414 16.4294 13.981 16.3794 14.021 16.3296C14.1855 16.1208 14.3557 15.9172 14.5315 15.7185C14.5505 15.6975 14.5681 15.676 14.5869 15.655C14.7891 15.4297 14.9983 15.2114 15.2151 15C15.24 14.9756 15.2649 14.95 15.291 14.9275C15.4963 14.7295 15.7075 14.5376 15.9246 14.3521L15.9746 14.3101C16.4585 13.9011 16.9692 13.5254 17.5034 13.1851L17.5229 13.1726C18.0688 12.8262 18.6377 12.5181 19.2261 12.25L24.4646 14.3245V19.3745L19.5376 23.3159L14.4231 21.614L13.3835 17.1951C13.55 16.95 13.7229 16.7124 13.9026 16.4795ZM13.3 32.6726C13.1531 32.4485 13.0125 32.2202 12.8784 31.9875L12.8459 31.9314C12.7126 31.7 12.5864 31.4646 12.4675 31.2256L12.4634 31.218C12.2129 30.7151 11.9929 30.1975 11.8049 29.668V29.6631C11.7161 29.4131 11.635 29.157 11.5601 28.8994L11.533 28.8044C11.4644 28.5625 11.4021 28.3179 11.3464 28.0706C11.3416 28.0464 11.3354 28.0234 11.3306 27.9995C11.2078 27.4409 11.1196 26.8755 11.0664 26.3059L14.1189 22.6431L19.198 24.3359L20.6721 30.2319L18.25 33.4546L13.3 32.6726ZM28.3296 38.5964C28.0796 38.6584 27.823 38.7119 27.5664 38.76C27.5305 38.7671 27.4939 38.7729 27.458 38.7795C27.2395 38.8186 27.0186 38.8521 26.7971 38.8794C26.738 38.887 26.6794 38.895 26.6206 38.9021C26.415 38.926 26.2075 38.9441 25.9995 38.959C25.9341 38.9634 25.8694 38.97 25.804 38.9741C25.5381 38.9905 25.27 39 25 39C24.7527 39 24.5068 38.9934 24.2625 38.9805C24.2329 38.9805 24.2046 38.9756 24.175 38.9734C23.9575 38.9609 23.741 38.9446 23.5249 38.9236L23.5 38.9189C23.0266 38.8677 22.5559 38.7925 22.0901 38.6941L19.1326 34.0635L21.5166 30.8845H28.4834L30.9065 34.0845L28.3296 38.5964ZM38.6731 28C38.668 28.0239 38.6621 28.0471 38.657 28.071C38.6011 28.3181 38.5388 28.5627 38.4705 28.8049L38.4436 28.8999C38.3684 29.1575 38.2876 29.4126 38.1985 29.6636V29.6685C38.0105 30.198 37.7908 30.7156 37.54 31.2185L37.5359 31.2261C37.4163 31.4653 37.2903 31.7007 37.1575 31.9319L37.125 31.988C36.9917 32.2214 36.8513 32.4492 36.7041 32.6721L31.771 33.45L29.332 30.23L30.8054 24.3354L35.8845 22.6426L38.937 26.3054C38.884 26.8752 38.7959 27.4412 38.6731 28Z" fill="white"/>
</g>
<defs>
<clipPath id="clip0_197_5242">
<rect width="30" height="30" fill="white" transform="translate(10 10)"/>
</clipPath>
</defs>
</svg>
