<svg width="155" height="50" viewBox="0 0 155 50" fill="none" xmlns="http://www.w3.org/2000/svg">
<circle cx="25" cy="25" r="25" fill="#C42221"/>
<g clip-path="url(#clip0_197_5241)">
<path d="M25 10C16.7158 10 10 16.7158 10 25C10 33.2842 16.7158 40 25 40C33.2842 40 40 33.2842 40 25C39.9907 16.7197 33.2803 10.0093 25 10ZM25.5354 14.3245L30.75 12.24C31.3418 12.5078 31.9143 12.8164 32.4634 13.1636L32.4771 13.1721C33.0166 13.5139 33.5322 13.8921 34.0205 14.304L34.0625 14.3406C34.2815 14.5271 34.4944 14.7202 34.7014 14.9194C34.7275 14.9451 34.7549 14.9695 34.781 14.9956C34.998 15.2075 35.2083 15.426 35.4116 15.6509C35.4285 15.6699 35.4446 15.6899 35.4614 15.709C35.6399 15.9089 35.8115 16.116 35.978 16.3264C36.0181 16.3765 36.0581 16.4265 36.0969 16.4766C36.2776 16.7104 36.4524 16.9485 36.6174 17.1941L35.5779 21.613L30.4634 23.3181L25.5366 19.376L25.5354 14.3245ZM13.9026 16.4795C13.9414 16.4294 13.981 16.3794 14.021 16.3296C14.1855 16.1208 14.3557 15.9172 14.5315 15.7185C14.5505 15.6975 14.5681 15.676 14.5869 15.655C14.7891 15.4297 14.9983 15.2114 15.2151 15C15.24 14.9756 15.2649 14.95 15.291 14.9275C15.4963 14.7295 15.7075 14.5376 15.9246 14.3521L15.9746 14.3101C16.4585 13.9011 16.9692 13.5254 17.5034 13.1851L17.5229 13.1726C18.0688 12.8262 18.6377 12.5181 19.2261 12.25L24.4646 14.3245V19.3745L19.5376 23.3159L14.4231 21.614L13.3835 17.1951C13.55 16.95 13.7229 16.7124 13.9026 16.4795ZM13.3 32.6726C13.1531 32.4485 13.0125 32.2202 12.8784 31.9875L12.8459 31.9314C12.7126 31.7 12.5864 31.4646 12.4675 31.2256L12.4634 31.218C12.2129 30.7151 11.9929 30.1975 11.8049 29.668V29.6631C11.7161 29.4131 11.635 29.157 11.5601 28.8994L11.533 28.8044C11.4644 28.5625 11.4021 28.3179 11.3464 28.0706C11.3416 28.0464 11.3354 28.0234 11.3306 27.9995C11.2078 27.4409 11.1196 26.8755 11.0664 26.3059L14.1189 22.6431L19.198 24.3359L20.6721 30.2319L18.25 33.4546L13.3 32.6726ZM28.3296 38.5964C28.0796 38.6584 27.823 38.7119 27.5664 38.76C27.5305 38.7671 27.4939 38.7729 27.458 38.7795C27.2395 38.8186 27.0186 38.8521 26.7971 38.8794C26.738 38.887 26.6794 38.895 26.6206 38.9021C26.415 38.926 26.2075 38.9441 25.9995 38.959C25.9341 38.9634 25.8694 38.97 25.804 38.9741C25.5381 38.9905 25.27 39 25 39C24.7527 39 24.5068 38.9934 24.2625 38.9805C24.2329 38.9805 24.2046 38.9756 24.175 38.9734C23.9575 38.9609 23.741 38.9446 23.5249 38.9236L23.5 38.9189C23.0266 38.8677 22.5559 38.7925 22.0901 38.6941L19.1326 34.0635L21.5166 30.8845H28.4834L30.9065 34.0845L28.3296 38.5964ZM38.6731 28C38.668 28.0239 38.6621 28.0471 38.657 28.071C38.6011 28.3181 38.5388 28.5627 38.4705 28.8049L38.4436 28.8999C38.3684 29.1575 38.2876 29.4126 38.1985 29.6636V29.6685C38.0105 30.198 37.7908 30.7156 37.54 31.2185L37.5359 31.2261C37.4163 31.4653 37.2903 31.7007 37.1575 31.9319L37.125 31.988C36.9917 32.2214 36.8513 32.4492 36.7041 32.6721L31.771 33.45L29.332 30.23L30.8054 24.3354L35.8845 22.6426L38.937 26.3054C38.884 26.8752 38.7959 27.4412 38.6731 28Z" fill="white"/>
</g>
<path d="M65.148 15.4H73.296V18.2H68.228V23.66H72.204V26.46H68.228V35H65.148V15.4ZM79.225 35.28C77.713 35.28 76.5557 34.8507 75.753 33.992C74.9503 33.1333 74.549 31.92 74.549 30.352V20.048C74.549 18.48 74.9503 17.2667 75.753 16.408C76.5557 15.5493 77.713 15.12 79.225 15.12C80.737 15.12 81.8943 15.5493 82.697 16.408C83.4997 17.2667 83.901 18.48 83.901 20.048V30.352C83.901 31.92 83.4997 33.1333 82.697 33.992C81.8943 34.8507 80.737 35.28 79.225 35.28ZM79.225 32.48C80.289 32.48 80.821 31.836 80.821 30.548V19.852C80.821 18.564 80.289 17.92 79.225 17.92C78.161 17.92 77.629 18.564 77.629 19.852V30.548C77.629 31.836 78.161 32.48 79.225 32.48ZM90.4359 35.28C88.9239 35.28 87.7666 34.8507 86.9639 33.992C86.1613 33.1333 85.7599 31.92 85.7599 30.352V20.048C85.7599 18.48 86.1613 17.2667 86.9639 16.408C87.7666 15.5493 88.9239 15.12 90.4359 15.12C91.9479 15.12 93.1053 15.5493 93.9079 16.408C94.7106 17.2667 95.1119 18.48 95.1119 20.048V30.352C95.1119 31.92 94.7106 33.1333 93.9079 33.992C93.1053 34.8507 91.9479 35.28 90.4359 35.28ZM90.4359 32.48C91.4999 32.48 92.0319 31.836 92.0319 30.548V19.852C92.0319 18.564 91.4999 17.92 90.4359 17.92C89.3719 17.92 88.8399 18.564 88.8399 19.852V30.548C88.8399 31.836 89.3719 32.48 90.4359 32.48ZM99.4935 18.2H96.2735V15.4H105.794V18.2H102.574V35H99.4935V18.2ZM111.515 35.28C110.041 35.28 108.911 34.86 108.127 34.02C107.362 33.18 106.979 31.9947 106.979 30.464V19.936C106.979 18.4053 107.362 17.22 108.127 16.38C108.911 15.54 110.041 15.12 111.515 15.12C112.99 15.12 114.11 15.54 114.875 16.38C115.659 17.22 116.051 18.4053 116.051 19.936V22.008H113.139V19.74C113.139 18.5267 112.626 17.92 111.599 17.92C110.573 17.92 110.059 18.5267 110.059 19.74V30.688C110.059 31.8827 110.573 32.48 111.599 32.48C112.626 32.48 113.139 31.8827 113.139 30.688V27.692H116.051V30.464C116.051 31.9947 115.659 33.18 114.875 34.02C114.11 34.86 112.99 35.28 111.515 35.28ZM117.894 15.4H120.974V32.2H126.042V35H117.894V15.4ZM131.999 35.28C130.506 35.28 129.367 34.86 128.583 34.02C127.799 33.1613 127.407 31.9387 127.407 30.352V15.4H130.487V30.576C130.487 31.248 130.618 31.7333 130.879 32.032C131.159 32.3307 131.551 32.48 132.055 32.48C132.559 32.48 132.942 32.3307 133.203 32.032C133.483 31.7333 133.623 31.248 133.623 30.576V15.4H136.591V30.352C136.591 31.9387 136.199 33.1613 135.415 34.02C134.631 34.86 133.492 35.28 131.999 35.28ZM138.785 15.4H143.433C145.019 15.4 146.177 15.7733 146.905 16.52C147.633 17.248 147.997 18.3773 147.997 19.908V20.692C147.997 21.7 147.829 22.5213 147.493 23.156C147.175 23.7907 146.681 24.248 146.009 24.528V24.584C147.539 25.1067 148.305 26.4693 148.305 28.672V30.352C148.305 31.864 147.903 33.0213 147.101 33.824C146.317 34.608 145.159 35 143.629 35H138.785V15.4ZM143.069 23.38C143.685 23.38 144.142 23.2213 144.441 22.904C144.758 22.5867 144.917 22.0547 144.917 21.308V20.216C144.917 19.5067 144.786 18.9933 144.525 18.676C144.282 18.3587 143.89 18.2 143.349 18.2H141.865V23.38H143.069ZM143.629 32.2C144.17 32.2 144.571 32.06 144.833 31.78C145.094 31.4813 145.225 30.9773 145.225 30.268V28.56C145.225 27.664 145.066 27.048 144.749 26.712C144.45 26.3573 143.946 26.18 143.237 26.18H141.865V32.2H143.629Z" fill="white"/>
<path d="M150.105 32.032H153.073V35H150.105V32.032Z" fill="#C42221"/>
<defs>
<clipPath id="clip0_197_5241">
<rect width="30" height="30" fill="white" transform="translate(10 10)"/>
</clipPath>
</defs>
</svg>
