<svg width="359" height="512" viewBox="0 0 359 512" fill="none" xmlns="http://www.w3.org/2000/svg">
<path d="M17.9713 152.735C14.5396 156.278 13.3219 161.149 9.44743 164.138C8.22973 163.031 8.67253 162.034 9.00463 161.149C10.1116 158.049 11.2186 154.949 12.2149 151.85C12.4363 151.296 12.547 150.743 12.6577 149.968C8.34044 149.747 4.24453 151.407 0.148623 150.521C-0.404878 148.75 0.702127 148.529 1.58773 148.197C4.35523 147.09 7.12273 145.983 9.89024 145.097C12.547 144.212 13.9861 142.662 13.5433 139.673C13.3219 137.57 13.5433 135.466 13.5433 132.92C17.1964 135.023 16.975 139.23 19.7425 141.555C22.0673 140.558 24.5027 139.562 26.9381 138.566C28.0451 138.123 29.1521 137.57 30.3698 137.237C30.9233 137.127 31.8089 137.348 32.2517 137.791C32.4731 138.012 32.2517 139.009 31.9196 139.341C31.034 140.448 30.0377 141.444 29.0414 142.551C27.2702 144.433 25.499 146.426 23.6171 148.418C25.3883 150.964 26.8274 153.068 28.3772 155.282C29.0414 156.167 29.7056 157.163 30.2591 158.049C30.8126 158.824 31.8089 159.82 30.7019 160.706C29.5949 161.591 28.82 160.484 28.0451 159.82C25.6097 157.938 23.0635 156.167 20.6281 154.396C19.8532 153.842 19.0783 153.4 17.9713 152.735ZM15.868 139.341C15.6466 139.451 15.5359 139.451 15.3145 139.562C15.3145 140.005 15.3145 140.337 15.3145 140.78C15.4252 144.322 14.9824 144.876 11.7721 146.315C10.7758 146.758 9.77954 147.2 8.78324 147.643C9.89024 148.086 10.8865 148.086 11.7721 147.975C14.6503 147.865 15.2038 148.64 14.4289 151.407C14.0968 152.625 13.654 153.842 13.3219 155.06C14.2075 154.728 14.6503 154.175 15.0931 153.621C16.975 151.075 18.1927 150.743 21.0709 152.403C22.0672 152.957 23.0635 153.621 24.0598 154.175C23.8384 153.068 23.3956 152.293 22.9528 151.628C21.0709 148.529 21.071 147.975 23.6171 145.208C24.9455 143.769 26.2739 142.44 28.0451 140.669C27.0488 140.78 26.7167 140.78 26.3846 140.891C24.7241 141.555 22.9528 142.33 21.2923 142.994C19.189 143.769 18.5248 143.547 17.1964 141.665C16.6429 140.891 16.3108 140.116 15.868 139.341Z" fill="black" fill-opacity="0.1"/>
<path d="M264.832 37.386C267.268 40.3749 269.26 42.921 271.253 45.3564C272.913 47.349 273.356 47.349 275.792 46.242C277.563 45.4671 279.334 44.6922 281.216 44.1387C281.88 43.9173 282.766 44.3601 283.43 44.3601C283.319 45.135 283.319 45.9099 283.098 46.5741C282.655 47.349 281.991 48.1239 281.437 48.7881C280.552 49.7844 279.555 50.67 278.67 51.6663C276.234 54.3231 276.234 54.3231 278.006 57.4227C278.891 58.9725 279.777 60.4116 280.662 61.9614C281.105 62.847 281.437 63.8433 281.769 64.6182C280.552 65.9466 279.777 65.3931 278.891 64.7289C277.12 63.2898 275.459 61.8507 273.578 60.5223C272.581 59.7474 271.364 59.0832 270.035 58.1976C269.039 59.6367 268.264 60.7437 267.489 61.9614C266.05 64.0647 264.611 66.168 263.061 68.2713C262.618 68.9355 261.401 69.5997 260.847 69.3783C259.629 69.0462 260.293 67.9392 260.515 67.0536C261.622 63.2898 262.729 59.6367 263.836 55.8729C261.622 54.5445 259.408 55.2087 257.305 54.9873C255.423 54.6552 253.209 55.5408 251.438 53.8803C251.88 52.1091 253.319 52.2198 254.316 51.777C256.862 50.8914 259.408 50.2272 261.843 49.2309C264.611 48.1239 264.943 47.4597 264.722 44.5815C264.611 42.8103 264.279 41.1498 264.168 39.3786C264.279 38.9358 264.611 38.3823 264.832 37.386ZM280.109 47.349C279.998 47.2383 279.777 47.0169 279.666 46.9062C278.559 47.349 277.452 47.7918 276.345 48.3453C273.245 49.6737 272.138 49.3416 269.814 46.9062C268.928 45.9099 268.043 44.8029 266.825 43.2531C266.825 44.2494 266.825 44.5815 266.825 45.0243C266.936 48.6774 266.493 49.4523 263.172 50.8914C262.286 51.2235 261.511 51.5556 260.626 51.8877C259.961 52.1091 259.408 52.4412 258.744 52.7733C259.961 53.2161 260.958 53.3268 261.954 53.3268C265.496 53.5482 266.271 54.4338 265.607 57.9762C265.386 58.9725 265.054 59.9688 264.722 60.9651C264.611 61.6293 264.611 62.1828 264.5 62.847C265.718 61.8507 266.603 60.7437 267.378 59.526C269.371 56.6478 270.478 56.4264 273.467 58.3083C274.795 59.1939 276.013 60.1902 277.341 61.0758C277.009 59.6367 276.345 58.5297 275.681 57.4227C274.242 54.8766 274.352 53.8803 276.345 51.6663C277.563 50.1165 278.891 48.6774 280.109 47.349Z" fill="black" fill-opacity="0.1"/>
<path d="M273.577 236.203C270.035 239.082 268.928 243.842 264.721 245.502C264.5 240.853 267.267 237.089 267.821 232.329C266.603 232.329 265.607 232.329 264.5 232.329C262.286 232.218 259.961 232.107 257.747 231.886C256.751 231.775 255.976 231.443 255.865 229.893C256.64 229.561 257.526 229.008 258.411 228.786C261.29 227.901 264.168 227.237 267.046 226.351C269.924 225.465 270.146 225.133 269.703 222.144C269.481 220.816 269.149 219.488 269.039 218.27C268.928 217.716 269.149 217.163 269.26 216.277C270.92 218.713 272.249 220.927 273.688 223.03C275.459 225.576 275.681 225.465 278.559 224.58C280.33 224.026 282.101 223.473 283.872 222.919C284.869 222.698 285.865 222.587 286.64 222.477C287.636 223.916 286.861 224.691 286.086 225.465C284.647 227.015 283.097 228.565 281.548 230.004C280.883 230.668 280.109 231.443 279.223 232.329C280.662 234.764 282.101 236.978 283.43 239.303C284.094 240.41 285.644 241.849 283.983 243.067C282.655 244.063 281.658 242.403 280.662 241.628C279.223 240.41 278.005 239.082 276.566 237.975C275.681 237.2 274.684 236.757 273.577 236.203ZM268.042 239.303C268.153 239.414 268.264 239.414 268.374 239.524C269.149 238.528 269.924 237.532 270.81 236.535C272.692 234.321 273.799 234.1 276.455 235.318C277.341 235.761 278.116 236.203 279.223 236.757C277.23 231.443 277.23 231.443 281.216 227.569C281.769 227.126 282.101 226.462 282.987 225.355C281.216 225.798 280.219 225.908 279.334 226.351C276.455 227.569 274.131 227.237 272.47 224.469C272.36 224.358 272.138 224.358 271.917 224.358C271.585 226.683 269.924 227.569 267.932 228.012C265.607 228.676 263.282 229.229 260.957 229.893C260.957 230.115 261.068 230.336 261.068 230.558C263.061 230.558 265.053 230.447 267.046 230.558C269.703 230.668 270.367 231.554 269.703 234.1C269.149 235.871 268.596 237.642 268.042 239.303Z" fill="black" fill-opacity="0.1"/>
<path d="M337.341 98.8244C335.459 98.2709 333.909 97.8281 332.47 97.2746C331.031 96.7211 329.149 96.8318 328.264 95.282C328.706 93.7322 330.035 94.0643 331.142 93.8429C332.913 93.5108 334.795 93.1787 336.566 92.8466C338.891 92.4038 340.109 91.2968 340.551 88.8614C341.105 85.8725 342.101 82.8836 342.987 79.6733C344.979 81.3338 344.869 83.5478 345.533 85.319C346.197 87.2009 346.751 89.1935 347.304 91.1861C351.289 91.8503 354.721 89.3042 358.485 89.6363C359.038 91.4075 357.821 92.1824 356.935 92.8466C355.164 94.2857 353.282 95.5034 351.4 96.8318C349.186 98.4923 349.075 98.603 350.182 101.038C351.179 103.142 352.175 105.245 353.282 107.348C352.175 108.787 351.179 108.345 350.293 107.57C348.854 106.463 347.415 105.245 345.976 104.138C343.43 102.367 342.655 102.367 340.33 104.581C338.891 105.909 337.562 107.348 336.123 108.677C335.57 109.12 335.016 109.673 334.463 110.005C334.02 110.227 333.134 110.337 332.802 110.116C332.47 109.784 332.36 108.898 332.47 108.455C333.356 106.684 334.352 105.024 335.238 103.363C335.902 101.813 336.455 100.485 337.341 98.8244ZM337.23 104.027C339.223 102.81 340.883 101.149 342.765 100.928C344.537 100.706 346.419 102.035 348.411 102.699C348.3 102.256 348.19 101.813 348.079 101.481C346.861 98.1602 347.083 97.3853 349.961 95.282C350.957 94.5071 352.064 93.8429 353.06 93.068C351.511 92.7359 350.182 93.068 348.743 93.2894C346.529 93.5108 345.754 93.068 344.979 91.0754C344.647 90.1898 344.537 89.3042 344.315 88.4186C343.983 87.3116 343.762 86.2046 343.43 84.9869C342.544 86.6474 342.212 88.1972 341.99 89.747C341.658 92.6252 339.998 94.175 337.23 94.6178C336.123 94.8392 334.906 95.1713 333.799 95.3927C333.909 95.6141 333.909 95.8355 334.02 95.8355C334.906 96.1676 335.681 96.4997 336.566 96.8318C339.223 97.8281 339.555 98.4923 338.448 101.26C338.116 102.035 337.673 102.92 337.23 104.027Z" fill="black" fill-opacity="0.1"/>
<path d="M26.2744 52.552C30.2596 50.7808 34.2448 49.1203 38.5621 47.2384C38.3407 44.0281 38.1193 40.8178 37.7872 37.054C39.2263 37.9396 40.2226 38.4931 41.1082 39.268C41.7724 39.7108 42.2152 40.375 42.8794 40.9285C44.9827 42.6997 45.3148 42.6997 47.7502 41.482C49.4107 40.5964 51.0712 39.4894 52.8424 38.4931C53.728 37.9396 54.835 37.7182 55.7206 37.2754C56.8277 38.4931 56.3848 39.268 55.8313 40.0429C54.3922 41.9248 52.9531 43.8067 51.6247 45.6886C50.6284 47.017 49.6321 48.4561 48.8572 49.6738C50.2963 52.8841 54.0601 53.4376 55.1671 56.5372C53.9494 57.6442 52.8424 57.0907 51.8461 56.7586C50.0749 56.0944 48.4144 55.4302 46.6432 54.8767C44.0971 54.1018 43.5436 54.4339 42.2152 56.7586C41.2189 58.6405 40.2226 60.5224 39.2263 62.515C38.5621 63.7327 37.7872 64.729 36.4588 65.0611C35.0197 63.9541 36.016 62.8471 36.2374 61.8508C37.0123 58.9726 37.8979 56.2051 38.7835 53.1055C36.3481 52.6627 34.3555 53.4376 32.2522 53.659C30.2596 53.8804 28.1563 54.766 26.3851 53.3269C26.3851 53.2162 26.3851 52.8841 26.2744 52.552ZM53.0638 41.1499C52.9531 41.0392 52.8424 40.9285 52.7318 40.7071C51.1819 41.5927 49.5214 42.3676 47.9716 43.3639C45.7576 44.803 43.8757 44.3602 42.1045 42.8104C41.4403 42.1462 40.6654 41.5927 40.0012 41.0392C39.7798 42.8104 40.0012 44.2495 40.1119 45.6886C40.3333 47.9026 39.8905 48.5668 37.8979 49.4524C36.4588 50.1166 35.1304 50.7808 33.6913 51.445C34.7983 51.7771 35.6839 51.6664 36.5695 51.5557C40.5547 50.8915 41.2189 51.5557 40.2226 55.5409C40.1119 56.0944 40.0012 56.7586 39.7798 57.5335C40.9975 56.0944 41.7724 54.3232 43.1008 53.659C44.5399 52.9948 46.4218 53.3269 48.0823 53.3269C45.979 51.3343 46.5325 49.231 48.193 47.1277C48.8572 46.2421 49.6321 45.3565 50.2963 44.4709C51.2926 43.2532 52.1782 42.1462 53.0638 41.1499Z" fill="black" fill-opacity="0.1"/>
<path d="M80.0738 214.395C76.9742 211.074 74.7602 207.2 72.9889 203.104C69.2251 194.58 66.9004 185.724 65.0185 176.646C62.4724 164.027 60.7013 151.407 59.9263 138.566C59.7049 134.912 59.8156 131.149 60.037 127.496C60.037 126.167 60.5905 124.839 60.9226 123.621C61.144 123.621 61.4761 123.732 61.6975 123.732C61.6975 124.285 61.6975 124.839 61.6975 125.282C61.2547 133.252 62.0296 141.112 62.9152 148.971C64.3544 161.48 66.1255 173.99 69.1144 186.277C71.4391 195.908 74.4281 205.318 79.8524 213.62C79.9631 213.842 79.9631 214.063 80.0738 214.395Z" fill="black" fill-opacity="0.1"/>
<path d="M88.598 193.473C78.1922 179.414 75.7568 162.698 73.3214 146.204C72.1037 138.012 72.3251 137.237 73.8749 134.691C74.207 136.02 74.4284 137.016 74.5391 137.901C76.1996 147.754 77.6387 157.495 79.5206 167.348C81.1811 176.204 83.8379 184.838 88.3766 192.809C88.4873 193.03 88.4873 193.251 88.598 193.473Z" fill="black" fill-opacity="0.1"/>
<path d="M202.62 409.781C202.288 408.231 203.284 407.567 204.17 406.903C207.491 404.467 210.701 401.921 214.133 399.818C230.849 389.301 248.007 379.449 266.162 371.368C272.25 368.711 278.56 366.608 284.87 364.283C285.534 364.062 286.199 364.062 286.863 363.951C256.863 375.685 229.41 391.848 202.62 409.781Z" fill="black" fill-opacity="0.1"/>
<path d="M271.918 385.427C271.254 385.87 270.7 386.423 269.925 386.645C259.519 390.519 249.335 394.726 239.593 400.039C239.261 400.261 238.818 400.261 238.154 399.818C239.04 399.154 240.036 398.489 240.922 397.936C250.442 392.844 260.516 389.08 270.7 385.538C271.032 385.316 271.475 385.427 271.918 385.427Z" fill="black" fill-opacity="0.1"/>
<path d="M271.918 385.427C272.693 384.984 273.468 384.541 274.243 384.098C274.353 384.32 274.464 384.541 274.464 384.763C273.689 384.984 272.804 385.205 271.918 385.427Z" fill="black" fill-opacity="0.1"/>
<path d="M175.165 474.098C173.505 473.655 171.623 473.212 169.409 472.658C169.077 473.101 168.634 473.765 168.191 474.319C167.195 475.315 166.199 475.979 164.87 474.872C163.652 473.876 163.542 472.769 164.538 471.551C164.759 471.33 164.759 470.998 164.87 470.555C162.545 469.116 160.331 467.788 158.228 466.459C154.464 468.562 154.022 468.673 152.472 467.013C151.033 465.463 151.033 464.909 152.582 462.363C151.254 460.481 149.815 458.599 148.376 456.607C146.494 456.939 144.391 458.267 142.952 455.5C141.845 453.175 143.837 452.622 144.944 451.293C143.394 449.301 141.845 447.308 140.184 445.205C138.524 445.648 136.974 447.197 135.313 445.205C134.317 443.987 134.87 443.101 135.756 441.884C133.985 440.777 132.324 439.67 130.775 438.563C127.232 440.998 126.568 441.109 125.24 439.67C124.133 438.341 124.243 437.677 126.347 435.352C126.014 434.91 125.572 434.467 125.461 434.245C121.254 436.349 117.158 438.12 113.284 440.223C110.627 441.662 107.86 443.323 105.646 445.426C102.214 448.747 99.0036 452.29 96.1254 456.164C94.797 457.935 94.3542 460.481 94.0221 462.695C93.69 465.906 93.9114 469.227 93.9114 472.548C93.9114 474.762 93.9114 476.976 93.8007 479.3C93.4686 483.728 94.3542 487.935 96.1254 492.031C97.5645 495.352 97.6752 498.784 96.5682 502.326C95.3505 506.311 92.3616 508.414 88.4871 509.189C86.8266 509.521 85.4982 509.964 84.1698 510.961C83.6163 511.293 83.0628 511.846 82.5093 511.846C81.6237 511.846 80.6274 511.736 79.8525 511.293C78.8562 510.739 79.0776 509.632 79.6311 508.747C79.7418 508.525 79.8525 508.193 79.9632 507.75C79.0776 507.197 78.3027 506.754 77.4171 506.201C75.8673 507.086 74.2068 508.082 72.5463 506.201C70.5537 503.987 73.0998 502.547 73.5426 500.665C73.0998 499.78 72.657 498.894 72.2142 497.898C71.6607 496.68 70.8858 495.905 69.4467 495.573C68.5611 495.352 67.5648 494.577 67.0113 493.802C65.9043 492.142 66.2364 491.477 68.1183 490.37C68.3397 490.26 68.4504 490.149 68.6718 490.038C68.7825 489.928 68.7825 489.817 69.0039 489.485C68.5611 488.378 68.3397 487.049 67.6755 485.832C67.2327 485.168 66.3471 484.393 65.5722 484.171C64.4652 483.839 63.4689 483.839 63.3582 482.4C63.1368 480.961 63.5796 479.854 65.1294 479.411C65.5722 479.3 65.9043 478.968 66.5685 478.636C65.7936 477.086 65.0187 475.647 64.2438 474.208C61.9191 474.651 59.8158 475.647 58.4874 472.991C57.6018 471.219 58.598 470.223 60.0371 469.116C59.1515 468.009 58.266 466.902 57.3804 465.906C56.6055 465.02 55.8306 464.577 54.6128 464.799C53.2844 465.131 52.0667 464.688 51.5132 463.249C50.9597 461.699 51.4025 460.592 52.9523 459.817C53.2844 459.707 53.5058 459.485 53.9486 459.264C53.2844 458.046 52.7309 457.05 52.1774 456.053C50.4062 456.053 48.5243 456.385 47.8601 454.171C47.3066 452.4 47.528 451.625 49.0778 450.408C50.6276 449.19 52.1774 447.862 53.5058 446.312C56.3841 442.991 59.2623 439.67 63.4689 438.009C65.5722 437.124 67.8969 436.681 70.2216 436.127C71.55 435.795 72.8784 435.685 74.5389 435.463C74.3175 434.467 74.2068 433.581 73.9854 432.585C73.6533 430.703 74.2068 429.043 75.5352 427.603C76.4208 426.718 77.6385 425.943 78.6348 426.829C79.4097 427.382 79.8525 428.71 79.9632 429.817C80.0739 430.814 79.5204 431.81 79.1883 433.138C87.6015 428.6 94.5756 423.065 99.5571 415.316C100.885 413.323 102.214 411.22 103.321 409.006C107.97 400.261 115.055 393.951 123.468 389.08C128.671 385.98 134.206 383.545 140.184 381.995C141.402 381.663 142.619 381.22 143.948 380.667C144.833 377.124 144.612 373.471 144.391 369.929C144.059 362.955 142.841 355.981 143.505 348.896C143.726 347.235 142.952 345.353 142.509 343.582C140.627 337.162 139.631 330.741 139.852 324.099C140.073 317.678 137.859 311.811 135.977 305.833C135.756 305.059 134.87 304.394 134.096 303.841C125.572 298.084 119.483 290.335 114.723 281.369C111.181 274.727 111.07 267.421 112.177 260.225C113.284 253.472 115.83 247.162 119.594 241.406C120.701 239.746 121.144 237.864 120.922 235.982C120.258 231.775 119.815 227.569 118.819 223.362C117.823 219.266 118.265 215.391 119.705 211.517C120.922 208.307 122.251 205.207 123.468 201.997C125.35 197.015 125.35 192.034 123.8 187.052C123.247 185.281 122.693 183.399 122.029 181.628C119.372 174.432 119.372 167.016 121.365 159.709C121.919 157.606 122.361 155.613 122.915 153.51C124.686 147.311 124.465 141.112 122.693 134.913C122.472 134.138 122.029 133.252 122.029 132.477C122.14 127.938 118.708 126.278 115.498 124.507C113.727 123.51 111.956 123.4 109.963 123.621C106.199 124.064 102.325 124.396 98.5608 124.507C94.9077 124.617 92.2509 122.957 90.8118 119.525C90.4797 118.861 89.8155 118.197 89.1513 117.865C80.1846 112.994 71.2179 108.234 61.587 104.581C56.052 102.477 53.6166 97.2746 55.4985 91.6289C56.6055 88.0865 58.4873 84.8762 60.2585 81.5552C67.122 69.0461 75.2031 57.3119 84.9447 46.7954C92.4723 38.6035 100.111 30.4118 106.863 21.445C108.302 19.5631 110.184 17.7919 112.066 16.2421C116.384 12.9211 119.926 9.04664 122.804 4.50794C124.907 1.18694 128.007 0.744141 131.328 0.744141C132.103 0.744141 133.099 1.18694 133.542 1.74044C137.749 6.38984 142.066 11.0392 142.841 17.6812C142.952 18.7882 143.062 20.0059 142.952 21.1129C142.619 23.2162 141.402 24.766 139.188 24.766C134.649 24.766 130.885 26.6479 127.121 29.0833C125.572 30.0796 123.579 30.5224 121.697 30.7438C119.372 30.9652 117.712 31.8509 116.273 33.6221C111.181 39.932 106.531 46.574 102.989 53.8802C99.0036 62.072 95.3505 70.4852 91.5867 78.7877C91.1439 79.6733 90.9225 80.5589 90.4797 81.6659C94.2435 82.5515 97.7859 83.4371 101.439 81.998C104.649 80.7803 108.192 80.6696 111.513 81.5552C117.491 83.105 123.136 82.2194 128.561 79.5626C132.767 77.4593 137.195 77.57 141.623 77.9021C142.619 78.0128 143.726 78.3449 144.612 78.7877C145.83 79.4519 147.047 79.4519 148.265 79.0091C149.704 78.5663 151.143 78.1235 152.582 78.1235C155.903 78.0128 159.114 78.0128 162.213 75.5774C162.656 73.8062 161.881 71.8136 160.774 69.821C159.557 67.8284 158.117 65.8358 157.343 63.7325C156.457 61.1864 155.461 58.6403 153.911 56.3156C153.247 55.2086 153.025 53.7695 152.582 52.4411C151.918 50.0057 151.254 47.5703 150.811 45.0242C150.479 43.6958 150.368 42.2567 150.368 40.9283C150.368 37.718 150.59 34.5077 150.479 31.4081C150.036 20.4487 158.892 11.2606 168.966 10.0429C171.955 9.71084 174.722 9.04664 177.601 7.93964C179.04 7.27544 180.922 7.27544 182.582 7.38614C185.018 7.60754 186.678 7.05404 187.896 4.95074C188.339 4.06514 189.114 3.40094 189.888 2.51534C191.66 4.72934 190.553 6.72194 190.663 9.15734C193.209 7.49684 195.423 6.05774 198.08 4.39724C198.634 8.05034 196.752 10.5964 195.645 13.4746C198.191 14.1388 200.184 12.1462 202.73 12.3676C202.951 14.803 200.737 15.7993 199.851 17.7919C201.623 19.231 203.505 20.7808 205.829 22.6627C203.837 23.1055 202.508 23.4376 200.958 23.7697C202.287 27.3121 201.955 31.2973 204.501 34.2863C205.054 34.8398 205.165 35.8361 205.276 36.7217C205.386 37.9394 205.719 38.825 206.715 39.5998C208.375 40.9283 208.043 43.0316 208.154 44.9135C208.486 51.5555 206.826 57.9761 205.829 64.5074C205.497 66.5 205.165 68.4926 204.833 70.4852C204.279 73.8062 203.394 77.1272 200.516 79.5626C203.172 81.4445 205.829 82.5515 208.929 82.6622C210.589 82.6622 212.361 82.6622 214.021 82.6622C217.674 82.7729 221.217 83.6585 224.095 86.0939C228.966 90.0791 234.168 93.5108 240.036 95.9462C243.799 97.496 246.456 100.374 249.113 103.363C250.995 105.466 252.877 107.68 254.537 109.452C258.965 108.787 263.061 107.68 267.157 107.791C277.563 108.012 287.083 110.78 294.5 118.75C297.6 122.071 299.924 125.835 301.253 130.152C302.028 132.699 303.467 134.802 305.459 136.352C308.338 138.676 311.326 140.89 314.205 143.326C315.644 144.543 317.194 145.761 318.301 147.311C320.736 150.521 320.736 154.728 317.968 157.606C314.315 161.37 310.33 165.023 306.124 168.233C303.91 169.894 300.921 170.779 298.153 171.222C292.397 172.329 286.64 173.658 280.884 173.547C275.902 173.436 270.921 174.322 265.939 174.211C251.88 173.879 242.692 166.573 236.936 154.396C235.94 152.403 235.497 150.189 234.943 148.086C234.722 147.2 234.39 146.315 233.947 144.654C232.951 150.743 230.294 155.392 227.748 160.041C226.419 162.588 225.866 165.244 225.977 168.012C226.087 173.104 226.198 178.196 225.977 183.288C225.755 187.384 224.98 191.48 224.538 195.576C224.538 196.019 224.316 196.462 224.427 196.794C224.648 201.111 223.763 205.207 222.656 209.414C220.884 215.945 220.331 222.587 220.331 229.34C220.442 237.974 219.113 246.498 217.01 254.911C216.346 257.568 216.014 260.336 215.792 263.103C215.571 265.76 214.132 267.088 211.586 266.203C208.375 264.985 205.386 265.207 202.065 266.756C202.619 267.421 203.062 268.085 203.726 268.528C209.704 273.066 215.792 277.605 221.77 282.254C225.202 284.911 228.523 287.789 231.622 290.778C232.84 291.885 233.394 293.546 234.39 294.874C235.054 295.76 235.829 296.645 236.715 297.31C241.585 300.852 246.456 304.505 250.552 309.044C254.98 313.915 256.308 319.45 255.644 325.87C255.091 331.184 253.098 335.944 249.777 340.04C248.67 341.368 247.563 342.586 246.235 343.693C239.593 348.896 232.951 354.209 226.198 359.302C219.113 364.615 212.028 369.818 204.944 375.021C199.409 379.117 194.759 383.988 190.442 389.301C186.567 394.061 182.25 398.489 178.376 403.36C176.272 406.017 174.612 409.006 172.841 411.884C171.734 413.766 170.848 415.759 172.176 418.083C172.619 418.747 172.287 419.965 172.176 420.851C171.844 422.954 171.512 425.057 170.848 427.05C169.852 430.039 170.627 432.696 171.955 435.352C173.173 437.677 174.39 440.113 175.497 442.548C175.94 443.655 176.715 444.762 176.604 445.869C176.383 448.415 177.933 449.965 179.372 451.736C181.032 453.729 182.804 455.5 184.464 457.492C187.121 460.592 188.781 464.134 187.785 468.341C187.232 470.776 186.346 472.88 183.8 474.208C182.471 474.872 181.697 476.533 180.59 477.64C179.15 479.079 177.269 479.19 176.162 477.751C175.608 476.865 175.608 475.537 175.165 474.098ZM111.181 438.895C110.516 439.116 109.742 439.227 109.077 439.559C101.66 443.434 96.0147 449.301 90.8118 455.611C90.7011 455.721 90.8118 455.943 90.9225 456.496C91.9188 456.607 93.0258 456.718 94.0221 456.718C98.5608 449.743 103.764 443.544 110.849 439.338C111.07 439.338 111.07 439.006 111.181 438.895C115.83 437.899 119.926 435.463 123.8 432.696C118.819 433.249 115.277 436.792 111.181 438.895ZM85.6089 437.013C89.8155 434.467 94.1328 432.031 98.3394 429.264C101.882 426.939 104.649 423.618 107.195 420.187C109.963 416.423 112.841 412.77 115.719 409.117C117.491 406.903 119.372 404.689 121.254 402.475C122.029 401.478 122.915 400.371 123.247 398.711C118.155 401.368 114.723 405.242 111.956 409.781C109.52 413.877 107.195 418.083 103.542 421.294C98.4501 425.943 93.1365 430.371 87.9336 434.91C87.1587 435.574 86.3838 436.349 85.6089 437.013C83.0628 438.452 80.5167 439.78 77.7492 441.22C78.0813 442.327 78.3027 443.323 78.6348 444.43C81.0702 441.773 83.2842 439.338 85.6089 437.013ZM155.903 408.784C155.571 409.449 155.239 410.002 154.907 410.777C155.793 411.331 156.568 411.773 157.564 412.327C158.56 409.006 161.217 407.235 163.431 405.242C171.069 398.157 178.154 390.408 183.578 381.442C189.335 372.143 194.538 362.512 201.291 353.877C201.733 353.324 201.844 352.549 202.398 351.442C196.088 354.541 192.545 359.302 189.667 364.837C185.018 373.914 179.925 382.77 173.062 390.519C168.08 396.054 163.21 401.7 158.228 407.235C157.564 408.01 156.568 408.452 155.793 409.117C159.003 405.353 162.103 401.478 165.424 397.714C172.508 389.744 179.372 381.663 184.464 372.253C186.457 368.379 188.56 364.615 190.774 360.741C193.099 356.755 196.198 353.656 200.184 351.442C201.069 350.888 202.176 350.667 203.505 350.224C203.615 352.881 202.287 354.32 201.18 355.759C196.641 362.069 192.102 368.379 188.449 375.242C182.472 386.534 174.39 396.165 165.092 405.021C163.431 406.57 161.771 408.01 160.221 409.67C158.007 411.995 158.339 412.991 161.328 414.319C161.549 414.43 161.881 414.43 162.435 414.541C163.32 413.655 164.427 412.77 165.313 411.773C171.844 404.356 178.044 396.607 183.468 388.416C185.903 384.652 188.449 380.999 191.217 377.456C195.091 372.696 199.187 368.047 203.505 363.619C205.497 361.626 208.043 360.187 210.479 358.637C211.254 358.084 212.25 357.752 213.246 359.302C212.25 360.63 211.143 362.18 209.925 363.508C199.63 373.582 190.11 384.32 181.475 395.722C180.811 396.607 180.147 397.493 179.483 398.379C180.147 398.489 180.479 398.379 180.7 398.047C183.136 395.168 185.571 392.401 187.896 389.523C193.099 382.77 199.077 376.792 206.161 371.811C212.914 367.051 219.556 362.069 226.198 357.198C227.194 356.423 228.08 355.648 229.408 354.652C222.656 352.992 216.899 350.224 211.807 346.35C206.715 342.475 202.398 337.715 198.523 332.734C197.97 333.066 197.637 333.287 197.305 333.619C192.324 338.49 187.01 343.139 181.254 347.235C180.258 348.01 179.261 348.896 178.486 349.892C177.269 351.553 176.051 353.324 175.055 355.206C171.623 361.958 168.855 369.043 164.759 375.353C160.11 382.438 154.354 388.748 149.04 395.39C147.601 397.161 146.162 398.932 144.612 400.814C145.387 402.142 146.051 403.249 146.937 404.91C147.933 403.692 148.487 402.807 149.261 402.032C151.918 399.264 154.575 396.497 157.343 393.84C163.099 388.416 167.527 382.216 171.069 375.242C174.501 368.6 178.154 362.18 181.918 355.759C183.025 353.767 184.796 352.106 186.457 350.446C187.453 349.449 188.892 348.785 190.553 349.56C190.995 350.999 190.885 352.217 189.446 353.102C189.667 352.217 189.778 351.331 190.11 349.781C188.449 350.667 187.232 350.999 186.346 351.774C185.018 352.992 183.8 354.431 182.914 355.87C179.261 362.069 175.497 368.268 172.287 374.689C168.191 382.881 162.878 390.076 156.125 396.165C153.025 398.932 150.147 402.142 147.269 405.021C148.044 406.128 148.597 406.903 148.819 407.345C151.033 405.021 152.804 403.028 154.907 401.257C160.442 396.386 165.534 391.183 169.409 384.873C172.841 379.117 176.051 373.25 179.15 367.383C181.475 363.065 183.689 358.748 187.453 355.648C186.899 356.645 186.235 357.641 185.682 358.527C183.911 361.405 182.029 364.283 180.368 367.161C179.15 369.265 178.265 371.589 177.158 373.693C171.291 384.873 164.206 395.168 154.243 403.139C153.579 403.692 153.025 404.246 152.361 404.91C150.036 407.235 150.258 408.342 153.247 410.224C154.354 409.449 155.129 409.117 155.903 408.784ZM214.021 254.358C214.242 254.358 214.575 254.358 214.796 254.358C214.796 253.915 214.907 253.362 214.796 252.919C214.132 248.491 213.578 244.063 212.693 239.746C211.918 235.76 211.254 231.775 211.586 227.679C211.807 224.912 212.139 222.144 212.361 219.377C212.914 211.96 211.918 204.875 207.933 198.565C205.386 194.359 202.73 190.263 199.851 186.388C193.542 177.753 187.121 169.34 180.811 160.816C177.379 156.167 173.837 151.739 169.187 148.197C166.531 146.204 163.985 144.211 161.438 142.108C156.125 137.791 152.804 132.256 150.701 125.835C150.147 124.175 150.036 122.293 150.147 120.522C150.258 118.64 151.697 117.975 153.357 119.082C154.243 119.636 154.907 120.522 155.571 121.296C157.896 123.732 159.999 126.499 162.545 128.713C166.641 132.145 169.63 136.241 171.955 141.001C173.283 143.769 175.055 146.315 176.826 148.861C178.929 151.96 181.143 154.949 181.918 158.713C182.029 159.267 182.361 159.931 182.804 160.374C186.457 165.355 190.11 170.337 193.763 175.207C198.412 181.407 203.172 187.606 207.6 193.916C213.135 201.775 215.46 210.521 214.132 220.152C213.8 222.808 213.689 225.465 213.468 228.122C212.803 235.318 215.349 242.07 216.346 249.376C216.789 248.712 217.01 248.491 217.01 248.269C217.563 242.956 218.449 237.753 218.449 232.439C218.449 223.251 219.224 214.174 221.659 205.318C223.098 199.783 222.877 194.359 220.552 189.045C218.338 183.842 217.01 178.418 216.456 172.772C215.903 165.466 212.693 159.709 206.604 155.392C203.283 152.957 200.184 150.189 197.084 147.311C195.645 145.983 194.538 144.211 193.431 142.551C192.877 141.665 192.324 140.558 193.209 139.673C194.206 138.676 195.202 139.562 196.088 140.115C196.641 140.448 197.084 140.89 197.637 141.333C201.623 144.433 205.719 147.532 209.704 150.743C212.693 153.067 215.571 155.613 217.563 159.045C219.667 162.698 220.331 166.794 220.995 170.89C221.881 176.314 222.766 181.739 223.541 187.163C223.763 187.163 223.984 187.163 224.205 187.163C224.316 183.731 224.427 180.189 224.427 176.757C224.427 173.879 224.095 171.001 223.984 168.123C223.873 165.134 224.427 162.145 225.866 159.488C228.855 154.174 231.401 148.75 232.287 142.662C232.397 142.219 232.508 141.887 232.729 141.444C235.054 137.127 234.833 132.588 234.168 128.049C233.504 123.953 233.726 119.968 234.611 115.983C236.05 109.009 236.161 102.035 233.947 95.6141C231.29 93.7322 228.744 92.0717 226.53 90.1898C222.213 86.426 217.563 84.3227 211.807 84.6548C208.043 84.8762 204.279 84.1013 201.291 81.7766C199.187 80.1161 197.195 80.2268 194.759 80.891C194.87 81.4445 194.87 81.8873 194.981 82.2194C197.416 88.64 195.977 94.2857 190.663 98.7137C190.221 99.0458 189.778 99.3779 189.446 99.71C187.232 101.703 184.796 101.924 182.029 100.928C180.147 100.263 178.265 99.4886 176.272 99.0458C170.959 97.8281 167.084 94.7285 164.095 90.4112C161.771 87.0902 159.557 83.5478 157.121 79.5626C154.796 80.0054 152.14 80.3375 149.483 81.0017C147.49 81.4445 145.83 81.6659 144.059 80.3375C142.952 79.4519 141.512 79.1198 139.852 79.784C140.295 80.3375 140.516 80.7803 140.848 81.0017C144.169 84.3227 145.276 88.1972 143.948 92.6252C142.509 97.3853 141.955 102.145 141.623 107.127C141.291 112.108 140.295 116.758 137.084 121.075C132.214 127.717 131.439 135.355 133.321 143.326C134.981 150.3 136.642 157.163 138.413 164.027C141.18 174.875 141.402 185.613 137.417 196.351C136.42 199.008 135.535 201.775 134.649 204.543C133.653 207.864 133.321 211.185 134.206 214.617C135.203 218.491 135.867 222.476 136.642 226.462C136.752 227.236 136.642 228.122 136.642 228.897C135.756 228.122 135.424 227.236 135.203 226.351C134.206 222.587 133.321 218.713 132.324 214.949C131.328 211.074 131.549 207.421 132.767 203.657C133.542 201.333 134.206 199.008 135.092 196.683C139.077 186.72 139.52 176.646 137.195 166.351C135.535 159.267 133.763 152.292 132.214 145.318C130.442 137.348 130.332 129.488 134.76 122.182C134.87 122.071 134.76 121.85 134.649 121.407C130.664 124.064 127.454 127.828 122.251 128.381C122.804 130.374 123.247 132.034 123.8 133.695C126.457 141.112 126.679 148.639 124.575 156.278C124.243 157.495 123.911 158.713 123.579 159.931C121.476 167.569 121.365 175.207 124.243 182.735C124.797 184.174 125.129 185.835 125.682 187.274C127.343 192.698 127.232 198.012 125.129 203.214C124.022 205.982 122.804 208.749 121.919 211.517C121.144 213.952 120.479 216.388 120.037 218.934C119.815 220.816 119.926 222.698 121.697 224.137C126.014 227.569 130.664 230.225 136.31 230.89C142.287 231.664 147.269 234.321 151.254 238.749C154.796 242.624 159.224 244.838 164.206 245.834C173.726 247.827 182.25 252.033 189.888 257.9C192.767 260.114 195.866 261.886 198.966 263.767C200.737 264.874 202.73 265.207 204.722 264.321C206.826 263.546 208.818 263.546 210.921 264.432C211.807 264.764 212.914 264.874 214.464 265.207C214.242 263.103 214.242 261.553 213.91 260.004C212.693 253.03 211.586 245.945 210.257 238.971C209.372 234.764 208.597 230.336 206.936 226.351C202.176 214.838 195.202 204.764 186.346 195.908C184.132 193.694 181.475 191.702 179.593 189.156C173.837 181.628 168.302 173.99 162.878 166.241C160.221 162.366 157.343 158.713 153.911 155.503C151.586 153.399 149.372 151.407 147.047 149.304C144.723 147.2 142.73 144.876 141.845 141.776C141.734 141.222 141.845 140.669 141.955 139.673C142.841 140.337 143.505 140.78 143.948 141.222C148.487 145.65 153.025 150.189 157.675 154.506C164.759 161.038 171.069 168.123 174.833 177.2C177.269 183.067 180.257 188.491 185.239 192.698C185.903 193.251 186.457 193.916 187.01 194.58C193.431 201.001 198.855 208.196 203.615 215.945C208.597 224.026 211.696 232.661 212.361 242.292C212.471 246.055 213.468 250.151 214.021 254.358ZM90.0369 83.3264C89.7048 84.8762 89.5941 85.9832 89.262 87.2009C88.8192 89.0828 87.8229 89.9684 86.9373 89.6363C85.941 89.3042 85.7196 88.0865 86.4945 86.3153C87.2694 84.6548 88.2657 83.2157 89.0406 81.5552C94.0221 70.8173 98.8929 60.1901 103.985 49.4522C106.974 43.0316 111.513 37.6073 115.83 32.0723C117.048 30.5224 118.708 29.8582 120.812 29.6368C123.026 29.3047 125.35 28.5298 127.454 27.6442C130.332 26.4265 132.546 24.3232 134.317 21.6664C135.756 19.5631 136.31 19.6738 138.745 21.2236C137.527 22.1092 136.42 22.8841 135.313 23.659C136.531 23.9911 137.638 23.9911 138.634 23.7697C140.848 23.3269 141.512 22.552 141.734 20.338C141.845 19.4524 141.623 18.6775 141.512 17.7919C140.848 12.6997 137.749 8.82524 134.76 4.95074C132.214 1.74044 130.885 1.29764 127.121 2.84744C125.904 3.29024 124.907 4.39724 124.133 5.50424C121.144 9.82154 117.712 13.696 113.616 17.017C110.849 19.231 108.524 22.1092 106.088 24.766C102.435 28.9727 99.1143 33.6221 95.2398 37.718C83.9484 49.4522 73.4319 61.8506 65.0187 75.9095C62.0298 80.891 59.1515 85.9832 56.9375 91.4075C54.7235 96.8318 57.1589 101.592 62.5833 103.806C63.1368 104.027 63.801 104.249 64.3545 104.47C70.1109 107.016 75.978 109.23 81.513 112.108C87.3801 115.208 93.0258 118.75 99.5571 120.522C101.882 118.861 102.767 117.754 103.542 114.322C105.092 107.57 105.314 100.596 104.76 93.7322C104.317 88.9721 101.882 85.319 96.7896 84.212C94.6863 83.6585 92.4723 83.5478 90.0369 83.3264ZM202.287 33.8435C201.844 32.183 201.291 30.6331 201.18 29.0833C201.069 25.4302 199.519 22.9948 196.088 21.5557C195.202 21.2236 194.538 20.7808 193.431 21.1129C190.663 22.1092 187.785 21.9985 184.907 21.5557C183.689 21.3343 182.139 21.6664 180.922 22.1092C178.265 23.2162 175.829 24.766 173.283 25.9837C165.313 30.0796 163.21 34.9505 166.088 43.4744C166.42 44.36 166.752 45.2456 167.084 46.1312C167.306 46.7954 167.527 47.5703 167.748 48.2345C168.08 50.1164 167.527 51.5555 166.088 52.3304C164.759 52.9946 163.652 52.5518 162.435 50.7806C161.217 49.1201 160.221 47.4596 159.003 45.7991C157.564 44.0279 156.236 43.8065 154.796 45.467C154.022 46.3526 153.357 47.7917 153.579 48.788C153.911 51.1127 154.575 53.3267 155.461 55.5407C155.903 56.7584 157.121 57.7547 158.228 58.5296C160.664 60.0794 163.21 61.2971 165.756 62.6255C165.977 62.7362 166.309 62.6255 166.863 62.6255C166.863 61.1864 166.863 59.858 166.863 58.5296C167.527 59.3045 167.859 60.0794 167.97 60.8543C168.08 61.4078 168.08 61.9613 168.08 62.4041C167.97 64.286 167.084 64.8395 165.313 64.0646C164.206 63.6218 163.21 62.8469 161.992 62.1827C162.103 63.7325 162.435 65.0609 162.324 66.2786C162.213 68.4926 162.767 70.3745 163.542 72.4778C164.095 73.8062 164.095 75.4667 163.874 76.7951C163.542 79.0091 163.874 80.891 165.202 82.4408C167.859 85.5404 170.516 88.5293 173.394 91.4075C175.165 93.1787 177.49 94.0643 180.036 93.9536C182.139 93.9536 184.243 93.9536 186.457 93.9536C189.446 93.9536 189.999 93.5108 190.221 90.5219C190.442 87.533 191.106 84.8762 192.656 82.4408C192.988 81.7766 193.209 81.1124 193.431 80.3375C188.781 79.1198 184.353 77.9021 179.815 76.6844C176.715 75.7988 173.837 74.4704 171.401 72.3671C169.409 70.5959 167.97 68.4926 167.859 65.7251C168.413 66.1679 168.745 66.6107 169.077 67.1642C171.069 71.2601 174.612 73.4741 178.818 74.9132C182.582 76.1309 186.346 77.2379 190.11 78.1235C192.213 78.677 194.538 78.8984 196.752 78.8984C200.516 79.0091 202.065 77.6807 203.283 74.0276C203.615 73.142 203.837 72.1457 203.947 71.2601C205.054 65.2823 205.94 59.3045 207.268 53.4374C208.265 48.8987 206.383 45.0242 204.944 40.9283C203.837 41.1497 203.172 41.2604 202.398 41.3711C203.837 45.1349 203.394 47.0168 200.848 46.7954C203.172 44.5814 203.172 43.6958 200.737 41.5925C198.855 39.932 198.302 37.8287 198.191 35.1718C199.519 34.729 200.848 34.2863 202.287 33.8435ZM119.483 244.284C118.376 246.83 117.158 249.155 116.384 251.701C112.841 261.664 111.734 271.738 116.605 281.479C120.369 289.007 125.682 295.538 132.546 300.741C138.081 304.837 144.391 307.383 150.811 309.708C156.568 311.811 161.881 314.689 166.531 318.564C172.619 323.435 179.15 327.531 186.235 330.741C187.453 331.294 188.56 331.737 189.778 330.852C191.106 329.855 191.549 328.527 191.327 326.977C190.995 325.206 190.221 323.324 190.442 321.664C190.995 317.014 188.117 315.132 184.575 313.472C184.243 313.25 183.8 313.14 183.468 312.918C179.15 311.036 175.276 308.269 172.066 304.837C167.527 299.856 162.213 295.76 156.346 292.439C150.368 289.007 145.166 284.8 140.959 279.265C138.191 275.612 134.87 272.402 131.328 269.635C129.557 268.306 128.007 266.646 126.568 264.985C123.911 261.996 121.919 258.454 122.14 254.358C122.361 250.816 121.697 247.827 119.926 244.838C119.926 244.727 119.815 244.727 119.483 244.284ZM124.022 249.709C123.468 253.804 123.8 257.9 126.457 261.221C128.339 263.767 130.442 266.203 132.989 268.195C136.974 271.406 140.516 275.059 143.726 279.044C147.047 283.251 151.033 286.793 155.682 289.45C162.988 293.656 169.741 298.527 175.608 304.726C177.822 307.051 180.811 308.712 183.468 310.594C185.46 311.922 187.674 313.029 189.778 314.247C190.331 314.579 190.995 314.911 191.438 314.8C193.874 314.247 195.756 315.686 197.637 316.682C198.523 317.236 199.409 317.9 200.294 318.453C201.733 319.228 202.84 318.453 202.73 316.793C202.176 311.811 201.401 306.94 200.848 301.959C200.737 300.741 200.184 300.077 199.077 299.634C193.209 297.531 188.892 293.324 184.575 289.007C179.593 284.026 174.612 279.155 169.298 274.505C165.756 271.406 161.66 268.749 157.785 265.981C152.361 261.886 147.712 257.236 145.719 250.483C145.608 249.93 145.276 249.487 145.055 249.044C137.859 246.941 131.107 247.937 124.022 249.709ZM147.158 249.709C149.04 254.801 151.808 258.675 155.793 261.664C159.778 264.764 163.874 267.753 167.97 270.852C174.722 275.944 180.368 282.144 186.235 288.121C189.667 291.664 193.209 295.096 197.859 296.867C203.947 299.191 209.925 301.627 214.242 306.94C220.11 302.291 227.084 299.856 232.84 294.874C231.954 293.767 231.29 292.66 230.294 291.885C226.198 288.454 222.102 285.022 217.896 281.922C211.918 277.494 205.719 273.288 200.516 268.085C199.63 267.199 198.966 265.981 197.859 265.317C193.984 262.993 190.663 259.893 186.125 258.565C181.365 257.236 176.715 254.911 171.734 254.579C164.317 254.026 157.232 252.476 150.258 250.373C149.372 250.041 148.376 249.93 147.158 249.709ZM191.77 316.239C191.328 320.003 192.545 323.324 193.209 326.534C193.32 327.088 194.427 327.752 195.091 327.752C197.637 327.863 200.184 328.195 202.619 327.088C206.051 325.538 209.261 326.313 212.25 328.416C213.689 329.523 214.907 330.852 216.346 331.959C218.56 333.841 220.442 336.055 222.877 337.494C228.08 340.483 233.615 342.918 239.039 345.575C246.013 342.143 250.884 336.829 253.098 329.413C255.201 322.106 254.537 315.243 248.67 309.708C243.91 305.169 238.929 300.852 234.058 296.424C231.29 298.195 228.966 300.077 226.309 301.405C218.781 305.169 212.582 310.594 206.604 316.461C205.386 317.678 204.169 318.785 204.058 320.667C204.058 320.999 203.726 321.331 203.505 321.885C203.283 321.221 203.062 320.778 202.84 320.224C200.848 320.667 199.187 320.003 197.637 318.675C195.977 317.568 194.316 316.461 191.77 316.239ZM100.553 83.6585C105.092 87.2009 106.531 91.6289 106.531 96.6104C106.531 101.149 106.31 105.798 105.867 110.337C105.424 115.208 103.985 119.747 99.5571 122.625C99.4464 122.625 99.5571 122.957 99.6678 123.51C102.325 123.289 105.092 123.178 107.749 122.736C111.513 122.182 115.166 122.293 118.376 124.839C121.144 127.053 124.133 126.61 126.9 124.839C128.118 124.064 129.225 122.957 130.442 122.071C131.882 121.075 133.321 119.857 134.981 119.193C137.638 118.086 138.856 116.094 139.298 113.326C139.631 111.112 139.852 108.898 140.073 106.684C140.405 102.145 140.738 97.6067 142.177 93.1787C143.837 88.3079 142.509 84.212 138.856 80.7803C137.97 80.0054 137.195 79.5626 136.088 79.5626C133.431 79.4519 131.107 80.4482 128.782 81.4445C123.247 83.9906 117.491 84.7655 111.402 83.105C107.86 81.998 104.317 82.2194 100.553 83.6585ZM188.781 333.619C181.586 330.962 174.722 327.863 168.745 323.103C162.213 317.9 155.35 313.361 147.49 310.594C144.944 309.708 142.398 308.38 139.852 307.383C139.077 307.051 138.191 306.719 137.084 306.276C137.306 307.162 137.417 307.715 137.638 308.158C140.295 314.8 141.512 321.774 141.402 328.97C141.291 335.169 143.505 340.925 144.833 347.235C145.608 346.571 146.051 346.35 146.273 345.907C149.04 341.922 153.025 341.59 157.896 343.693C159.778 344.468 161.549 345.796 163.32 347.014C166.531 349.449 169.852 351.663 173.726 353.434C176.162 349.228 179.593 345.907 183.468 343.029C185.018 341.922 186.346 340.483 187.785 339.265C189.999 337.604 190.221 335.722 188.781 333.619ZM133.985 385.537C131.439 386.866 129.335 387.862 127.343 388.969C120.258 392.844 113.616 397.272 108.856 403.803C106.753 406.681 104.871 409.781 103.1 412.991C97.5645 422.954 89.4834 430.039 79.4097 434.91C78.6348 435.242 77.9706 435.685 77.1957 436.127C77.3064 437.345 77.4171 438.452 77.6385 440.002C79.5204 439.006 81.0702 438.341 82.3986 437.345C86.9373 433.803 91.476 430.26 95.904 426.607C101.993 421.626 107.306 415.759 111.07 408.784C113.395 404.467 116.826 400.925 121.144 398.379C122.251 397.714 123.468 396.829 125.129 397.604C124.907 398.268 124.907 399.043 124.575 399.596C123.579 401.146 122.693 402.696 121.476 404.024C116.273 410.334 110.627 416.312 106.199 423.175C104.649 425.611 102.214 427.603 99.8892 429.375C96.0147 432.142 91.8081 434.467 87.9336 437.234C85.3875 439.116 83.0628 441.33 80.7381 443.434C80.0739 444.098 79.1883 444.983 80.406 446.312C81.513 445.648 82.7307 444.983 83.8377 444.208C88.155 441.33 92.3616 438.231 96.7896 435.463C105.646 429.707 113.616 422.843 120.369 414.652C121.808 412.88 123.358 411.109 125.018 409.449C125.793 408.674 126.789 408.231 127.786 407.567C128.782 409.117 128.339 410.224 127.675 411.22C126.9 412.438 126.014 413.766 125.018 414.762C120.922 418.858 116.937 422.954 112.62 426.718C103.874 434.467 95.3505 442.548 85.2768 448.636C84.834 448.858 84.2805 449.19 84.0591 449.633C83.727 450.297 83.5056 451.183 83.727 451.625C84.0591 452.068 85.1661 452.29 85.6089 452.068C86.8266 451.404 87.9336 450.629 88.9299 449.633C94.5756 444.098 100.996 439.559 107.97 435.795C112.73 433.249 117.38 430.703 120.922 426.496C121.365 425.057 121.919 423.508 122.693 422.179C124.133 419.744 125.572 417.198 127.232 414.873C128.893 412.548 130.664 410.334 132.656 408.231C134.206 406.681 136.088 405.463 137.638 404.356C137.417 401.921 137.638 399.486 136.752 397.604C135.313 394.061 134.538 390.076 133.985 385.537ZM172.841 355.095C172.508 354.874 171.844 354.32 171.18 353.877C167.859 351.663 164.427 349.449 160.996 347.346C159.778 346.571 158.56 345.575 157.121 345.132C152.25 343.25 149.594 343.582 147.269 347.125C146.605 348.232 145.276 349.006 144.169 350.113C144.833 357.752 145.94 365.501 146.051 373.36C146.162 381.22 145.276 388.969 144.723 397.272C156.457 384.43 166.752 371.368 172.841 355.095ZM275.902 164.58C277.674 167.016 278.559 167.569 281.548 168.123C284.98 168.897 288.522 169.119 291.954 168.787C293.393 168.676 295.054 168.344 295.275 170.558C298.817 169.783 302.581 169.672 305.349 167.348C309.334 164.027 313.208 160.484 316.861 156.831C319.408 154.174 319.408 151.075 317.194 148.086C315.865 146.315 314.315 144.654 312.544 143.326C307.12 139.341 301.917 135.134 298.264 129.378C297.821 128.713 297.268 127.938 296.603 127.496C295.939 127.053 294.943 126.61 294.389 126.831C293.836 127.053 293.393 128.16 293.172 128.824C293.061 129.488 293.172 130.374 293.504 131.038C295.496 135.023 297.489 139.008 299.592 142.994C300.367 144.543 301.363 145.872 303.577 145.429C304.684 145.208 305.902 145.872 305.902 147.422C305.902 148.418 304.795 148.75 303.024 148.086C302.028 147.754 301.253 147.09 300.035 147.754C298.042 148.971 295.939 148.529 293.836 148.197C290.293 147.643 286.64 147.311 283.098 146.979C282.434 146.868 281.77 146.979 281.216 147.09C279.334 147.643 278.891 149.082 280.33 150.3C281.437 151.296 282.766 152.182 284.094 152.514C289.186 153.842 294.389 154.839 299.592 156.056C301.253 156.388 302.913 156.499 304.02 158.27C302.581 159.709 301.142 158.824 299.814 158.492C297.71 157.938 295.607 156.942 293.504 156.61C289.076 155.946 284.648 155.503 280.22 155.06C278.891 154.949 277.452 154.839 276.456 156.278C277.231 158.27 279.113 158.602 280.773 159.045C283.984 159.931 287.415 160.706 290.626 161.591C293.172 162.366 295.607 163.252 298.375 163.03C299.482 162.92 300.921 163.03 301.474 164.802C300.035 165.576 298.817 165.355 297.378 165.023C296.05 164.691 294.721 164.248 293.393 164.248C288.854 164.137 284.205 164.137 279.666 164.137C278.67 164.248 277.563 164.359 275.902 164.58ZM169.741 18.4561C169.63 20.0059 172.176 19.8952 171.291 21.6664C167.306 22.4413 165.866 22.1092 163.874 20.0059C165.424 20.2273 166.752 20.4487 168.413 20.7808C167.638 19.5631 167.195 18.8989 166.531 17.7919C169.187 17.2384 171.401 16.6849 173.726 16.1314C173.726 15.91 173.726 15.7993 173.726 15.5779C172.951 15.2458 172.066 15.0244 171.069 14.6923C172.398 13.5853 173.394 12.6997 174.501 11.7034C172.508 11.3713 170.737 11.482 168.966 11.7034C160.331 12.9211 151.808 20.2273 152.029 30.9653C152.14 34.5077 152.029 37.9394 152.029 41.4818C152.029 42.6995 152.25 43.9172 152.472 45.2456C157.896 41.9246 158.56 42.146 162.103 47.4596C162.324 47.681 162.435 48.0131 162.656 48.2345C163.431 49.3415 164.206 50.4485 164.981 51.4448C166.973 49.7843 167.084 49.7843 166.641 48.2345C166.088 46.1312 165.424 44.1386 164.87 42.146C162.767 34.5077 165.313 28.7512 172.398 25.2088C174.722 23.9911 177.269 22.9948 179.483 21.5557C181.697 20.1166 183.911 19.6738 186.457 20.2273C190.995 21.2236 194.87 19.6738 198.412 17.017C199.298 16.3528 199.962 15.5779 201.18 14.4709C198.08 14.3602 195.756 16.0207 192.988 14.4709C195.534 12.3676 197.084 10.0429 197.305 6.61124C194.649 8.49314 192.435 10.2643 189.335 11.0392C189.556 9.04664 189.778 7.27544 190.11 5.17214C187.896 7.27544 186.014 9.04664 184.021 10.8178C184.132 10.1536 184.243 9.60014 184.353 9.15734C178.708 7.60754 177.047 9.37874 175.165 13.696C176.494 13.5853 177.711 13.5853 179.704 13.3639C176.272 16.7956 173.173 18.0133 169.741 18.4561ZM138.524 441.884C139.631 442.88 140.738 443.544 141.512 444.541C142.73 446.201 144.28 446.644 146.162 446.533C151.365 446.422 156.568 447.197 161.66 448.194C165.424 448.969 169.298 449.19 173.615 448.747C172.176 448.526 171.291 448.415 170.405 448.083C169.63 447.862 168.634 447.64 168.08 447.087C167.527 446.533 167.527 445.537 167.195 444.762C165.977 444.651 164.759 444.651 162.878 444.541C163.763 442.991 164.317 441.994 164.981 440.887C164.206 440.887 163.763 440.887 163.21 440.887C161.992 440.887 160.774 440.887 160.331 439.448C159.889 438.12 161.106 437.677 161.881 437.013C161.992 436.902 161.992 436.681 161.992 436.349C161.217 436.349 160.442 436.459 159.778 436.349C159.114 436.238 158.228 435.795 158.007 435.352C157.896 434.799 158.339 433.913 158.782 433.471C159.667 432.696 160.774 432.031 162.324 431.035C160.664 430.814 159.335 430.703 158.228 430.371C157.564 430.15 156.789 429.596 156.678 429.043C156.568 428.6 157.232 427.714 157.675 427.382C158.339 426.939 159.114 426.718 159.557 426.496C154.575 424.504 149.483 422.401 144.391 420.408C141.18 419.08 138.302 417.308 136.531 414.319C136.42 414.098 136.088 414.098 135.645 413.987C135.424 418.194 136.642 421.847 137.859 425.611C139.409 430.924 140.295 436.238 138.524 441.884ZM185.792 256.572C185.018 255.908 184.353 255.465 183.8 255.022C177.933 250.926 171.401 248.491 164.427 247.273C158.45 246.166 153.136 243.731 148.929 239.081C145.498 235.207 141.07 233.104 135.867 232.439C134.981 232.329 134.206 232.107 133.321 231.997C129.668 231.443 126.457 230.004 123.579 227.679C122.804 227.015 121.919 226.462 120.701 225.576C120.812 226.572 120.922 227.236 121.033 227.79C121.697 232.329 122.583 236.757 121.586 241.406C120.479 246.055 122.693 248.491 127.343 247.273C133.874 245.613 140.405 246.055 146.826 247.716C152.14 249.155 157.453 250.705 162.878 251.812C170.294 253.251 178.044 253.583 185.128 256.793C185.239 256.904 185.35 256.793 185.792 256.572ZM82.7307 464.024C72.657 460.039 68.1183 452.179 65.9043 442.216C64.4652 444.541 64.2438 447.087 63.9117 449.522C63.2475 455.057 62.9154 460.703 59.0409 465.463C61.0335 467.788 62.8046 470.002 64.6866 472.216C65.1294 472.658 65.6829 473.101 66.2364 473.212C71.2179 474.319 75.0924 477.197 78.4134 480.961C79.8525 482.621 81.6237 484.06 84.0591 484.503C84.6126 483.839 85.2768 483.175 85.8303 482.511C85.4982 482.289 85.3875 482.068 85.1661 481.957C84.3912 481.514 83.1735 481.182 82.9521 480.629C82.5093 479.3 83.8377 478.968 84.834 478.526C85.0554 478.415 85.1661 478.083 85.2768 477.972C84.5019 477.308 83.727 476.865 82.5093 475.979C84.0591 475.094 85.1661 474.319 86.3838 473.655C85.8303 473.433 85.3875 473.212 84.834 473.101C84.2805 472.88 83.6163 472.769 83.0628 472.437C81.8451 471.551 81.9558 470.334 83.2842 469.78C84.1698 469.448 85.1661 469.227 86.3838 468.895C81.8451 466.57 81.8451 466.57 82.7307 464.024ZM150.811 448.194C150.701 448.415 150.701 448.636 150.59 448.858C153.136 451.515 156.014 453.95 158.339 456.828C165.534 465.795 175.165 468.784 186.235 468.452C187.453 464.467 185.793 461.478 183.357 458.821C180.922 456.053 178.376 453.286 175.719 450.186C167.527 451.736 159.224 448.969 150.811 448.194ZM245.792 145.54C245.792 147.422 246.013 149.414 245.792 151.296C245.238 154.728 246.567 157.163 249.002 159.267C251.548 161.481 253.873 163.916 256.198 166.019C259.962 164.802 263.172 163.805 266.493 162.698C266.493 160.374 266.382 158.381 266.493 156.388C266.714 153.289 266.161 150.853 263.504 148.639C261.069 146.647 259.076 144.101 257.083 141.887C253.209 143.215 249.777 144.322 245.792 145.54ZM284.205 122.182C282.877 119.968 281.77 118.086 280.663 116.094C279.445 113.769 277.563 112.662 275.017 112.662C271.142 112.551 267.157 112.662 263.836 112.662C261.401 115.429 259.408 117.865 257.305 120.3C259.297 123.4 261.179 126.278 263.061 129.267C265.165 129.267 267.046 129.267 268.928 129.267C270.921 129.267 272.913 129.488 275.017 129.488C275.902 129.488 276.899 129.045 277.563 128.492C279.777 126.499 281.88 124.396 284.205 122.182ZM256.862 121.407C254.869 121.407 253.32 121.407 251.77 121.407C246.788 121.629 246.788 121.629 244.353 126.167C243.91 127.053 243.357 127.828 243.024 128.713C241.917 131.592 240.921 134.47 240.146 136.794C242.25 139.562 244.021 141.776 245.903 144.322C249.334 143.215 252.655 142.108 255.644 141.112C256.641 138.787 257.415 136.905 258.301 135.134C258.965 133.695 259.74 132.256 260.626 130.927C261.511 129.599 261.401 128.381 260.515 127.164C259.187 125.392 257.969 123.289 256.862 121.407ZM285.201 122.846C282.434 125.392 279.998 127.717 277.784 129.71C278.449 134.691 279.002 139.23 279.556 144.101C281.659 144.654 284.094 145.318 286.53 145.872C289.408 146.425 292.397 146.757 295.275 147.422C297.046 147.864 298.596 147.754 299.924 146.425C297.489 142.44 295.054 138.676 292.95 134.58C292.065 132.92 292.065 130.927 291.733 129.045C291.622 128.16 291.733 127.164 291.733 126.167C289.629 125.06 287.526 124.064 285.201 122.846ZM72.5463 477.751C73.4319 482.621 73.764 486.828 74.9817 490.924C77.3064 499.116 83.1735 503.876 91.0332 504.761C92.8044 504.983 93.9114 504.429 94.4649 502.769C95.4612 500.223 95.7933 497.566 95.0184 495.02C94.1328 492.363 93.0258 489.706 92.1402 487.049C88.3764 486.939 84.5019 487.271 81.4023 485.278C78.4134 483.064 75.8673 480.518 72.5463 477.751ZM236.825 128.16C240.921 120.743 246.235 114.654 253.209 110.78C251.548 108.898 250.109 107.238 248.559 105.577C246.899 103.806 245.238 101.924 243.467 100.374C241.253 98.3816 238.707 97.0532 235.386 96.0569C237.932 101.592 237.932 107.016 237.379 112.44C237.157 114.654 236.715 116.868 236.382 119.082C236.161 122.071 236.05 125.06 236.825 128.16ZM267.821 162.698C270.146 163.695 272.36 164.691 274.685 165.687C275.46 163.584 277.12 163.03 279.113 163.141C281.659 163.252 284.205 163.252 286.751 163.362C287.858 163.362 288.965 163.362 290.072 163.362C289.076 162.477 288.079 162.145 286.972 161.813C284.648 161.259 282.212 160.816 279.888 160.041C278.449 159.599 277.12 158.602 275.902 157.606C274.906 156.72 275.238 155.503 276.345 154.949C277.452 154.507 278.781 154.174 279.998 154.174C281.77 154.174 283.541 154.396 285.312 154.617C284.426 153.953 283.541 153.732 282.655 153.289C281.88 152.957 281.216 152.514 280.441 152.071C277.231 150.078 277.231 148.529 280.33 146.204C280.441 146.093 280.441 145.872 280.552 145.097C279.334 145.208 278.116 145.097 277.231 145.54C274.021 147.311 270.921 149.414 267.932 151.296C267.821 155.171 267.821 158.934 267.821 162.698ZM185.682 469.669C183.911 469.669 182.471 469.78 181.032 469.669C172.951 469.227 165.866 466.459 160.221 460.703C156.789 457.16 153.357 453.397 150.036 449.633C148.597 447.972 147.158 447.64 144.944 448.415C147.601 452.4 149.926 456.385 152.804 459.817C157.121 465.131 163.32 468.009 169.298 470.887C173.283 472.769 177.711 472.99 182.029 472.769C183.8 472.769 185.239 472.216 185.682 469.669ZM143.062 401.7C142.398 402.696 142.066 403.471 141.512 404.135C139.409 406.238 139.852 408.452 141.291 410.556C142.509 412.216 144.059 413.766 145.83 414.984C150.701 418.415 156.346 419.965 162.213 420.408C165.202 420.629 168.08 420.187 171.069 418.858C170.848 418.194 170.627 417.53 170.516 416.866C161.328 418.083 149.261 411.441 143.062 401.7ZM134.206 409.338C133.21 410.334 131.992 411.22 131.217 412.438C129.557 414.873 128.228 417.53 126.679 420.076C125.572 421.958 125.572 423.84 126.568 425.5C127.896 427.603 129.557 429.596 131.217 431.478C132.656 433.138 134.428 434.578 136.088 436.127C136.531 436.57 137.195 437.013 138.081 437.677C138.081 436.46 138.191 435.685 138.081 435.02C137.417 431.589 136.863 428.157 135.867 424.836C134.317 419.854 133.431 414.873 134.206 409.338ZM177.158 152.182C176.604 151.296 176.383 150.853 176.051 150.521C172.951 147.09 170.848 142.994 168.745 138.898C167.306 136.02 165.313 133.473 162.878 131.481C159.557 128.713 156.346 125.724 154.022 121.961C153.468 121.186 152.582 120.632 151.697 119.747C151.033 122.403 151.697 124.285 152.472 126.167C155.018 132.699 159.335 137.791 164.87 142.108C168.745 145.208 172.619 148.529 177.158 152.182ZM76.0887 437.124C75.3138 437.013 74.9817 437.013 74.5389 437.013C70.8858 437.345 69.7788 438.563 70.3323 442.105C70.5537 443.323 70.8858 444.541 71.4393 445.758C73.3212 450.076 76.4208 453.397 79.7418 456.496C82.7307 459.264 86.3838 460.481 90.369 461.035C92.583 461.367 93.1365 460.703 93.1365 458.267C92.9151 458.157 92.6937 458.157 92.583 458.046C92.2509 458.046 91.9188 458.046 91.5867 457.935C86.7159 457.492 83.0628 455.278 80.2953 451.183C77.5278 446.976 75.978 442.437 76.0887 437.124ZM161.992 77.7914C158.892 78.677 158.339 79.3412 159.889 81.5552C162.324 85.319 164.87 88.9721 167.638 92.4038C169.52 94.7285 172.176 96.1676 175.055 97.0532C177.49 97.7174 179.925 98.7137 182.361 99.3779C183.689 99.71 185.46 99.9314 186.678 99.3779C192.988 96.6104 195.534 90.854 193.652 83.7692C193.32 84.212 192.877 84.4334 192.877 84.7655C192.324 86.6474 191.77 88.64 191.438 90.6326C190.885 94.3964 190.11 95.282 186.457 95.3927C184.464 95.3927 182.361 95.3927 180.368 95.5034C177.047 95.6141 174.058 94.6178 171.734 92.2931C169.52 90.0791 167.306 87.6437 165.202 85.319C163.32 83.105 161.881 80.7803 161.992 77.7914ZM67.122 475.537C68.0076 479.411 68.8932 483.286 69.8895 487.16C71.55 493.138 73.9854 498.784 78.0813 503.544C80.5167 506.311 83.6163 507.529 87.1587 507.529C88.3764 507.529 89.8155 507.418 90.7011 505.979C90.1476 505.758 89.7048 505.536 89.3727 505.536C82.0665 504.429 77.1957 500.444 74.5389 493.581C72.8784 489.374 72.3249 484.946 71.9928 480.518C71.8821 476.644 71.1072 476.09 67.122 475.537ZM222.102 186.388C221.217 180.964 220.11 175.539 219.445 170.115C218.449 160.816 213.8 154.174 205.94 149.304C202.951 147.532 200.516 144.876 197.748 142.662C196.641 141.776 195.534 140.89 194.427 140.005C194.206 141.112 194.316 141.776 194.759 142.329C195.977 143.769 197.084 145.318 198.523 146.536C201.844 149.304 205.276 152.071 208.707 154.617C213.468 158.27 216.567 162.92 217.453 168.897C217.785 170.669 218.006 172.44 218.228 174.211C219.003 178.528 219.888 182.735 222.102 186.388ZM138.413 406.46C136.31 407.235 136.42 408.674 136.531 410.002C136.863 413.434 138.524 416.091 141.512 417.64C144.612 419.301 147.933 420.519 151.033 421.958C157.01 424.725 163.21 425.611 169.741 423.729C169.962 422.954 170.073 422.179 170.294 421.404C170.294 421.404 170.184 421.294 169.962 421.072C169.63 421.072 169.077 421.183 168.634 421.294C159.224 423.286 150.701 421.183 143.173 415.316C140.295 413.102 138.413 410.334 138.413 406.46ZM66.1257 438.895C62.4726 439.67 58.3766 442.216 57.0482 444.43C56.6054 445.094 56.4947 445.98 56.384 446.865C55.3877 451.957 58.0446 455.943 60.7014 460.814C61.2549 458.157 61.6977 456.275 62.0298 454.282C62.8047 449.19 62.694 443.876 66.1257 438.895ZM211.918 359.302C204.279 361.958 184.686 384.541 182.361 392.844C187.121 387.198 191.77 381.552 196.42 376.017C201.18 370.261 206.936 365.501 211.918 359.302ZM201.733 300.852C202.73 305.944 203.726 310.704 204.722 315.796C207.711 313.14 210.589 310.594 213.135 307.826C209.704 304.726 206.272 302.291 201.733 300.852ZM118.487 433.028C117.823 431.589 117.158 432.031 116.273 432.474C112.952 434.467 109.52 436.459 106.199 438.452C101.328 441.33 96.6789 444.43 92.4723 448.304C90.1476 450.408 87.7122 452.29 85.1661 454.504C86.3838 455.057 87.6015 455.611 89.0406 456.275C89.3727 455.832 89.4834 455.389 89.8155 455.057C96.7896 446.865 104.539 439.78 114.612 435.574C116.162 435.02 117.269 433.913 118.487 433.028ZM143.505 142.883C144.391 145.097 145.83 146.536 147.38 147.975C150.258 150.632 153.136 153.289 156.014 155.946C160.885 160.484 164.206 166.241 167.97 171.665C169.852 174.322 171.734 176.868 173.726 179.525C174.058 178.971 174.058 178.75 173.948 178.418C170.405 170.337 165.534 163.252 159.003 157.163C154.022 152.514 149.261 147.643 144.391 142.994C144.28 142.883 144.059 142.883 143.505 142.883ZM256.198 169.894C256.087 167.901 255.312 166.573 254.094 165.466C251.77 163.252 249.334 161.038 247.12 158.492C245.349 156.388 243.467 155.613 240.589 156.942C244.131 163.363 249.334 167.348 256.198 169.894ZM67.8969 439.78C67.0113 445.426 70.1109 453.397 74.9817 458.046C79.7418 462.806 85.8303 463.47 92.2509 463.36C78.3027 461.367 70.8858 452.954 67.8969 439.78ZM106.31 431.257C106.199 431.146 106.088 431.035 105.867 430.924C97.3431 436.57 88.8192 442.327 80.0739 448.083C80.5167 448.858 81.1809 449.854 81.7344 450.629C83.1735 449.411 84.2805 448.304 85.6089 447.419C88.9299 444.983 92.4723 442.769 95.6826 440.223C99.3357 437.345 102.767 434.245 106.31 431.257ZM124.797 423.286C122.804 425.057 122.693 425.722 123.8 428.157C126.457 434.245 131.771 437.456 137.306 440.555C137.306 439.78 137.306 439.116 136.863 438.673C134.981 436.681 133.099 434.688 130.996 432.917C128.118 430.371 125.682 427.382 124.797 423.286ZM58.1552 464.356C59.5944 462.031 59.5944 462.031 58.7087 460.039C56.8268 456.053 54.17 452.29 55.1663 447.197C52.5095 448.636 51.956 450.518 52.6202 452.843C53.8379 456.828 55.8305 460.481 58.1552 464.356ZM245.238 120.743C240.7 123.621 236.715 133.252 238.043 139.783C238.264 139.23 238.375 138.787 238.596 138.234C238.596 138.123 245.017 121.075 245.238 120.743ZM83.6163 471.219C86.2731 472.216 88.4871 472.99 90.7011 473.765C90.7011 473.987 90.7011 474.319 90.7011 474.54C89.1513 474.983 87.4908 475.315 85.941 475.758C85.941 475.979 85.941 476.201 85.941 476.311C87.8229 476.644 89.7048 476.976 91.9188 477.418C91.9188 475.094 91.9188 472.991 91.9188 470.776C89.262 470.223 86.7159 469.891 83.6163 471.219ZM199.851 331.516C200.848 332.623 201.844 333.841 202.73 334.948C204.944 332.955 206.936 331.073 209.04 329.302C205.94 327.863 202.84 328.748 199.851 331.516ZM276.124 170.89C279.002 172.883 287.415 172.661 291.954 171.001C289.961 170.115 283.319 169.562 279.002 170.115C278.116 170.115 277.452 170.447 276.124 170.89ZM233.394 346.682C230.294 347.014 225.977 349.006 223.652 351.11C225.645 351.774 227.526 352.327 229.187 352.881C230.737 350.556 232.065 348.674 233.394 346.682ZM225.423 341.479C223.431 340.372 221.77 339.376 220.11 338.49C219.224 339.818 218.56 340.925 217.896 341.922C217.342 342.918 216.346 343.693 216.346 345.353C219.445 344.025 222.213 342.807 225.423 341.479ZM92.2509 465.684C88.9299 464.688 86.2731 464.799 83.3949 466.127C86.3838 467.345 89.1513 468.452 92.2509 469.78C92.2509 468.009 92.2509 466.902 92.2509 465.684ZM216.678 346.46C216.678 346.682 216.678 347.014 216.678 347.235C218.117 348.01 219.667 348.896 221.106 349.671C222.766 347.346 224.316 345.353 225.755 343.471C225.645 343.25 225.534 343.139 225.423 342.918C222.434 344.136 219.556 345.243 216.678 346.46ZM218.006 339.043C217.896 338.822 217.785 338.711 217.674 338.49C215.239 339.597 212.693 340.704 209.814 342.143C211.586 343.471 212.803 344.357 214.132 345.353C215.571 343.029 216.789 341.036 218.006 339.043ZM127.232 410.113C127.011 409.891 126.789 409.67 126.568 409.449C122.583 413.987 118.598 418.526 114.612 423.175C114.723 423.286 114.944 423.508 115.055 423.618C119.483 419.412 124.022 415.316 127.232 410.113ZM223.541 348.453C223.652 348.564 223.873 348.674 223.984 348.785C226.973 347.457 229.851 346.239 233.283 344.8C231.401 343.914 229.962 343.361 228.412 342.697C226.752 344.578 225.091 346.46 223.541 348.453ZM210.479 329.634C208.375 331.516 206.493 333.176 204.612 334.837C204.722 335.058 204.944 335.39 205.054 335.612C207.822 334.615 210.589 333.619 213.91 332.291C212.582 331.294 211.586 330.63 210.479 329.634ZM162.213 438.673C162.324 439.006 162.435 439.338 162.435 439.67C165.534 439.227 168.523 438.895 172.066 438.452C171.291 437.124 170.737 436.349 170.073 435.352C167.306 436.459 164.759 437.566 162.213 438.673ZM168.745 431.146C165.424 431.81 162.435 432.585 159.999 434.578C160.11 434.799 160.11 435.02 160.221 435.242C163.32 434.91 166.309 434.578 169.63 434.245C169.187 433.028 168.966 432.142 168.745 431.146ZM213.246 334.505C213.135 334.283 213.025 334.173 212.914 333.951C210.257 334.948 207.711 335.833 204.833 336.94C205.94 338.158 206.936 339.154 207.933 340.261C209.814 338.269 211.586 336.387 213.246 334.505ZM173.948 403.139C172.287 405.131 170.627 407.124 168.855 409.117C167.195 410.998 165.424 412.88 163.542 415.094C166.531 414.762 171.623 409.117 173.948 403.139ZM135.645 387.419C138.745 386.644 141.07 386.091 143.394 385.537C143.505 384.43 143.505 383.545 143.616 381.884C141.07 384.098 137.084 383.102 135.645 387.419ZM262.729 110.337C262.729 110.669 262.729 110.891 262.729 111.223C266.936 111.223 271.253 111.223 275.46 111.223C271.364 109.23 267.046 109.23 262.729 110.337ZM215.349 334.394C213.468 336.497 211.364 338.047 210.257 340.483C212.803 339.376 215.349 338.158 218.228 336.94C217.231 336.055 216.456 335.39 215.349 334.394ZM190.663 332.844C190.995 333.619 191.327 334.283 191.881 335.39C193.874 333.508 195.534 331.959 197.527 329.966C195.866 329.634 194.649 329.413 193.431 329.191C192.656 330.409 191.77 331.516 190.663 332.844ZM159.114 428.71C159.114 428.932 159.224 429.264 159.224 429.485C162.324 429.485 165.313 429.485 168.523 429.485C168.634 428.6 168.745 427.825 168.855 426.718C165.424 427.382 162.324 428.046 159.114 428.71ZM143.394 387.419C140.405 386.866 138.302 387.751 136.088 388.969C136.31 389.744 136.531 390.408 136.752 391.405C138.856 389.744 141.734 390.187 143.394 387.419ZM199.409 38.0501C201.18 38.2715 202.73 38.3822 204.501 38.6036C204.39 37.4966 204.279 36.611 204.058 35.3932C202.176 35.504 200.626 35.7254 198.855 35.8361C199.077 36.7217 199.298 37.3859 199.409 38.0501ZM174.28 443.102C172.287 444.208 170.737 444.983 169.298 445.869C169.409 446.09 169.409 446.422 169.52 446.644C171.291 446.865 173.062 446.976 175.387 447.308C174.944 445.648 174.612 444.541 174.28 443.102ZM85.0554 479.743C85.0554 480.075 85.0554 480.407 85.0554 480.629C87.2694 480.74 89.4834 480.961 91.6974 481.072C91.6974 479.965 91.6974 479.19 91.6974 478.193C89.3727 478.747 87.2694 479.3 85.0554 479.743ZM235.497 346.018C234.058 348.121 232.729 350.224 231.401 352.217C231.622 352.327 231.844 352.549 232.065 352.66C233.836 350.888 235.608 349.006 237.6 347.014C236.604 346.682 236.161 346.35 235.497 346.018ZM203.172 22.3306C201.401 20.7808 200.073 19.6738 198.634 18.4561C197.859 19.1203 197.195 19.6738 196.42 20.2273C198.302 21.8878 200.294 22.4413 203.172 22.3306ZM76.3101 434.135C78.3027 430.924 78.3027 430.703 77.4171 428.378C75.0924 430.15 74.871 431.257 76.3101 434.135ZM121.697 427.936C120.701 429.264 118.598 429.375 119.04 432.031C120.479 431.699 121.808 431.478 123.358 431.146C122.693 429.928 122.251 429.043 121.697 427.936ZM160.774 67.1642C161.106 62.1827 160.664 61.4078 157.896 60.7436C158.007 63.179 159.557 64.8395 160.774 67.1642ZM166.42 415.426C170.184 415.094 170.294 414.873 171.623 409.891C169.852 411.773 168.302 413.434 166.42 415.426ZM173.615 441.884C172.951 441.109 172.508 440.223 172.287 440.223C170.073 440.666 168.08 441.552 166.531 443.434C168.745 442.991 170.848 442.437 173.615 441.884ZM142.952 392.954C142.841 391.958 142.841 391.183 142.73 390.187C140.848 391.072 139.298 391.737 137.749 392.401C137.859 392.622 137.859 392.844 137.97 392.954C139.52 392.954 141.18 392.954 142.952 392.954ZM180.922 474.319C179.372 474.319 178.265 474.319 176.604 474.319C177.158 475.426 177.379 476.644 177.933 476.754C179.593 477.308 179.925 475.758 180.922 474.319ZM50.849 451.072C48.5243 452.068 47.9708 452.732 48.635 454.061C49.1885 455.389 50.1848 455.168 51.2918 454.393C51.1811 453.286 51.0704 452.179 50.849 451.072ZM76.8636 504.54C76.0887 503.654 75.4245 502.88 74.5389 501.883C73.8747 503.101 72.3249 503.876 73.764 505.204C74.871 506.422 75.7566 505.315 76.8636 504.54ZM92.2509 485.168C91.6974 484.171 91.5867 483.286 91.1439 483.286C89.5941 482.843 88.2657 483.396 86.9373 484.06C86.9373 484.282 86.9373 484.503 86.9373 484.725C88.5978 484.835 90.0369 484.946 92.2509 485.168ZM53.7272 460.371C53.063 461.478 52.2881 462.363 52.3988 462.806C52.9523 464.245 54.17 463.692 55.3877 463.36C55.1663 462.806 55.0557 462.474 54.945 462.142C54.7236 461.699 54.5021 461.367 53.7272 460.371ZM93.0258 119.857C94.797 122.957 94.797 122.957 97.4538 121.296C95.7933 120.743 94.4649 120.3 93.0258 119.857ZM147.601 455.168C146.826 454.061 146.273 453.397 145.83 452.732C144.723 453.175 143.616 453.507 144.28 455.057C145.166 456.828 146.162 455.5 147.601 455.168ZM60.812 470.444C59.5943 470.998 58.7087 471.662 59.705 472.88C60.5906 473.987 61.587 473.655 62.694 472.658C62.0298 471.773 61.4762 471.109 60.812 470.444ZM156.457 465.463C155.461 464.799 154.686 464.134 153.911 463.581C152.582 465.241 152.582 465.241 154.575 466.791C155.018 466.459 155.571 466.016 156.457 465.463ZM126.9 439.448C127.675 438.784 128.339 438.12 129.114 437.456C128.339 436.902 127.896 436.57 127.343 436.127C126.236 437.013 125.018 437.677 126.9 439.448ZM69.336 491.477C68.1183 491.477 67.4541 491.81 67.7862 492.917C68.229 494.134 69.0039 494.798 70.5537 494.134C70.1109 493.249 69.7788 492.252 69.336 491.477ZM139.188 401.478C139.741 399.928 140.295 398.489 140.959 396.497C138.413 397.825 138.634 399.596 139.188 401.478ZM142.952 394.615C140.959 394.172 139.298 394.283 137.084 394.726C137.859 395.279 138.191 395.833 138.524 395.722C139.852 395.5 141.291 395.058 142.952 394.615ZM66.5685 479.965C65.6829 480.85 65.1294 481.404 64.4652 482.068C65.2401 482.4 65.9043 482.732 67.122 483.286C67.0113 481.957 66.9006 481.404 66.5685 479.965ZM167.859 472.326C166.531 470.998 165.756 471.883 165.202 472.769C165.092 472.99 165.313 473.433 165.424 473.876C166.088 473.544 166.752 473.212 167.416 472.88C167.638 472.88 167.748 472.548 167.859 472.326ZM83.5056 509.411C80.9595 508.304 80.9595 508.304 80.8488 510.85C81.8451 510.296 82.62 509.854 83.5056 509.411ZM206.936 43.6958C207.158 42.4781 207.158 41.3711 205.829 40.9283C206.272 41.9246 206.604 42.8102 206.936 43.6958ZM137.859 444.762C137.97 444.43 138.081 444.098 138.191 443.766C137.638 443.544 137.084 443.323 136.531 443.212C136.42 443.212 136.31 443.876 136.088 444.208C136.752 444.319 137.306 444.541 137.859 444.762ZM142.398 398.711C142.287 398.711 142.066 398.6 141.955 398.6C141.734 399.264 141.402 399.928 141.18 400.482C141.291 400.593 141.512 400.593 141.623 400.703C141.845 400.039 142.177 399.375 142.398 398.711Z" fill="black" fill-opacity="0.1"/>
<path d="M202.287 53.8801C202.84 55.4299 203.504 57.0904 204.058 58.6402C200.515 61.6291 197.637 61.4077 192.545 57.8653C194.98 54.7657 198.301 53.6587 202.065 53.9908L202.287 53.8801ZM194.316 57.3118C198.855 60.3007 201.733 59.6365 202.951 57.8653C202.508 57.2011 202.065 56.5369 201.512 55.762C199.298 57.4225 196.53 55.5406 194.316 57.3118Z" fill="black" fill-opacity="0.1"/>
<path d="M174.943 40.8177C179.261 34.3971 187.01 32.1831 190.884 36.0576C188.006 36.1683 185.128 35.8362 182.582 36.6111C179.925 37.386 177.6 39.2679 174.943 40.8177Z" fill="black" fill-opacity="0.1"/>
<path d="M177.934 41.3709C183.469 37.9392 187.454 37.6071 191.107 40.1532C190.443 40.4853 189.889 41.0388 189.225 41.1495C186.9 41.2602 184.576 41.2602 182.251 41.3709C181.033 41.3709 179.815 41.3709 177.934 41.3709ZM188.229 40.3746C186.568 39.2676 185.018 38.9355 183.136 40.3746C185.129 40.3746 186.679 40.3746 188.229 40.3746Z" fill="black" fill-opacity="0.1"/>
<path d="M202.73 61.6292C199.63 64.1753 196.42 63.7325 192.435 60.3008C195.756 61.5185 198.966 63.5111 202.73 61.6292Z" fill="black" fill-opacity="0.1"/>
<path d="M202.287 53.8802H202.065C200.405 52.3304 198.634 52.109 196.42 53.3267C195.202 53.9909 193.984 54.8765 192.435 55.8728C194.206 52.7732 197.416 52.5518 199.741 50.6699C199.962 52.109 202.619 51.6662 202.287 53.8802Z" fill="black" fill-opacity="0.1"/>
<path d="M198.19 46.4632C195.091 46.906 195.091 46.906 193.541 45.5776C195.202 44.5813 196.419 45.0241 198.19 46.4632Z" fill="black" fill-opacity="0.1"/>
<path d="M190.774 44.5815C191.216 45.5778 191.549 46.5741 191.991 47.6811C190.331 46.7955 190.331 46.7955 190.774 44.5815Z" fill="black" fill-opacity="0.1"/>
</svg>
