<svg width="333" height="519" viewBox="0 0 333 519" fill="none" xmlns="http://www.w3.org/2000/svg">
<path d="M252.327 49.589C253.429 45.7967 256.691 43.1158 258.145 39.2242C254.657 37.1007 250.175 37.8007 246.678 35.4938C247.702 33.396 249.329 33.6578 250.739 33.5036C252.551 33.3049 254.423 33.3996 256.178 32.9858C260.055 32.0731 260.68 31.1978 260.939 27.2255C261.023 25.9365 260.979 24.6381 261.096 23.3537C261.159 22.6607 261.435 21.9876 261.825 20.5081C262.866 21.9876 263.61 22.8208 264.096 23.785C264.967 25.5099 265.496 27.4289 266.502 29.0603C268.853 32.869 269.651 32.9134 273.28 31.5671C274.389 31.1557 275.494 30.7116 276.635 30.4066C277.063 30.2921 277.585 30.5293 278.425 30.6637C277.398 32.9298 275.749 34.3029 274.31 35.8105C269.952 40.3718 270.39 39.1681 273.294 44.3558C274.028 45.6658 275.522 46.769 274.708 48.9439C273.948 48.6389 273.235 48.4987 272.701 48.1107C270.872 46.7831 269.154 45.3035 267.307 44.0051C265.01 42.3912 263.781 42.4006 261.449 44.0928C259.537 45.4812 257.767 47.0659 255.891 48.508C255.009 49.187 254.026 49.7363 253.088 50.344C252.833 50.0915 252.579 49.8403 252.327 49.589ZM262.963 26.1971C262.766 26.2614 262.568 26.3256 262.371 26.3899C262.371 27.0327 262.388 27.6755 262.367 28.317C262.233 32.46 261.383 33.5585 257.451 34.7365C256.622 34.9854 255.806 35.2764 254.45 35.724C255.943 36.2324 256.861 36.4918 257.737 36.8518C260.27 37.8919 260.596 38.8724 259.377 41.2974C258.907 42.2311 257.962 43.0083 258.054 44.3721C264.272 40.7668 262.773 39.7559 270.82 43.9841C270.596 43.4185 270.481 43.0387 270.303 42.6916C268.819 39.7816 268.906 39.0909 271.08 36.7209C271.8 35.9379 272.517 35.1549 273.581 33.9932C268.432 34.6792 266.975 33.9734 264.869 30.146C264.456 29.3969 264.163 28.5823 263.795 27.8087C263.537 27.2641 263.243 26.7347 262.963 26.1971Z" fill="black" fill-opacity="0.1"/>
<path d="M143.346 172.116C140.052 174.463 137.283 176.449 134.486 178.393C134.307 178.517 133.892 178.299 133.571 178.239C132.83 177.112 133.608 176.418 134.213 175.69C135.728 173.867 137.318 172.101 138.753 170.216C140.674 167.693 140.662 167.171 138.87 164.481C138.096 163.32 137.142 162.279 136.324 161.146C136.038 160.751 135.917 160.238 135.533 159.34C138.15 160.128 140.33 160.858 142.55 161.434C145.347 162.16 145.727 161.956 147.306 159.505C149.142 156.655 149.142 156.655 150.942 155.571C152.064 158.625 149.99 161.538 150.838 164.625C154.041 166.159 158.538 165.348 161.15 169.398C157.812 171.684 153.619 170.305 150.027 172.458C150.027 173.93 150.038 175.624 150.022 177.318C150.011 178.393 150.05 179.481 149.884 180.535C149.82 180.942 149.291 181.509 148.906 181.569C148.502 181.634 147.83 181.291 147.604 180.925C147.045 180.015 146.691 178.982 146.225 178.012C145.307 176.101 144.367 174.201 143.346 172.116ZM140.02 171.893C143.502 170.044 143.956 170.157 145.77 173.419C146.239 174.263 146.598 175.169 147.071 176.008C147.387 176.567 147.819 177.063 148.562 178.087C148.562 176.646 148.568 175.901 148.561 175.157C148.523 171.209 148.986 170.629 152.982 169.848C154.58 169.534 156.196 169.314 158.326 168.965C157.477 168.424 157.165 168.113 156.795 168.009C155.559 167.659 154.308 167.355 153.052 167.083C149.101 166.224 148.548 166.857 148.777 162.005C148.782 161.897 148.528 161.777 148.24 161.529C146.234 165.256 143.053 163.18 139.558 162.951C142.742 166.104 142.585 168.988 140.02 171.893Z" fill="black" fill-opacity="0.1"/>
<path d="M318.909 389.1C316.885 386.356 318.495 382.841 317.149 379.659C314.852 380.163 312.541 380.672 310.063 381.216C309.873 378.445 312.051 378.246 313.194 377.188C314.368 376.103 315.66 375.146 316.824 374.195C316.967 371.729 314.369 370.085 315.467 367.279C316.613 367.787 317.74 368.111 318.665 368.735C320.581 370.03 322.193 369.726 323.896 368.316C325.45 367.028 327.159 365.928 328.649 364.853C330.264 365.54 329.949 366.453 329.53 367.395C328.575 369.546 327.623 371.698 326.667 373.855C328.482 376.361 332.457 376.687 333 380.394C331.51 381.538 329.987 380.884 328.587 380.704C322.884 379.972 322.925 379.939 321.392 385.518C321.041 386.797 320.36 387.984 319.83 389.214C319.523 389.176 319.215 389.138 318.909 389.1ZM329.557 378.818C328.106 377.722 327.186 377.021 326.26 376.327C324.434 374.958 324.263 374.359 325.222 372.27C325.74 371.142 326.323 370.046 326.878 368.935C325.203 369.51 324.033 370.742 322.614 371.192C321.213 371.636 319.563 371.289 317.858 371.289C320.304 374.688 317.106 376.084 314.942 378.004C318.639 378.235 318.627 378.237 319.27 381.567C319.395 382.217 319.654 382.84 319.928 383.728C321.95 378.625 321.95 378.625 329.557 378.818Z" fill="black" fill-opacity="0.1"/>
<path d="M33.1566 344.666C16.7272 344.43 4.81045 335.118 1.70647 321.103C-1.06782 308.575 4.31942 296.096 15.537 289.197C25.9678 282.784 37.1035 282.055 48.1563 287.732C64.9435 296.354 69.268 318.177 57.1514 332.669C50.4805 340.648 41.8314 344.606 33.1566 344.666ZM51.3643 321.276C48.5117 320.243 45.8146 319.181 43.0543 318.32C42.2125 318.058 41.0189 318.035 40.2929 318.444C37.314 320.125 34.4532 322.015 31.797 323.672C31.797 327.404 31.797 330.815 31.797 334.139C34.6437 335.494 37.231 336.813 39.9012 337.934C40.5711 338.216 41.5765 338.042 42.3107 337.766C45.7584 336.471 48.9232 334.682 51.3631 332.18C51.3643 328.574 51.3643 325.149 51.3643 321.276ZM11.4229 318.49C11.4229 321.325 11.382 324.109 11.4568 326.889C11.472 327.451 11.797 328.127 12.1969 328.536C14.7514 331.147 17.3351 333.729 19.9913 336.235C20.4508 336.667 21.3884 336.996 21.9601 336.839C24.8221 336.056 27.6349 335.095 30.4689 334.196C30.4689 330.974 30.4992 328.079 30.4431 325.185C30.4314 324.6 30.2596 323.855 29.8761 323.465C27.1755 320.71 24.4 318.029 21.579 315.257C18.4469 316.254 15.1898 317.291 11.4229 318.49ZM42.4768 317.019C44.0913 317.53 45.7292 318.011 47.3414 318.571C49.046 319.161 50.7248 319.826 52.3113 320.418C59.8216 314.961 60.3372 313.347 57.4296 304.75C57.1888 304.039 56.9491 303.321 56.6218 302.649C56.3961 302.186 56.1109 301.6 55.6959 301.408C52.9976 300.157 50.256 298.999 47.4829 297.789C45.1411 299.984 42.8824 302.102 40.8529 304.003C41.407 308.442 41.9226 312.572 42.4768 317.019ZM22.0525 295.234C23.8704 298.065 25.5422 300.669 27.1381 303.155C30.9646 303.366 34.5935 303.625 38.2259 303.719C38.9729 303.739 39.879 303.31 40.4671 302.803C42.5715 300.989 44.5706 299.054 46.7089 297.072C45.5959 295.133 44.4596 293.32 43.4904 291.423C42.4499 289.386 40.7886 288.378 38.607 288.327C34.9781 288.241 31.3445 288.303 28.0663 288.303C25.9456 290.746 24.068 292.91 22.0525 295.234ZM21.51 296.077C18.7182 296.305 16.1391 296.435 13.5893 296.776C12.8726 296.872 11.9081 297.432 11.6205 298.043C9.88204 301.735 8.2523 305.482 6.73129 309.269C6.47526 309.907 6.68687 310.998 7.0984 311.589C8.44638 313.521 9.98609 315.317 11.6474 317.412C14.7292 316.382 17.8647 315.332 20.2707 314.527C22.3284 310.444 24.061 307.006 25.8906 303.377C24.5228 301.097 23.0906 298.712 21.51 296.077ZM20.888 340.809C21.033 338.759 20.0919 337.673 18.9859 336.617C16.9668 334.688 14.8402 332.832 13.0702 330.688C11.2803 328.522 9.35009 327.801 6.50565 328.899C9.87035 334.574 14.5994 338.344 20.888 340.809ZM2.60434 313.622C2.87441 313.749 3.14447 313.875 3.41337 314.001C4.15458 312.52 4.98231 311.077 5.62064 309.553C7.15217 305.892 8.59251 302.193 10.0761 298.512C10.4105 297.682 10.7671 296.862 11.1143 296.036C10.8711 295.932 10.6279 295.828 10.3848 295.724C5.41488 300.629 3.13746 306.736 2.60434 313.622ZM62.1552 315.649C62.7187 309.485 61.3731 304.107 58.1381 299.154C56.6838 299.808 56.4488 300.554 57.0555 301.621C59.112 305.238 59.9339 309.192 60.0742 313.295C60.1186 314.584 60.6564 315.262 62.1552 315.649ZM40.2356 340.852C40.4519 341.064 40.6693 341.275 40.8856 341.487C45.8812 340.015 50.1952 337.444 53.6511 333.421C52.8444 333.317 52.0178 333.327 51.5502 333.742C48.8613 336.129 45.6883 337.589 42.4113 338.934C41.566 339.283 40.9546 340.198 40.2356 340.852ZM42.0804 287.381C37.9839 285.15 29.9509 284.822 26.882 286.917C32.0776 287.075 37.0205 287.226 42.0804 287.381Z" fill="black" fill-opacity="0.1"/>
<path d="M101.092 448.765C101.461 448.893 101.863 448.966 102.194 449.16C115.324 456.903 129.388 462.582 143.723 467.574C150.512 469.938 157.502 471.746 164.454 473.613C166.646 474.202 169.007 474.163 171.297 474.631C169.855 475.515 168.231 475.366 166.755 475.11C161.57 474.213 156.321 473.471 151.267 472.06C137.032 468.084 123.367 462.576 110.228 455.802C107.75 454.524 105.424 452.939 103.078 451.419C102.206 450.853 101.477 450.065 100.684 449.378C100.819 449.175 100.955 448.97 101.092 448.765Z" fill="black" fill-opacity="0.1"/>
<path d="M111.366 446.366C130.277 451.06 149.138 455.786 168.665 455.034C161.118 458.853 117.989 452.599 111.366 446.366Z" fill="black" fill-opacity="0.1"/>
<path d="M71.8386 365.53C61.6732 363.552 54.3266 357.231 47.3154 350.394C47.5048 350.114 47.6942 349.833 47.8836 349.553C51.6832 352.563 55.4267 355.649 59.2988 358.562C63.1498 361.459 67.2253 364.014 71.8386 365.53Z" fill="black" fill-opacity="0.1"/>
<path d="M86.1668 353.298C80.7012 356.457 62.8641 353.864 59.0107 349.383C63.5036 350.635 67.8749 351.973 72.3105 353.054C76.8279 354.155 81.4214 354.316 86.1668 353.298Z" fill="black" fill-opacity="0.1"/>
<path d="M272.355 480.692C274.139 480.134 275.452 479.619 276.812 479.326C278.557 478.949 280.086 479.83 280.374 481.282C280.699 482.918 279.618 483.638 278.318 484.088C276.816 484.608 275.285 485.04 273.331 485.645C274.267 487.329 274.952 488.882 275.914 490.24C279.571 495.406 280.016 501.247 279.523 507.247C279.404 508.695 278.788 510.192 278.065 511.479C276.927 513.504 275.015 515.049 274.484 517.496C274.378 517.986 273.248 518.685 272.767 518.568C271.947 518.368 271.184 517.676 270.564 517.031C270.271 516.726 270.362 516.051 270.257 515.409C267.842 515.188 265.502 514.973 262.999 514.744C262.706 515.368 262.383 515.902 262.201 516.482C261.841 517.634 261.198 518.492 259.912 518.272C258.662 518.059 257.746 517.332 257.69 515.892C257.67 515.378 257.592 514.867 257.523 514.169C254.657 513.819 251.9 513.481 249.206 513.151C248.097 514.532 248.456 516.979 245.919 516.746C243.689 516.542 243.751 514.787 243.655 512.856C239.735 513.144 236.025 513.417 232.533 513.674C231.883 515.171 231.428 516.439 230.768 517.59C230.595 517.89 229.779 517.928 229.265 517.908C227.669 517.847 227.305 517.264 226.911 514.11C223.44 514.11 219.919 514.11 216.144 514.11C215.346 514.884 215.727 517.405 213.225 516.77C211.251 516.268 211.77 514.74 211.939 513.226C208.992 512.651 206.173 512.029 203.325 511.598C202.619 511.492 201.72 511.852 201.08 512.263C198.685 513.803 197.115 513.175 196.634 510.416C196.527 509.801 196.268 509.207 196.044 508.618C194.684 505.057 195.961 501.462 199.521 500.044C201.989 499.061 204.675 498.481 207.32 498.119C211.291 497.574 215.14 496.824 218.789 495.052C221.983 493.501 225.386 492.375 228.552 490.775C231.365 489.353 233.978 487.537 236.952 485.728C235.995 484.717 235.17 484.054 234.617 483.213C233.799 481.97 233.037 480.651 232.539 479.261C232.362 478.769 232.878 477.791 233.368 477.386C233.694 477.116 234.648 477.285 235.121 477.578C236.091 478.18 236.924 478.998 238.063 479.93C238.145 478.716 238.107 477.857 238.28 477.043C238.567 475.699 239.053 474.596 240.879 475.058C242.28 475.411 242.937 474.631 242.659 473.239C240.903 464.486 240.775 455.435 237.981 446.881C235.408 439.004 232.496 431.238 230.011 423.335C227.625 415.749 224.949 408.209 224.385 400.166C224.334 399.431 224.079 398.687 223.797 397.995C221.831 393.172 221.096 388.056 219.984 383.013C219.23 379.587 218.038 376.118 216.321 373.076C212.995 367.184 211.586 360.871 211.056 354.28C210.617 348.812 210.367 343.33 210.059 338.306C206.924 337.844 203.869 337.447 200.835 336.93C198.353 336.507 197.21 334.763 196.934 332.419C196.72 330.609 196.667 328.779 196.551 327.076C192.602 325.051 188.8 323.058 184.946 321.173C184.372 320.893 183.472 320.915 182.852 321.143C174.88 324.068 167.854 328.17 163.743 336.104C161.366 340.691 158.627 345.09 156.184 349.645C155.438 351.036 155.313 352.754 154.6 354.17C152.483 358.381 150.43 362.648 147.961 366.653C142.285 375.863 135.748 384.399 127.339 391.359C122.274 395.551 117.303 399.857 112.232 404.039C106.23 408.99 100.499 414.184 95.8736 420.507C93.9189 423.18 91.7724 425.711 89.4891 428.588C90.4875 428.995 91.12 429.28 91.7724 429.511C93.0023 429.947 93.9913 430.733 93.7564 432.084C93.4804 433.67 92.1979 433.965 90.7553 433.678C90.4443 433.616 90.1298 433.581 89.8211 433.534C89.3254 435.941 89.115 438.406 88.2931 440.645C86.64 445.148 83.6377 448.877 80.5536 452.477C79.3857 453.841 77.9149 454.953 75.8059 454.787C75.0951 454.731 74.1668 455.244 73.6197 455.783C72.5078 456.878 71.5632 458.07 69.7756 457.106C67.9401 456.117 68.1073 454.578 68.7328 452.885C66.4998 450.884 63.7664 450.363 61.2154 449.672C59.512 450.405 58.7696 453.083 56.4618 451.738C54.4813 450.584 55.2471 448.801 56.0819 446.845C53.0176 445.335 50.1767 443.847 47.2469 442.563C46.6378 442.297 45.5505 442.567 44.9403 442.974C43.777 443.753 42.6979 444.314 41.3932 443.472C39.9914 442.568 40.2872 441.317 40.7771 440.04C40.846 439.861 40.7631 439.624 40.7315 439.096C38.6622 438.317 36.4631 437.503 34.2757 436.661C33.1346 436.223 32.4425 436.873 31.7679 437.611C30.8642 438.601 29.7138 438.841 28.5178 438.427C27.2563 437.99 26.6882 436.95 26.8495 435.629C26.9383 434.902 27.226 434.201 27.4796 433.289C25.3051 431.65 23.2136 429.985 21.0098 428.483C20.5036 428.138 19.5519 428.156 18.9159 428.357C17.7562 428.724 16.6537 429.291 15.6869 428.102C14.7668 426.972 15.3011 425.88 15.9055 424.818C16.1159 424.449 16.3135 424.072 16.6514 423.453C15.75 422.219 14.8989 420.852 13.8315 419.681C13.3405 419.142 12.4332 418.729 11.7014 418.707C8.52607 418.607 7.62236 417.065 9.19247 414.203C9.29535 414.015 9.39005 413.822 9.48708 413.63C9.46955 413.531 9.47306 413.422 9.43331 413.335C7.30553 408.672 9.05568 405.929 14.1553 406.328C16.4748 406.509 18.785 407.24 21.018 407.967C22.6407 408.495 24.1921 409.327 25.671 410.2C29.3666 412.382 33.3287 412.932 37.5141 412.437C39.6524 412.185 41.8012 412.021 43.9348 411.738C46.3455 411.418 48.7352 411.396 50.8419 409.583C52.8095 407.891 55.2401 408.366 57.6567 409.732C57.2814 408.785 56.8722 407.85 56.5413 406.889C56.0854 405.569 55.5452 404.254 55.3032 402.892C54.9887 401.124 56.0059 399.763 57.5327 399.547C59.0409 399.333 59.9364 400.01 60.2567 401.991C60.5455 403.786 60.5619 405.625 60.6893 407.446C60.7408 408.172 60.7665 408.9 60.8343 410.195C61.7906 409.213 62.4278 408.587 63.0322 407.93C63.8342 407.059 64.5322 406.077 65.4125 405.298C67.6443 403.321 69.2378 403.585 70.912 406.084C71.0827 406.34 71.2943 406.568 71.6029 406.956C75.3908 404.303 78.3101 400.841 81.123 397.331C90.7775 385.285 99.1927 372.394 107.099 359.143C111.071 352.487 115.62 346.179 119.723 339.598C121.297 337.075 122.416 334.257 123.628 331.523C124.456 329.656 125.028 327.678 125.818 325.793C128.025 320.531 130.39 315.333 132.495 310.032C134.165 305.823 136.727 302.306 139.972 299.235C141.459 297.828 143.012 296.491 144.538 295.126C147.056 292.87 149.593 290.956 150.732 287.238C151.679 284.146 154.424 281.468 156.76 278.968C161.098 274.327 165.763 269.992 170.197 265.438C171.52 264.08 172.399 262.292 173.712 260.923C175.873 258.67 178.261 256.635 180.477 254.433C181.368 253.549 182.037 252.445 182.847 251.474C183.46 250.739 184.037 249.92 184.801 249.375C187.605 247.374 190.486 245.482 193.325 243.528C193.93 243.111 194.869 242.692 194.987 242.132C195.603 239.202 197.923 237.408 199.41 235.072C200.683 233.074 202.115 231.152 203.163 229.041C203.854 227.647 204.378 225.96 204.308 224.436C203.585 208.841 202.63 193.258 201.951 177.662C201.701 171.899 200.053 166.433 199.113 160.821C197.602 151.806 195.809 142.837 194.397 133.808C193.487 127.996 194.203 122.206 195.725 116.524C197.09 111.43 198.448 106.333 199.734 101.219C200.173 99.4722 200.386 97.6678 200.737 95.6928C199.013 95.2136 197.582 94.8245 196.156 94.4166C194.003 93.8007 193.534 93.2421 194.356 91.2192C195.527 88.3372 197.026 85.5874 198.389 82.7826C198.618 82.3105 198.87 81.85 199.316 80.9887C195.976 79.4706 192.79 78.0238 189.088 76.3409C188.23 77.3904 187.468 78.607 186.439 79.522C184.034 81.6595 181.238 82.9766 177.912 82.7616C175.424 82.6015 173.582 81.5076 172.849 78.9938C172.35 77.2817 171.829 75.6257 169.505 75.5696C169.575 74.0176 169.633 72.7602 169.702 71.2245C168.606 71.5062 167.623 71.782 166.629 72.0111C164.147 72.5849 163.504 72.1817 162.8 69.6784C162.715 69.3734 162.545 69.0917 162.25 68.4303C161.102 68.7797 159.923 69.1607 158.731 69.4961C156.278 70.1844 155.03 69.3383 154.814 66.7848C154.723 65.7143 154.867 64.6228 154.769 63.5535C154.503 60.6505 153.981 57.9088 152.107 55.4196C151.012 53.9646 150.594 51.9136 150.168 50.0624C149.554 47.3909 149.212 44.6562 148.632 41.232C146.473 44.5288 145.494 47.8689 141.873 49.1894C142.631 47.3126 143.387 45.4345 144.402 42.9196C142.647 43.8627 141.436 44.5136 140.224 45.1646C140.032 45.0103 139.839 44.856 139.647 44.7018C140.003 43.9071 140.339 43.1031 140.721 42.3212C141.129 41.4856 141.579 40.6699 142.174 39.5328C140.605 39.6368 139.445 39.7151 137.791 39.825C138.29 38.6341 138.497 37.9516 138.843 37.3497C140.988 33.6217 143.432 30.0398 145.277 26.1703C149.226 17.8892 154.959 11.4966 163.291 7.46824C166.193 6.06468 168.881 4.22287 171.756 2.75737C178.047 -0.449436 184.231 -0.253102 190.087 3.83604C193.529 6.23998 196.955 8.69183 200.194 11.3564C205.102 15.3918 207.384 20.9265 208.408 27.0375C209.244 32.0265 209.922 37.0424 210.772 42.0291C211.518 46.4057 213.596 50.129 216.702 53.2891C219.943 56.5859 223.127 59.9411 226.447 63.1561C227.343 64.0244 228.591 64.5947 229.762 65.1043C234.996 67.3773 239.279 70.8856 243.312 74.8638C246.831 78.3358 250.549 81.6502 254.464 84.6641C259.51 88.5476 263.186 93.2573 264.993 99.3752C267.338 107.314 269.746 115.237 271.939 123.218C272.468 125.147 272.385 127.277 272.371 129.313C272.346 133.083 272.1 136.851 272.084 140.62C272.079 141.745 272.345 142.955 272.802 143.985C275.501 150.086 278.422 156.092 280.976 162.252C281.723 164.051 281.827 166.269 281.689 168.258C281.171 175.775 280.363 183.273 279.82 190.789C279.668 192.895 279.92 195.056 280.207 197.162C281.107 203.771 282.005 210.383 283.104 216.96C284.503 225.342 286.101 233.689 287.607 242.052C288.529 247.169 288.841 252.313 288.221 257.489C287.918 260.017 287.227 260.674 284.725 260.65C283.469 260.639 282.214 260.362 280.735 260.177C281.065 263.477 281.548 266.642 281.642 269.819C281.715 272.262 281.349 274.727 281.067 277.169C280.985 277.881 280.622 278.615 280.213 279.22C279.598 280.126 278.749 280.125 278.073 279.282C277.569 278.654 277.231 277.892 276.615 276.841C276.407 280.047 276.239 282.806 276.039 285.564C276 286.097 275.956 286.686 275.707 287.135C275.212 288.028 274.748 289.259 273.954 289.59C272.743 290.095 272.148 288.856 271.661 287.856C271.538 287.602 271.233 287.437 270.742 286.983C269.34 296.691 264.909 305.096 261.669 313.926C258.706 322.002 256.341 330.296 253.66 338.476C253.164 339.987 252.357 341.394 251.812 342.893C251.416 343.978 251.215 345.134 250.924 346.257C249.016 353.624 249.186 360.958 251.299 368.255C251.538 369.078 251.719 369.958 252.149 370.679C254.836 375.185 256.095 380.203 257.528 385.17C258.54 388.674 259.538 392.194 260.798 395.612C265.167 407.469 267.204 419.73 267.294 432.323C267.374 443.447 268.504 454.462 270.234 465.438C270.87 469.475 271.202 473.559 271.71 477.618C271.824 478.55 272.092 479.461 272.355 480.692ZM247.967 276.662C246.756 278.452 245.544 280.242 243.993 282.534C246.098 280.98 247.709 279.793 249.437 278.518C248.836 277.818 248.364 277.269 247.893 276.72C247.043 276.153 246.193 275.585 245.094 274.852C247.008 273.284 246.582 271.74 245.591 270.017C243.569 266.507 242.359 262.749 242.754 258.612C242.768 258.46 242.533 258.284 242.282 257.936C239.963 257.83 237.498 257.605 235.036 257.629C227.826 257.703 221.211 255.658 215.051 252.074C208.904 248.496 202.68 245.129 195.613 243.479C189.768 246.628 185.503 249.892 184.127 252.34C184.411 252.465 184.684 252.683 184.962 252.693C190.121 252.878 195.279 253.093 200.44 253.176C202.527 253.208 204.613 252.957 206.47 254.381C203.211 257.525 187.426 257.688 182.119 254.682C179.364 257.511 176.184 259.995 173.347 263.425C175.219 263.338 176.501 263.195 177.777 263.238C181.052 263.35 183.896 264.516 185.951 267.139C186.51 267.852 187.069 268.948 186.918 269.732C186.747 270.627 185.937 271.62 185.127 272.116C184.137 272.724 183.27 271.977 182.846 270.984C181.22 267.176 178.008 266.175 174.253 265.768C172.519 265.58 171.398 266.086 170.291 267.249C165.835 271.933 161.313 276.554 156.886 281.263C155.489 282.75 154.283 284.42 153.038 286.043C151.07 288.612 150.585 291.313 151.694 294.51C154.053 301.315 158.383 306.282 164.895 309.222C172.949 312.86 180.772 316.902 188.527 321.151C194.529 324.441 201.137 326.638 207.505 329.25C211.727 330.982 211.751 330.927 214.845 327.497C215.062 327.257 215.272 327.012 215.484 326.766C220.833 320.546 226.572 314.743 233.034 309.644C239.232 304.755 244.768 299.185 249.289 292.658C250.563 290.818 252.011 289.099 253.514 287.151C252.97 285.502 252.394 283.661 251.755 281.842C251 279.688 250.114 279.446 248.205 280.823C246.809 281.829 245.481 282.945 244.018 283.845C235.491 289.087 226.973 294.348 218.37 299.465C213.535 302.341 208.351 304.436 202.771 305.463C201.437 305.708 200.242 305.825 199.223 304.561C199.506 302.734 201.051 302.323 202.395 301.777C208.678 299.222 215.056 296.882 221.255 294.14C230.73 289.946 240.062 285.451 246.783 277.087C247.009 276.808 247.569 276.797 247.967 276.662ZM253.928 162.925C252.279 161.464 250.631 159.915 248.886 158.483C247.135 157.045 245.863 154.981 243.537 154.088C243.145 155.767 242.993 157.313 242.42 158.682C241.306 161.342 240.014 163.934 238.656 166.48C238.338 167.075 237.46 167.371 236.182 168.264C236.06 162.271 240.481 158.462 240.708 153.268C237.705 154.901 236.926 155.639 234.644 158.836C230.888 164.097 227.139 169.363 223.347 174.597C222.717 175.467 222.156 176.584 220.298 176.621C222.337 170.937 225.965 166.689 229.273 162.261C232.607 157.8 236.018 153.397 239.406 148.953C238.494 147.753 237.682 146.874 237.089 145.866C235.677 143.463 233.67 142.384 230.873 141.973C224.807 141.08 219.825 137.88 215.441 133.726C214.723 133.046 213.703 132.227 214.888 130.929C216.957 130.885 218.372 132.288 219.882 133.418C221.52 134.644 223 136.091 224.689 137.234C226.051 138.156 227.623 138.77 229.102 139.521C229.047 138.532 228.706 138.004 228.335 137.498C223.555 130.985 218.818 124.44 213.973 117.976C209.997 112.67 207.316 106.914 207.288 100.163C207.284 98.9522 207.576 97.7403 207.731 96.5295C208.71 106.72 209.041 109.242 216.839 119.54C220.87 124.864 224.777 130.279 228.767 135.634C229.721 136.914 230.78 138.115 231.785 139.345C232.579 138.184 233.053 137.032 233.902 136.332C237.474 133.389 241.049 130.383 245.791 129.455C248.627 128.9 251.456 128.187 254.323 127.936C257.869 127.625 261.465 127.036 265.172 128.601C264.862 125.967 264.923 123.747 264.303 121.735C262.53 115.988 260.735 110.222 258.459 104.662C256.59 100.096 254.007 95.8214 251.772 91.4026C251.498 90.8627 251.418 90.2258 251.247 89.6333C253.895 93.0621 256.211 96.5856 258 100.359C262.021 108.843 265.49 117.536 266.127 127.071C266.403 131.201 268.223 134.775 270.237 138.319C270.563 136.386 270.542 134.482 270.76 132.606C271.331 127.714 270.903 122.89 269.522 118.214C267.633 111.819 265.468 105.505 263.408 99.159C261.624 93.6652 258.397 89.2698 253.785 85.7265C250.121 82.9111 246.525 79.924 243.334 76.5969C238.335 71.3823 232.676 67.2639 225.833 64.3423C221.785 67.3212 217.437 70.1576 213.512 73.4906C206.146 79.7453 201.656 87.5788 201.37 97.5194C201.306 99.7562 200.817 102.005 200.323 104.202C199.542 107.666 198.603 111.095 197.705 114.533C196.176 120.391 194.891 126.298 195.608 132.392C196.148 136.984 196.819 141.572 197.705 146.109C199.79 156.771 202.25 167.377 202.998 178.242C203.642 187.588 203.918 196.958 204.391 206.316C204.737 213.14 205.14 219.961 205.535 227.119C207.594 226.192 209.108 225.353 210.723 224.831C212.183 224.359 213.686 222.891 215.518 224.533C213.332 227.494 210.221 228.759 206.465 230.021C213.971 230.609 213.971 230.609 215.429 232.554C214.78 232.887 214.137 233.515 213.561 233.459C211.558 233.265 209.553 232.939 207.599 232.459C206.193 232.113 204.867 231.442 203.557 230.936C201.029 234.664 198.702 238.098 196.107 241.926C197.466 242.491 198.362 243.022 199.33 243.239C205.37 244.591 210.968 247.059 216.536 249.683C219.337 251.002 222.296 252.341 225.314 252.778C231.565 253.686 237.904 253.997 244.322 254.564C246.985 248.274 251.346 242.715 250.57 235.433C250.548 235.224 250.599 235.003 250.634 234.792C252.279 224.68 253.303 214.516 253.235 204.258C253.207 200.002 253.231 195.745 253.231 191.489C248.769 194.747 245.027 198.262 241.19 201.672C239.51 203.165 237.677 204.497 235.83 205.784C235.334 206.129 234.532 206.035 233.034 206.279C234.119 204.774 234.609 203.824 235.343 203.132C236.909 201.658 238.633 200.355 240.233 198.915C243.912 195.604 247.57 192.269 251.206 188.91C252.619 187.604 253.142 185.985 253.183 184.004C253.333 177.008 253.663 170.018 253.928 162.925ZM249.159 260.937C249.47 260.92 249.782 260.905 250.093 260.889C250.438 262.087 250.992 263.267 251.089 264.484C251.413 268.554 251.229 272.696 251.896 276.701C252.541 280.575 253.971 284.323 255.141 288.099C255.25 288.449 256.006 288.841 256.407 288.79C256.807 288.738 257.265 288.211 257.464 287.784C257.679 287.322 257.679 286.733 257.677 286.2C257.641 279.23 259.206 272.258 257.571 265.277C257.312 264.173 256.996 262.703 258.471 261.81C259.89 263.005 259.588 264.617 259.57 266.046C259.479 273.09 260.818 279.952 262.07 286.826C262.241 287.766 262.533 288.731 262.992 289.561C263.658 290.765 264.962 290.673 265.34 289.342C265.776 287.811 266.096 286.169 266.042 284.589C265.826 278.162 267.031 271.695 265.494 265.297C265.249 264.279 265.386 263.142 265.501 262.076C265.554 261.574 265.973 261.11 266.545 260.022C267.524 262.79 267.888 265.036 267.596 267.21C267.191 270.223 267.877 272.989 268.761 275.757C269.873 279.24 271.071 282.698 272.279 286.151C272.57 286.984 273.048 287.753 273.556 288.788C274.074 288.211 274.35 288.023 274.451 287.765C274.686 287.169 274.938 286.55 275.007 285.923C275.838 278.274 276.12 270.692 272.498 263.522C271.959 262.455 271.283 261.159 272.67 259.859C274.666 260.428 274.532 262.289 274.911 263.704C276.078 268.06 277.109 272.453 278.244 276.818C278.402 277.425 278.856 277.956 279.36 278.857C279.756 277.917 280.012 277.451 280.154 276.951C281.467 272.349 280.966 267.74 279.861 263.223C278.378 257.166 276.671 251.161 274.965 245.161C274.528 243.627 274.035 241.937 273.043 240.762C269.903 237.047 269.906 232.875 270.834 228.539C272.298 221.703 273.806 214.874 275.433 208.076C278.506 195.235 279.301 182.116 280.231 169.022C280.387 166.836 280.202 164.38 279.343 162.412C274.915 152.264 270.2 142.241 265.626 132.156C264.725 130.172 263.327 129.099 261.13 129.136C258.976 129.173 256.816 129.15 254.666 129.278C247.987 129.674 242.641 132.919 237.827 137.27C236.798 138.201 236.514 139.352 236.357 140.71C236.081 143.102 237.558 144.618 238.906 146.052C243.765 151.222 248.772 156.253 253.442 161.05C255.226 161.208 256.947 159.857 257.687 162.322C256.778 162.81 255.974 163.241 254.962 163.784C254.83 174.875 254.755 185.966 254.548 197.054C254.407 204.582 254.261 212.118 253.78 219.628C253.376 225.954 252.339 232.238 251.872 238.562C251.653 241.535 251.034 244.24 249.628 246.864C248.103 249.706 246.746 252.645 245.453 255.603C244.228 258.407 243.385 261.359 244.579 264.374C246.199 268.464 247.992 272.487 249.731 276.529C249.771 276.625 250.04 276.623 250.3 276.693C249.951 273.985 249.353 271.333 249.344 268.679C249.334 266.109 247.772 263.491 249.159 260.937ZM270.074 475.256C270.005 474.775 269.931 474.14 269.823 473.513C267.297 458.852 265.46 444.127 265.338 429.218C265.257 419.359 263.504 409.734 260.753 400.287C259.929 397.455 258.977 394.661 258.128 391.99C247.741 397.441 236.763 399.515 225.419 400.741C227.591 411.253 230.851 421.392 234.472 431.409C237.696 440.324 241.055 449.189 242.328 458.651C243.001 463.65 243.499 468.674 244.06 473.543C252.708 474.112 261.263 474.677 270.074 475.256ZM117.824 345.168C114.651 350.109 111.382 355.293 108.018 360.416C100.873 371.296 93.8288 382.247 86.4296 392.952C83.3875 397.352 79.5435 401.198 76.0514 405.287C74.0744 407.603 73.9715 408.266 75.9017 410.557C77.4941 412.445 79.2454 414.208 80.9932 415.957C83.4624 418.429 86.4436 420.138 89.6236 421.524C91.2954 422.252 92.7521 422.136 93.8873 420.53C94.2591 420.006 94.7349 419.554 95.1125 419.033C98.6128 414.211 102.826 410.091 107.346 406.226C115.933 398.882 124.435 391.438 132.95 384.011C138.872 378.844 142.539 371.937 147.304 365.641C145.161 364.38 143.158 363.351 141.316 362.09C135.277 357.96 129.275 353.776 123.307 349.547C121.428 348.215 119.697 346.673 117.824 345.168ZM188.783 48.7863C192.314 49.8427 194.231 48.3585 193.53 44.7567C193.023 42.1483 193.002 39.6614 193.567 37.1055C193.727 36.3797 193.761 35.6003 193.703 34.8582C193.505 32.3011 191.752 30.7269 189.226 30.7561C186.583 30.7865 184.183 32.5091 183.194 35.3502C182.381 37.6886 182.619 40.5063 179.925 41.9227C179.735 42.0232 179.811 42.5514 179.665 42.8284C179.336 43.4525 178.947 44.0438 178.178 45.32C174.949 40.1043 169.207 39.6321 165.428 36.7409C163.868 37.2773 162.464 38.2706 161.627 37.9177C160.581 37.4771 160.004 35.9286 159.127 34.7249C157.899 36.2208 156.782 37.5846 155.557 39.077C154.76 38.3571 154.249 37.8943 153.675 37.3754C152.441 39.1448 150.791 40.6757 150.258 42.5281C149.798 44.1256 150.604 46.089 150.858 47.8887C151.038 49.1649 151.148 50.4598 151.448 51.7079C151.67 52.6311 151.949 53.6689 152.55 54.3491C155.322 57.4858 155.783 61.2722 155.903 65.1978C155.934 66.2297 156.041 67.2593 156.124 68.4595C158.801 68.6699 160.839 67.5269 162.963 66.9484C163.343 66.8444 163.599 65.7505 163.637 65.0973C163.665 64.6111 163.252 64.1004 163.034 63.6002C164.681 64.4323 165.465 65.5939 164.32 67.1845C163.36 68.5179 163.539 69.7228 164.504 71.3227C166.526 70.8249 168.554 70.3258 170.968 69.7322C170.788 71.415 170.631 72.8653 170.452 74.5319C172.451 75.0753 173.436 76.6179 173.998 78.5824C174.627 80.7819 176.291 81.5181 178.454 81.538C181.448 81.5648 183.876 80.263 186.011 78.3569C188.855 75.8186 191.22 72.9507 192.319 69.1583C192.664 67.9687 192.725 66.308 194.613 65.9574C195.587 70.202 191.541 72.3663 190.555 75.8595C193.859 77.2805 196.998 78.6303 200.167 79.9942C203.81 76.6308 207.237 73.0149 211.129 70.0021C214.987 67.015 219.316 64.6333 223.735 61.7958C218.805 57.224 213.507 53.4048 210.654 47.2775C210.028 48.2568 209.531 49.0305 208.992 49.8708C207.924 49.4874 207.032 49.1661 206.178 48.8587C203.416 50.9892 202.622 50.8139 201.108 47.7532C200.679 46.886 200.395 45.9406 199.91 45.1096C198.626 42.9055 197.047 41.0065 194.065 40.0505C194.358 41.7042 194.595 42.9535 194.8 44.2074C195.193 46.6079 194.778 48.7372 192.601 50.1805C190.861 51.3328 190.032 51.0102 188.783 48.7863ZM143.096 37.2773C143.096 39.0431 143.096 40.2527 143.096 41.7591C144.954 40.7774 145.383 42.1483 145.841 43.4607C146.669 41.9928 147.386 40.7202 148.101 39.451C148.949 39.832 149.491 40.0762 150.068 40.3357C151.431 38.4553 152.735 36.6544 154.041 34.8523C154.42 34.6443 154.799 34.4374 155.179 34.2294C155.362 35.1258 155.545 36.0233 155.725 36.9033C157.137 35.2251 158.132 34.0436 159.398 32.5395C160.569 34.2189 161.444 35.4764 162.376 36.8133C163.715 36.0502 164.791 34.6303 166.48 35.8959C170.149 38.6469 175.161 39.0723 178.143 42.9897C178.648 41.8982 178.804 40.7412 179.398 40.435C181.017 39.6029 181.213 38.2625 181.47 36.7374C181.857 34.4398 182.966 32.4823 184.871 31.0565C187.121 29.3713 189.623 28.905 192.153 30.159C194.518 31.3311 195.259 33.4791 195.2 36.0899C195.175 37.1499 195.537 38.6995 196.282 39.2126C199.452 41.3921 201.483 44.2881 202.756 47.8326C202.889 48.2019 203.268 48.4836 203.706 49.0188C204.988 47.156 206.728 47.3815 208.779 48.154C209.09 46.5366 209.7 45.1727 209.535 43.9083C208.8 38.2636 207.944 32.6295 206.938 27.027C205.907 21.2853 203.725 16.0205 199.037 12.2633C195.769 9.64312 192.326 7.21581 188.799 4.95562C187.025 3.81851 184.953 3.01564 182.906 2.46287C178.056 1.15513 173.826 3.22951 169.703 5.3892C166.94 6.836 164.27 8.45927 161.57 10.0264C157.15 12.5928 153.03 15.5507 150.394 20.0524C146.885 26.0429 143.542 32.1293 139.99 38.4167C140.944 38.0661 141.697 37.7903 143.096 37.2773ZM149.407 292.058C145.133 296.275 141.138 299.878 137.578 303.868C135.838 305.817 134.89 308.478 133.622 310.837C133.058 311.887 133.154 312.848 134.048 313.771C134.919 314.669 136.186 315.727 134.957 317.052C133.733 318.372 132.73 316.708 131.566 316.314C129.601 320.681 127.56 324.942 125.763 329.305C124.565 332.215 125.425 334.165 128.167 335.759C128.817 336.137 129.499 336.459 130.169 336.804C138.173 340.929 146.941 343.634 153.962 349.588C154.032 349.647 154.17 349.629 154.458 349.677C156.581 345.78 158.856 341.891 160.861 337.867C165.217 329.127 171.826 323.097 181.282 320.329C181.622 320.23 181.927 320.008 182.649 319.636C181.165 318.783 180.096 318.077 178.953 317.529C174.297 315.301 169.622 313.112 164.947 310.924C158.457 307.887 153.451 303.411 150.922 296.524C150.487 295.334 150.106 294.122 149.407 292.058ZM249.483 344.145C246.748 342.39 244.114 340.736 241.52 339.024C237.683 336.493 233.528 334.871 228.959 334.22C225.659 333.75 222.383 333.099 219.108 332.468C214.828 331.644 211.442 334.403 211.607 338.766C211.811 344.145 212.053 349.527 212.443 354.896C212.781 359.534 213.877 364.037 215.531 368.388C216.362 370.577 217.516 372.351 220.187 372.758C221.518 372.96 222.772 373.786 224.008 374.431C224.902 374.898 225.701 375.622 225.106 376.75C224.542 377.816 223.504 377.673 222.539 377.342C221.675 377.046 220.833 376.684 219.469 376.152C220.208 377.998 220.669 379.41 221.322 380.725C222.39 382.87 223.055 383.235 225.455 382.759C227.348 382.384 229.256 381.905 231.033 381.171C236.306 378.99 241.509 376.641 246.755 374.395C250.991 372.582 250.997 372.607 249.915 368.24C249.631 367.091 249.416 365.923 249.112 364.78C248.02 360.674 247.584 356.548 248.346 352.313C248.837 349.58 249.119 346.809 249.483 344.145ZM250.876 341.957C251.482 340.22 251.92 339.03 252.314 337.825C255.826 327.095 258.82 316.195 263.305 305.785C265.427 300.862 267.094 295.736 268.831 290.655C269.554 288.542 270.496 286.258 270.308 284.144C270.083 281.621 268.755 279.195 267.905 276.727C267.656 276.779 267.407 276.832 267.158 276.884C267.158 278.46 267.224 280.039 267.143 281.609C267.018 284.074 266.864 286.542 266.586 288.994C266.432 290.346 265.789 291.539 264.191 291.587C262.775 291.63 262.031 290.593 261.709 289.421C261.113 287.248 260.71 285.024 260.203 282.826C259.972 281.821 259.689 280.827 259.429 279.828C258.998 281.239 259.024 282.53 258.991 283.82C258.957 285.111 259.006 286.426 258.765 287.683C258.288 290.172 256.814 290.783 254.561 289.575C254.24 289.403 253.916 289.238 253.522 289.033C249.014 296.454 243.621 302.846 237.14 308.308C233.846 311.085 230.411 313.718 227.326 316.711C223.175 320.737 219.302 325.048 215.097 329.46C217.429 329.641 219.24 329.662 221.007 329.95C223.34 330.331 225.636 330.941 227.956 331.416C233.176 332.486 238.045 334.345 242.524 337.306C245.017 338.955 247.751 340.236 250.876 341.957ZM41.8889 416.675C41.6937 416.716 41.4984 416.758 41.302 416.799C41.302 418.143 41.4096 419.498 41.2716 420.827C41.129 422.198 40.9115 423.607 40.4182 424.881C40.0066 425.945 38.9544 426.434 37.7339 426.167C36.3999 425.875 36.117 424.915 36.2257 423.717C36.3719 422.109 36.573 420.502 36.6302 418.891C36.6864 417.342 36.5905 415.789 36.5589 414.131C34.0126 414.131 31.9503 414.131 29.7781 414.131C31.2874 420.043 30.7216 425.435 27.254 430.597C29.5174 431.78 31.5294 433.052 33.7016 433.927C41.9006 437.226 49.8716 440.965 57.5234 445.403C59.3495 446.462 61.4375 447.071 63.266 447.829C63.7921 447.434 64.0832 447.276 64.2984 447.047C70.1158 440.862 77.2532 437.177 85.6018 435.77C86.0227 435.698 86.4611 435.612 86.8399 435.427C87.663 435.025 87.7401 433.807 86.9627 433.353C86.6026 433.142 86.1478 433.076 85.7258 432.996C80.1643 431.949 75.4972 429.085 71.1353 425.685C67.3532 422.738 64.0037 419.415 63.072 414.392C63.0404 414.222 62.6371 414.121 62.1472 413.837C62.7189 416.273 63.3315 418.41 63.6811 420.59C63.8412 421.594 63.7758 422.855 63.2801 423.679C62.8066 424.466 61.6936 425.158 60.7653 425.312C59.5588 425.512 58.8585 424.429 58.5966 423.322C58.3499 422.281 58.2915 421.194 58.1664 420.125C57.908 417.904 57.6602 415.683 57.4076 413.46C55.0297 413.793 54.8917 413.883 55.0753 415.306C55.17 416.047 55.5289 416.756 55.6037 417.496C55.7966 419.405 56.1169 421.339 55.9638 423.23C55.8516 424.604 55.0367 425.946 53.3122 426.02C52.0706 426.073 51.3376 425.003 51.0863 422.962C51.0337 422.536 51.0711 422.097 51.0068 421.673C50.6677 419.443 50.3462 417.209 49.9406 414.991C49.7418 413.903 48.9351 413.121 47.8852 413.517C47.3334 413.725 46.7851 414.827 46.812 415.503C46.8716 416.99 47.3755 418.456 47.5497 419.947C47.7228 421.43 47.8525 422.948 47.7146 424.423C47.6631 424.977 46.867 425.768 46.2964 425.882C45.7201 425.996 44.7216 425.582 44.4095 425.085C43.86 424.208 43.6648 423.1 43.3702 422.074C42.8569 420.28 42.3811 418.475 41.8889 416.675ZM211.502 499.133C210.079 499.12 209.302 499.252 209.521 500.55C209.933 502.979 211.003 505.043 212.893 506.624C214.462 507.936 216.231 509.031 217.679 510.456C219.446 512.197 221.516 512.742 223.837 512.624C227.705 512.427 231.565 512.041 235.433 511.92C240.699 511.755 245.971 511.729 251.24 511.724C252.611 511.723 253.984 512.019 255.468 512.191C259.562 503.058 265.802 496.265 275.361 492.801C273.813 490.036 272.426 487.561 271.059 485.118C261.072 488.53 251.298 487.056 241.228 485.484C241.934 487.377 242.655 488.733 242.929 490.175C243.342 492.363 243.569 494.607 243.627 496.833C243.657 498.007 243.137 499.298 241.785 499.588C240.351 499.895 239.715 498.688 239.143 497.655C238.363 496.244 237.719 494.759 236.926 493.357C236.211 492.09 235.46 490.798 233.474 490.172C234.147 492.125 234.937 493.678 235.183 495.313C235.481 497.287 235.578 499.371 235.278 501.333C235.028 502.963 233.525 503.192 232.407 501.94C231.767 501.225 231.358 500.305 230.744 499.562C229.334 497.857 228.072 495.937 225.439 495.287C225.654 496.895 225.985 498.242 225.968 499.584C225.953 500.84 225.677 502.124 225.297 503.326C225.143 503.815 224.426 504.405 223.942 504.427C223.495 504.447 222.876 503.853 222.584 503.377C222.141 502.654 221.996 501.753 221.581 501.009C220.818 499.645 220.194 498.092 218.329 497.719C217.803 499.45 217.457 501.153 216.77 502.705C215.941 504.573 214.828 504.714 213.187 503.451C211.787 502.374 211.261 500.925 211.502 499.133ZM279.619 257.286C282.256 258.165 284.54 258.566 287.05 257.742C287.458 252.665 287.483 247.595 286.437 242.65C283.714 229.794 281.674 216.839 280.067 203.804C279.871 202.226 279.508 200.668 279.123 198.556C278.687 199.44 278.487 199.702 278.424 199.993C277.141 205.879 275.872 211.767 274.603 217.655C273.743 221.652 272.829 225.639 272.048 229.651C271.371 233.132 271.604 236.412 273.801 239.512C275.012 241.22 275.708 243.361 276.336 245.399C277.535 249.302 278.522 253.267 279.619 257.286ZM256.763 512.498C261.683 513.036 266.119 513.729 270.638 513.562C274.734 513.41 276.539 512.122 277.593 508.145C278.881 503.286 277.667 498.659 276.062 493.789C266.962 497.35 260.961 503.562 256.763 512.498ZM26.1504 429.719C29.0159 425.712 29.591 421.436 29.1947 416.941C28.9831 414.55 28.1519 412.649 25.5763 411.795C24.0635 411.293 22.719 410.302 21.2658 409.6C18.7032 408.361 16.0025 407.732 13.137 407.924C9.84483 408.145 8.93176 409.634 10.8959 412.271C14.554 417.182 18.4366 421.929 22.3508 426.641C23.3469 427.843 24.8106 428.657 26.1504 429.719ZM64.6012 448.52C68.6778 449.797 72.3102 450.99 75.9777 452.058C77.5093 452.505 79.0209 452.271 79.9562 450.767C82.2161 447.136 84.4748 443.501 86.6213 439.803C87.1018 438.975 87.1217 437.88 87.3871 436.772C79.1472 437.645 70.9401 441.842 64.6012 448.52ZM243.546 481.493C252.133 483.077 266.846 483.003 270.244 481.408C270.536 477.555 270.108 476.806 266.574 476.575C260.244 476.16 253.902 475.836 247.561 475.725C242.95 475.644 242.804 475.982 243.319 480.414C243.355 480.728 243.448 481.037 243.546 481.493ZM90.2397 423.655C82.2594 420.859 76.7891 415.489 72.4143 408.24C70.7483 410.101 69.163 411.874 67.3567 413.893C68.8427 415.412 69.9253 416.743 71.2277 417.804C74.5584 420.516 77.9266 423.19 81.3919 425.727C86.301 429.322 86.3477 429.263 90.2397 423.655ZM208.371 499.326C205.921 499.819 203.781 500.042 201.797 500.719C200.44 501.182 199.015 502.042 198.114 503.132C195.912 505.799 196.892 508.589 200.227 509.401C202.829 510.035 205.489 510.446 208.135 510.884C211.148 511.383 214.173 511.803 217.194 512.256C217.308 512.05 217.422 511.845 217.536 511.639C213.441 508.37 208.606 505.664 208.371 499.326ZM199.604 93.9632C199.944 93.2047 200.33 92.5771 200.516 91.8958C202.73 83.7549 207.048 76.9802 213.707 71.7773C216.329 69.7287 219.122 67.8997 221.824 65.9539C222.726 65.3041 223.589 64.5982 224.741 63.7089C224.057 63.6282 223.827 63.5254 223.682 63.5955C214.826 67.8541 207.394 73.9732 200.942 81.2949C198.07 84.5543 196.682 88.6294 195.027 92.895C196.762 93.3005 198.095 93.6102 199.604 93.9632ZM229.708 383.48C230.82 387.285 231.843 390.749 232.839 394.22C233.186 395.432 233.335 396.753 234.876 397.293C236.817 396.355 236.909 394.829 236.431 393C235.504 389.447 234.651 385.874 233.702 382.04C232.41 382.507 230.929 383.041 229.708 383.48ZM86.6236 431.269C77.9816 426.438 70.4011 421.469 64.4375 413.439C65.2196 420.939 77.8565 430.965 86.6236 431.269ZM238.112 380.043C238.947 381.67 239.767 382.908 240.232 384.266C240.783 385.882 240.97 387.618 241.426 389.273C241.853 390.821 242.316 392.377 242.988 393.826C243.229 394.345 244.35 394.993 244.675 394.823C245.305 394.496 246.024 393.641 246.041 392.987C246.07 391.848 245.663 390.676 245.318 389.554C244.192 385.894 243.013 382.251 241.774 378.349C240.641 378.873 239.318 379.485 238.112 380.043ZM228.386 385.17C226.469 386.199 226.434 387.753 226.63 389.195C227.073 392.433 227.703 395.646 228.304 399.143C229.953 398.874 231.48 398.626 233.35 398.321C230.66 394.102 231.091 389.128 228.386 385.17ZM247.944 395.036C249.181 394.607 250.608 394.112 251.709 393.731C250.663 391.433 249.614 389.478 248.886 387.41C248.325 385.815 248.143 384.083 247.84 382.403C247.471 380.36 246.699 378.739 243.872 378.555C244.035 379.931 244.025 381.19 244.355 382.354C244.968 384.51 245.857 386.587 246.483 388.739C247.038 390.649 247.392 392.617 247.944 395.036ZM242.861 396.234C239.344 391.973 240.355 386.334 237.434 382.046C235.417 383.106 235.455 384.456 235.871 386.051C236.81 389.653 238.253 393.175 237.509 397.341C239.37 396.956 240.893 396.642 242.861 396.234ZM245.623 376.577C245.565 376.783 245.507 376.987 245.448 377.193C248.461 378.127 249.016 380.52 249.441 383.042C249.726 384.735 250.068 386.436 250.593 388.066C250.999 389.326 251.727 390.482 252.397 391.858C254.029 389.717 254.179 388.722 253.343 385.94C252.221 382.209 251.047 378.492 249.86 374.653C248.529 375.259 247.077 375.918 245.623 376.577ZM140.717 360.005C142.611 360.146 143.571 359.381 144.259 358.257C145.211 356.704 146.038 355.076 146.965 353.508C147.92 351.891 148.931 350.307 150.041 348.51C148.848 347.781 147.535 346.977 145.976 346.022C145.43 351.328 141.595 354.952 140.717 360.005ZM242.602 483.876C251.269 486.015 259.954 486.778 268.648 484.186C265.775 483.851 262.901 483.86 260.026 483.847C257.007 483.834 253.987 483.723 250.972 483.799C248.184 483.871 245.409 482.721 242.602 483.876ZM139.66 342.941C137.788 346.241 135.978 349.29 134.314 352.418C133.187 354.537 133.352 354.786 135.948 356.174C138.168 352.313 140.398 348.436 142.769 344.311C141.672 343.828 140.645 343.374 139.66 342.941ZM235.133 488.678C236.303 490.309 237.428 491.722 238.38 493.242C239.361 494.808 240.174 496.479 241.211 498.381C242.701 495.263 242.559 492.804 241.06 489.075C240.471 487.607 239.804 486.329 237.758 486.3C236.937 487.045 236.011 487.884 235.133 488.678ZM226.462 493.393C228.962 495.951 231.304 498.348 233.818 500.919C235.265 497.081 233.337 494.129 232.149 490.817C230.061 491.763 228.219 492.597 226.462 493.393ZM144.431 345.041C141.882 346.891 141.214 349.083 140.156 351.009C139.036 353.047 137.869 355.06 136.649 357.217C137.6 357.815 138.465 358.36 139.327 358.902C140.473 356.579 141.581 354.509 142.526 352.366C143.449 350.273 145.234 348.364 144.431 345.041ZM221.507 384.352C222.632 389.435 223.261 394.29 226.198 398.423C227.195 393.825 224.067 389.495 225.876 384.853C224.353 384.678 223.116 384.537 221.507 384.352ZM207.26 331.502C207.224 331.297 207.189 331.093 207.153 330.889C204.219 329.756 201.286 328.622 198.1 327.39C198.097 330.058 198.174 332.315 199.3 334.324C202.105 333.329 204.682 332.416 207.26 331.502ZM221.504 295.916C214.66 298.545 207.658 300.706 201.221 304.233C208.783 303.414 215.396 300.245 221.504 295.916ZM136.916 341.731C135.089 340.941 133.84 340.402 132.375 339.769C131.854 343.68 128.93 346.357 128.388 350.595C132.439 348.411 133.564 344.321 136.916 341.731ZM142.687 361.236C143.978 361.954 144.922 362.479 145.748 362.939C146.989 360.662 148.137 358.74 149.105 356.728C150.036 354.793 151.589 353.014 150.749 350.371C147.319 353.332 146.879 358.478 142.687 361.236ZM254.711 391.958C256.959 390.766 257.323 390.258 256.677 387.928C255.651 384.224 254.42 380.574 253.227 376.917C253.018 376.277 252.573 375.712 252.075 374.825C251.239 377.11 252.117 378.748 252.702 380.434C253.991 384.134 255.837 387.729 254.711 391.958ZM126.986 349.902C127.777 348.05 128.459 346.41 129.176 344.787C129.892 343.161 131.147 341.69 130.876 339.304C127.49 341.646 126.429 345.177 123.847 347.833C124.997 348.591 125.938 349.212 126.986 349.902ZM138.142 343.179C137.878 343 137.614 342.823 137.351 342.644C134.736 345.644 132.121 348.644 129.39 351.777C130.321 352.457 131.258 353.142 132.28 353.886C134.294 350.206 136.218 346.692 138.142 343.179ZM184.338 254.064C187.37 255.802 190.688 255.237 193.893 255.394C201.234 255.754 201.789 255.633 204.002 254.064C197.178 254.064 190.758 254.064 184.338 254.064ZM45.6102 424.199C45.8732 424.151 46.1363 424.103 46.4005 424.055C46.653 420.477 44.966 417.061 45.2571 413.239C43.846 413.341 42.6582 413.427 41.7556 413.493C43.1071 417.249 44.358 420.724 45.6102 424.199ZM224.124 503.054C225.625 499.859 224.596 497.301 223.405 494.484C221.938 495.069 220.683 495.568 219.511 496.034C221.034 498.349 222.427 500.471 224.124 503.054ZM52.8446 424.421C53.1649 424.387 53.4864 424.353 53.8068 424.319C55.7066 420.589 53.2292 416.958 53.2935 413.093C52.3536 413.218 51.6778 413.307 51.0325 413.393C51.6638 417.238 52.2542 420.829 52.8446 424.421ZM37.7105 424.707C40.0557 423.667 40.1563 422.952 39.3543 413.594C38.6715 414.117 37.7877 414.47 37.7736 414.853C37.6626 418.108 37.7105 421.368 37.7105 424.707ZM126.301 336.412C125.084 339.792 123.995 342.813 122.907 345.834C123.118 345.938 123.331 346.043 123.543 346.147C125.471 343.567 127.4 340.987 129.425 338.276C128.54 337.748 127.645 337.215 126.301 336.412ZM59.2829 413.641C59.2069 417.066 59.2127 420.485 60.3222 423.947C62.9656 422.19 62.5576 418.358 59.2829 413.641ZM69.882 406.398C68.2172 404.82 67.0832 405.414 66.1724 406.411C64.6771 408.047 63.3128 409.802 61.8935 411.508C65.2816 410.902 67.7016 409.033 69.882 406.398ZM153.216 351.295C151.515 354.432 149.816 357.571 148.111 360.705C147.569 361.7 147.049 362.686 148.198 364.395C150.511 359.876 153.01 356.044 153.216 351.295ZM124.504 335.288C121.31 338.505 119.791 343.379 121.243 345.757C123.675 341.053 124.851 337.278 124.504 335.288ZM178.195 264.599C179.503 265.53 180.841 266.25 181.873 267.277C182.958 268.355 183.751 269.729 184.653 270.949C185.969 270.255 186.084 269.292 185.479 268.419C183.748 265.925 181.345 264.616 178.195 264.599ZM214.823 503.351C216.265 501.275 216.833 499.54 216.541 497.078C214.954 498.129 213.68 498.973 212.072 500.039C213.09 501.263 213.828 502.152 214.823 503.351ZM58.1348 407.895C59.2384 403.972 59.1905 403.335 58.1933 400.864C56.525 400.753 56.1602 401.827 56.4794 403.103C56.8862 404.736 57.5701 406.299 58.1348 407.895ZM279.622 481.785C278.554 481.225 277.862 480.562 277.47 480.708C275.719 481.356 273.461 481.225 272.445 483.456C274.89 483.764 275.908 483.548 279.622 481.785ZM70.3824 452.467C70.1264 452.99 69.944 453.349 69.7721 453.713C69.3793 454.549 69.2858 455.328 70.2175 455.892C71.2499 456.517 71.728 455.741 72.26 455.085C72.6446 454.611 73.0503 454.151 73.6243 453.476C72.4108 453.099 71.4404 452.797 70.3824 452.467ZM240.441 482.96C241.911 480.837 241.767 478.697 239.953 476.306C239.025 478.704 239.97 480.743 240.441 482.96ZM242.328 153.794C242.558 153.589 242.788 153.385 243.019 153.179C242.096 152.047 241.173 150.914 240.006 149.483C238.901 151.065 238.042 152.295 236.744 154.154C238.647 153.08 239.867 152.392 241.16 151.662C241.669 152.594 241.999 153.193 242.328 153.794ZM31.7866 435.305C30.6386 434.804 29.8108 434.442 28.8498 434.024C28.4395 435.26 27.4563 436.449 28.9399 437.215C30.3568 437.947 30.9133 436.564 31.7866 435.305ZM241.252 200.247C241.087 200.059 240.921 199.871 240.756 199.683C238.909 201.244 237.062 202.806 235.215 204.368C235.375 204.566 235.536 204.765 235.697 204.963C237.875 203.809 239.567 202.033 241.252 200.247ZM240.227 158.822C239.28 160.977 238.333 163.132 237.386 165.287C239.375 163.567 240.644 161.545 240.227 158.822ZM238.435 483.948C237.617 481.955 236.493 480.22 234.039 478.64C235.064 481.421 236.446 482.939 238.435 483.948ZM59.6699 448.618C58.8 448.178 58.1886 447.87 57.4684 447.506C56.7506 448.693 55.7709 449.651 57.5643 451.01C58.2342 450.248 58.8795 449.514 59.6699 448.618ZM41.7545 442.472C43.6741 442.621 44.2598 441.817 44.6936 440.554C43.8834 440.257 43.2252 440.017 42.3414 439.693C42.1379 440.658 41.9766 441.419 41.7545 442.472ZM216.364 131.943C216.196 132.178 216.027 132.413 215.859 132.648C217.304 133.707 218.748 134.766 220.193 135.825C220.344 135.617 220.495 135.407 220.645 135.199C219.219 134.115 217.792 133.029 216.364 131.943ZM245.481 515.478C245.799 515.47 246.116 515.462 246.434 515.454C246.665 514.721 246.895 513.988 247.376 512.465C246.14 513.11 245.323 513.274 245.11 513.724C244.906 514.153 245.331 514.881 245.481 515.478ZM18.9229 426.953C19.0562 426.668 19.1895 426.382 19.3228 426.097C18.8715 425.605 18.4202 425.111 17.6346 424.254C17.0243 425.675 16.7239 426.375 16.1872 427.624C17.4698 427.31 18.1969 427.132 18.9229 426.953ZM55.7475 411.209C54.064 409.554 52.792 409.752 51.0395 411.209C52.7978 411.209 54.0698 411.209 55.7475 411.209ZM230.831 514.285C229.29 514.042 228.277 513.807 228.428 515.347C228.473 515.797 229.092 516.192 229.448 516.612C229.853 515.932 230.258 515.251 230.831 514.285ZM261.372 515.394C260.692 515.007 260.251 514.554 259.912 514.619C259.556 514.688 259.048 515.263 259.059 515.603C259.072 516.003 259.57 516.389 259.857 516.78C260.276 516.396 260.696 516.012 261.372 515.394ZM207.679 227.464C207.769 227.645 207.859 227.825 207.95 228.006C209.041 227.465 210.132 226.924 211.222 226.383C211.137 226.214 211.052 226.045 210.966 225.876C209.87 226.406 208.774 226.935 207.679 227.464ZM220.74 373.912C221.287 375.305 222.159 376.039 223.643 375.449C222.676 374.936 221.708 374.424 220.74 373.912ZM10.6772 414.685C9.45435 416.317 9.76767 416.964 10.6761 417.369C10.8748 417.458 11.2255 417.204 11.5073 417.108C11.2863 416.465 11.0654 415.821 10.6772 414.685ZM214.483 513.519C212.752 514.414 212.752 514.414 213.987 515.822C214.163 515.007 214.3 514.369 214.483 513.519ZM273.654 514.799C271.682 515.977 271.682 515.977 272.889 517.119C273.095 516.495 273.274 515.954 273.654 514.799ZM251.49 191.115C251.363 190.961 251.235 190.808 251.109 190.654C250.775 191.086 250.439 191.517 250.105 191.95C250.566 191.671 251.028 191.393 251.49 191.115ZM209.696 231.61C209.694 231.732 209.693 231.854 209.692 231.974C210.551 231.974 211.411 231.974 212.271 231.974C212.272 231.852 212.275 231.731 212.276 231.61C211.415 231.61 210.555 231.61 209.696 231.61Z" fill="black" fill-opacity="0.1"/>
<path d="M274.299 171.589C274.299 169.678 274.299 167.767 274.299 165.795C275.868 167.404 275.868 167.404 274.299 171.589Z" fill="black" fill-opacity="0.1"/>
<path d="M153.602 54.0323C153.042 51.3771 154.577 49.4745 156.554 48.0394C158.429 46.6779 160.489 44.9121 163.411 47.122C161.616 48.3736 159.914 49.388 158.422 50.6514C157.016 51.8422 155.83 53.2937 154.549 54.6295C154.232 54.4296 153.918 54.231 153.602 54.0323ZM155.039 52.4324C157.098 50.718 159.156 49.0047 161.589 46.9783C158.11 47.6748 156.14 49.4897 155.039 52.4324Z" fill="black" fill-opacity="0.1"/>
<path d="M187.894 35.1501C186.511 36.154 185.758 36.6998 184.75 37.4314C184.74 35.7158 185.609 34.893 186.787 34.4408C188.381 33.8284 189.808 35.239 189.494 37.2572C189.251 38.8232 188.974 40.2525 189.358 41.9132C189.726 43.5096 188.329 44.3943 186.711 44.7706C187.901 43.4149 188.741 42.1738 187.708 40.3215C187.388 39.7477 187.969 38.7087 188.031 37.8743C188.079 37.2011 187.97 36.5151 187.894 35.1501Z" fill="black" fill-opacity="0.1"/>
<path d="M158.832 57.8257C158.503 56.5554 158.267 55.6473 157.974 54.5137C160.852 55.3972 162.019 52.1227 164.888 51.8013C163.606 54.7323 161.632 56.4151 158.832 57.8257Z" fill="black" fill-opacity="0.1"/>
</svg>
